<?xml version="1.0" encoding="UTF-8" standalone="no"?>
<!-- Created with Inkscape (http://www.inkscape.org/) -->

<svg
   xmlns:dc="http://purl.org/dc/elements/1.1/"
   xmlns:cc="http://creativecommons.org/ns#"
   xmlns:rdf="http://www.w3.org/1999/02/22-rdf-syntax-ns#"
   xmlns:svg="http://www.w3.org/2000/svg"
   xmlns="http://www.w3.org/2000/svg"
   xmlns:sodipodi="http://sodipodi.sourceforge.net/DTD/sodipodi-0.dtd"
   xmlns:inkscape="http://www.inkscape.org/namespaces/inkscape"
   width="164.63803mm"
   height="35.947754mm"
   viewBox="0 0 164.63803 35.947754"
   version="1.1"
   id="svg8"
   inkscape:version="0.92.2 2405546, 2018-03-11"
   sodipodi:docname="logo.svg">
  <defs
     id="defs2" />
  <sodipodi:namedview
     id="base"
     pagecolor="#ffffff"
     bordercolor="#666666"
     borderopacity="1.0"
     inkscape:pageopacity="0.0"
     inkscape:pageshadow="2"
     inkscape:zoom="1.979899"
     inkscape:cx="156.18183"
     inkscape:cy="-86.800061"
     inkscape:document-units="mm"
     inkscape:current-layer="layer1"
     showgrid="false"
     fit-margin-top="0"
     fit-margin-left="0"
     fit-margin-right="0"
     fit-margin-bottom="0"
     inkscape:window-width="1914"
     inkscape:window-height="1044"
     inkscape:window-x="0"
     inkscape:window-y="30"
     inkscape:window-maximized="1" />
  <metadata
     id="metadata5">
    <rdf:RDF>
      <cc:Work
         rdf:about="">
        <dc:format>image/svg+xml</dc:format>
        <dc:type
           rdf:resource="http://purl.org/dc/dcmitype/StillImage" />
        <dc:title></dc:title>
      </cc:Work>
    </rdf:RDF>
  </metadata>
  <g
     inkscape:label="Layer 1"
     inkscape:groupmode="layer"
     id="layer1"
     transform="translate(-15.587708,-106.29253)">
    <g
       aria-label="Robbie Meyer"
       style="font-style:normal;font-variant:normal;font-weight:600;font-stretch:normal;font-size:22.57777786px;line-height:6.61458349px;font-family:Raleway;-inkscape-font-specification:'Raleway Semi-Bold';letter-spacing:0px;word-spacing:0px;fill:#ff00ff;fill-opacity:1;stroke:none;stroke-width:0.26458332px;stroke-linecap:butt;stroke-linejoin:miter;stroke-opacity:1"
       id="text817-1">
      <path
         d="m 25.99587,131.01213 v -16.03022 h 6.976533 q 1.083734,0 1.986845,0.45155 0.925689,0.45156 1.580444,1.19663 0.654756,0.72249 1.016,1.67075 0.383822,0.92569 0.383822,1.89654 0,0.8128 -0.225777,1.55786 -0.225778,0.74507 -0.632178,1.37725 -0.4064,0.63217 -0.993422,1.10631 -0.587023,0.45155 -1.286934,0.67733 l 3.770489,6.096 h -2.867378 l -3.476977,-5.57671 h -3.702756 v 5.57671 z m 2.528711,-7.81191 h 4.425244 q 0.541867,0 0.970845,-0.22578 0.451555,-0.24835 0.767644,-0.65475 0.316089,-0.42898 0.496711,-0.97085 0.180623,-0.54186 0.180623,-1.15146 0,-0.6096 -0.225778,-1.15147 -0.2032,-0.54187 -0.564445,-0.94827 -0.338666,-0.4064 -0.8128,-0.63218 -0.451555,-0.24835 -0.948266,-0.24835 h -4.289778 z"
         style="font-style:normal;font-variant:normal;font-weight:600;font-stretch:normal;font-family:Raleway;-inkscape-font-specification:'Raleway Semi-Bold';fill:#ff00ff;stroke-width:0.26458332px"
         id="path15" />
      <path
         d="m 45.537642,131.23791 q -1.399822,0 -2.528711,-0.49671 -1.106311,-0.49671 -1.896534,-1.33209 -0.790222,-0.83538 -1.2192,-1.94169 -0.428977,-1.12889 -0.428977,-2.34809 0,-1.2192 0.428977,-2.32551 0.428978,-1.12889 1.2192,-1.96427 0.8128,-0.83537 1.919111,-1.33209 1.128889,-0.49671 2.506134,-0.49671 1.377244,0 2.483555,0.49671 1.128889,0.49672 1.919112,1.33209 0.8128,0.83538 1.241777,1.96427 0.428978,1.10631 0.428978,2.32551 0,1.2192 -0.428978,2.34809 -0.428977,1.10631 -1.241777,1.94169 -0.790223,0.83538 -1.919112,1.33209 -1.106311,0.49671 -2.483555,0.49671 z m -3.522134,-6.096 q 0,0.85795 0.270934,1.58044 0.270933,0.72249 0.745066,1.26436 0.474134,0.51929 1.106312,0.83538 0.654755,0.29351 1.399822,0.29351 0.745066,0 1.377244,-0.29351 0.654756,-0.31609 1.128889,-0.85796 0.474134,-0.54187 0.745067,-1.26435 0.270933,-0.72249 0.270933,-1.58045 0,-0.83538 -0.270933,-1.55787 -0.270933,-0.74506 -0.745067,-1.28693 -0.474133,-0.54187 -1.128889,-0.83538 -0.632178,-0.31609 -1.377244,-0.31609 -0.722489,0 -1.377245,0.31609 -0.632177,0.31609 -1.106311,0.85796 -0.474133,0.54187 -0.767644,1.28693 -0.270934,0.72249 -0.270934,1.55787 z"
         style="font-style:normal;font-variant:normal;font-weight:600;font-stretch:normal;font-family:Raleway;-inkscape-font-specification:'Raleway Semi-Bold';fill:#ff00ff;stroke-width:0.26458332px"
         id="path17" />
      <path
         d="m 60.180742,131.23791 q -1.354667,0 -2.460978,-0.63218 -1.083733,-0.65475 -1.715911,-1.73849 v 2.14489 h -2.190045 v -16.48178 h 2.483556 v 6.9088 q 0.699911,-1.12889 1.738489,-1.78364 1.061156,-0.65476 2.483556,-0.65476 1.174044,0 2.144888,0.51929 0.970845,0.49671 1.648178,1.35467 0.699911,0.83538 1.061156,1.96427 0.383822,1.10631 0.383822,2.32551 0,1.26435 -0.428978,2.37066 -0.428978,1.10631 -1.174044,1.94169 -0.745067,0.8128 -1.783645,1.28694 -1.016,0.47413 -2.190044,0.47413 z m -0.654756,-2.12231 q 0.8128,0 1.490134,-0.31609 0.677333,-0.33867 1.151466,-0.88053 0.496711,-0.54187 0.767645,-1.24178 0.270933,-0.72249 0.270933,-1.51271 0,-0.79023 -0.270933,-1.51271 -0.248356,-0.74507 -0.722489,-1.28694 -0.451556,-0.56444 -1.106311,-0.90311 -0.632178,-0.33867 -1.399822,-0.33867 -1.151467,0 -2.054578,0.74507 -0.880534,0.74507 -1.354667,1.80622 v 3.11574 q 0.135467,0.51929 0.474133,0.94826 0.338667,0.4064 0.790223,0.72249 0.451555,0.31609 0.970844,0.49671 0.519289,0.15805 0.993422,0.15805 z"
         style="font-style:normal;font-variant:normal;font-weight:600;font-stretch:normal;font-family:Raleway;-inkscape-font-specification:'Raleway Semi-Bold';fill:#ff00ff;stroke-width:0.26458332px"
         id="path19" />
      <path
         d="m 74.380046,131.23791 q -1.354666,0 -2.460977,-0.63218 -1.083734,-0.65475 -1.715911,-1.73849 v 2.14489 h -2.190045 v -16.48178 h 2.483556 v 6.9088 q 0.699911,-1.12889 1.738489,-1.78364 1.061155,-0.65476 2.483555,-0.65476 1.174045,0 2.144889,0.51929 0.970844,0.49671 1.648178,1.35467 0.699911,0.83538 1.061155,1.96427 0.383823,1.10631 0.383823,2.32551 0,1.26435 -0.428978,2.37066 -0.428978,1.10631 -1.174045,1.94169 -0.745066,0.8128 -1.783644,1.28694 -1.016,0.47413 -2.190045,0.47413 z m -0.654755,-2.12231 q 0.8128,0 1.490133,-0.31609 0.677334,-0.33867 1.151467,-0.88053 0.496711,-0.54187 0.767644,-1.24178 0.270934,-0.72249 0.270934,-1.51271 0,-0.79023 -0.270934,-1.51271 -0.248355,-0.74507 -0.722489,-1.28694 -0.451555,-0.56444 -1.106311,-0.90311 -0.632177,-0.33867 -1.399822,-0.33867 -1.151467,0 -2.054578,0.74507 -0.880533,0.74507 -1.354666,1.80622 v 3.11574 q 0.135466,0.51929 0.474133,0.94826 0.338667,0.4064 0.790222,0.72249 0.451556,0.31609 0.970845,0.49671 0.519289,0.15805 0.993422,0.15805 z"
         style="font-style:normal;font-variant:normal;font-weight:600;font-stretch:normal;font-family:Raleway;-inkscape-font-specification:'Raleway Semi-Bold';fill:#ff00ff;stroke-width:0.26458332px"
         id="path21" />
      <path
         d="m 82.21242,131.01213 v -11.80818 h 2.483555 v 11.80818 z m 0,-13.74987 v -2.73191 h 2.483555 v 2.73191 z"
         style="font-style:normal;font-variant:normal;font-weight:600;font-stretch:normal;font-family:Raleway;-inkscape-font-specification:'Raleway Semi-Bold';fill:#ff00ff;stroke-width:0.26458332px"
         id="path23" />
      <path
         d="m 93.031409,131.23791 q -1.377245,0 -2.506134,-0.47413 -1.128889,-0.49672 -1.941689,-1.33209 -0.790222,-0.83538 -1.241777,-1.94169 -0.428978,-1.10631 -0.428978,-2.34809 0,-1.24178 0.428978,-2.34809 0.451555,-1.12889 1.241777,-1.96427 0.8128,-0.85795 1.941689,-1.33209 1.128889,-0.49671 2.528711,-0.49671 1.377245,0 2.483556,0.49671 1.128889,0.49672 1.919111,1.33209 0.790222,0.8128 1.196622,1.91911 0.428978,1.08374 0.428978,2.28036 0,0.27093 -0.02258,0.51929 -0.02258,0.22578 -0.04515,0.38382 h -9.460089 q 0.06773,0.79022 0.361244,1.4224 0.316089,0.63218 0.790223,1.10631 0.496711,0.45156 1.106311,0.69991 0.632177,0.24836 1.309511,0.24836 0.496711,0 0.970844,-0.11289 0.496711,-0.13547 0.903111,-0.36124 0.4064,-0.24836 0.722489,-0.58703 0.316089,-0.33866 0.496711,-0.74506 l 2.122311,0.6096 q -0.6096,1.33209 -2.032,2.19004 -1.399822,0.83538 -3.273777,0.83538 z m 3.589866,-7.02169 q -0.06773,-0.74507 -0.383822,-1.37724 -0.293511,-0.63218 -0.767644,-1.06116 -0.474134,-0.45156 -1.106311,-0.69991 -0.632178,-0.24836 -1.332089,-0.24836 -0.699911,0 -1.332089,0.24836 -0.6096,0.24835 -1.083734,0.69991 -0.474133,0.42898 -0.767644,1.06116 -0.293511,0.63217 -0.361244,1.37724 z"
         style="font-style:normal;font-variant:normal;font-weight:600;font-stretch:normal;font-family:Raleway;-inkscape-font-specification:'Raleway Semi-Bold';fill:#ff00ff;stroke-width:0.26458332px"
         id="path25" />
      <path
         d="m 120.4814,131.01213 v -11.53724 l -4.76391,8.7376 h -1.39982 l -4.78649,-8.7376 v 11.53724 h -2.52871 v -16.03022 h 2.70933 l 5.30578,9.79875 5.30578,-9.79875 h 2.70933 v 16.03022 z"
         style="font-style:normal;font-variant:normal;font-weight:600;font-stretch:normal;font-family:Raleway;-inkscape-font-specification:'Raleway Semi-Bold';fill:#ff00ff;stroke-width:0.26458332px"
         id="path27" />
      <path
         d="m 131.48418,131.23791 q -1.37724,0 -2.50613,-0.47413 -1.12889,-0.49672 -1.94169,-1.33209 -0.79022,-0.83538 -1.24178,-1.94169 -0.42898,-1.10631 -0.42898,-2.34809 0,-1.24178 0.42898,-2.34809 0.45156,-1.12889 1.24178,-1.96427 0.8128,-0.85795 1.94169,-1.33209 1.12889,-0.49671 2.52871,-0.49671 1.37724,0 2.48356,0.49671 1.12888,0.49672 1.91911,1.33209 0.79022,0.8128 1.19662,1.91911 0.42898,1.08374 0.42898,2.28036 0,0.27093 -0.0226,0.51929 -0.0226,0.22578 -0.0452,0.38382 h -9.46009 q 0.0677,0.79022 0.36125,1.4224 0.31609,0.63218 0.79022,1.10631 0.49671,0.45156 1.10631,0.69991 0.63218,0.24836 1.30951,0.24836 0.49671,0 0.97085,-0.11289 0.49671,-0.13547 0.90311,-0.36124 0.4064,-0.24836 0.72249,-0.58703 0.31609,-0.33866 0.49671,-0.74506 l 2.12231,0.6096 q -0.6096,1.33209 -2.032,2.19004 -1.39982,0.83538 -3.27378,0.83538 z m 3.58987,-7.02169 q -0.0677,-0.74507 -0.38382,-1.37724 -0.29351,-0.63218 -0.76765,-1.06116 -0.47413,-0.45156 -1.10631,-0.69991 -0.63218,-0.24836 -1.33209,-0.24836 -0.69991,0 -1.33209,0.24836 -0.6096,0.24835 -1.08373,0.69991 -0.47413,0.42898 -0.76764,1.06116 -0.29352,0.63217 -0.36125,1.37724 z"
         style="font-style:normal;font-variant:normal;font-weight:600;font-stretch:normal;font-family:Raleway;-inkscape-font-specification:'Raleway Semi-Bold';fill:#ff00ff;stroke-width:0.26458332px"
         id="path29" />
      <path
         d="m 139.68063,133.7892 q 0.33866,0.0677 0.65475,0.11289 0.33867,0.0452 0.54187,0.0452 0.29351,0 0.49671,-0.13546 0.22578,-0.11289 0.45155,-0.42898 0.22578,-0.31609 0.45156,-0.90311 0.24836,-0.56445 0.56444,-1.46756 l -4.85422,-11.80818 h 2.55129 l 3.6576,9.61814 3.2512,-9.61814 h 2.34809 l -5.35093,14.54009 q -0.36125,1.016 -1.26436,1.69334 -0.88053,0.69991 -2.28035,0.69991 -0.27094,0 -0.56445,-0.0452 -0.29351,-0.0226 -0.65475,-0.13547 z"
         style="font-style:normal;font-variant:normal;font-weight:600;font-stretch:normal;font-family:Raleway;-inkscape-font-specification:'Raleway Semi-Bold';fill:#ff00ff;stroke-width:0.26458332px"
         id="path31" />
      <path
         d="m 156.57551,131.23791 q -1.37725,0 -2.50614,-0.47413 -1.12889,-0.49672 -1.94169,-1.33209 -0.79022,-0.83538 -1.24177,-1.94169 -0.42898,-1.10631 -0.42898,-2.34809 0,-1.24178 0.42898,-2.34809 0.45155,-1.12889 1.24177,-1.96427 0.8128,-0.85795 1.94169,-1.33209 1.12889,-0.49671 2.52871,-0.49671 1.37725,0 2.48356,0.49671 1.12889,0.49672 1.91911,1.33209 0.79022,0.8128 1.19662,1.91911 0.42898,1.08374 0.42898,2.28036 0,0.27093 -0.0226,0.51929 -0.0226,0.22578 -0.0452,0.38382 h -9.46009 q 0.0677,0.79022 0.36124,1.4224 0.31609,0.63218 0.79023,1.10631 0.49671,0.45156 1.10631,0.69991 0.63217,0.24836 1.30951,0.24836 0.49671,0 0.97084,-0.11289 0.49671,-0.13547 0.90311,-0.36124 0.4064,-0.24836 0.72249,-0.58703 0.31609,-0.33866 0.49671,-0.74506 l 2.12231,0.6096 q -0.6096,1.33209 -2.032,2.19004 -1.39982,0.83538 -3.27377,0.83538 z m 3.58986,-7.02169 q -0.0677,-0.74507 -0.38382,-1.37724 -0.29351,-0.63218 -0.76764,-1.06116 -0.47414,-0.45156 -1.10631,-0.69991 -0.63218,-0.24836 -1.33209,-0.24836 -0.69991,0 -1.33209,0.24836 -0.6096,0.24835 -1.08374,0.69991 -0.47413,0.42898 -0.76764,1.06116 -0.29351,0.63217 -0.36124,1.37724 z"
         style="font-style:normal;font-variant:normal;font-weight:600;font-stretch:normal;font-family:Raleway;-inkscape-font-specification:'Raleway Semi-Bold';fill:#ff00ff;stroke-width:0.26458332px"
         id="path33" />
      <path
         d="m 171.31209,121.34884 q -1.44497,0.0452 -2.57386,0.67734 -1.10631,0.6096 -1.58045,1.76106 v 7.22489 h -2.48355 v -11.80818 h 2.30293 v 2.6416 q 0.6096,-1.2192 1.58044,-1.94169 0.99343,-0.74506 2.12232,-0.8128 0.22577,0 0.36124,0 0.15804,0 0.27093,0.0226 z"
         style="font-style:normal;font-variant:normal;font-weight:600;font-stretch:normal;font-family:Raleway;-inkscape-font-specification:'Raleway Semi-Bold';fill:#ff00ff;stroke-width:0.26458332px"
         id="path35" />
    </g>
    <g
       aria-label="Robbie Meyer"
       style="font-style:normal;font-variant:normal;font-weight:600;font-stretch:normal;font-size:22.57777786px;line-height:6.61458302px;font-family:Raleway;-inkscape-font-specification:'Raleway Semi-Bold';letter-spacing:0px;word-spacing:0px;fill:#00ffff;fill-opacity:1;stroke:none;stroke-width:0.26458332px;stroke-linecap:butt;stroke-linejoin:miter;stroke-opacity:1"
       id="text817">
      <path
         d="m 24.847389,131.35777 v -16.03022 h 6.976533 q 1.083733,0 1.986844,0.45156 0.925689,0.45155 1.580445,1.19662 0.654755,0.72249 1.016,1.67075 0.383822,0.92569 0.383822,1.89654 0,0.8128 -0.225778,1.55786 -0.225778,0.74507 -0.632178,1.37725 -0.4064,0.63218 -0.993422,1.10631 -0.587022,0.45156 -1.286933,0.67733 l 3.770489,6.096 h -2.867378 l -3.476978,-5.57671 H 27.3761 v 5.57671 z m 2.528711,-7.81191 h 4.425244 q 0.541867,0 0.970845,-0.22578 0.451555,-0.24835 0.767644,-0.65475 0.316089,-0.42898 0.496711,-0.97085 0.180622,-0.54186 0.180622,-1.15146 0,-0.6096 -0.225777,-1.15147 -0.2032,-0.54187 -0.564445,-0.94827 -0.338667,-0.4064 -0.8128,-0.63217 -0.451555,-0.24836 -0.948267,-0.24836 H 27.3761 Z"
         style="font-style:normal;font-variant:normal;font-weight:600;font-stretch:normal;font-family:Raleway;-inkscape-font-specification:'Raleway Semi-Bold';fill:#00ffff;stroke-width:0.26458332px"
         id="path38" />
      <path
         d="m 44.38916,131.58355 q -1.399822,0 -2.528711,-0.49671 -1.106311,-0.49671 -1.896533,-1.33209 -0.790222,-0.83538 -1.2192,-1.94169 -0.428978,-1.12889 -0.428978,-2.34809 0,-1.2192 0.428978,-2.32551 0.428978,-1.12889 1.2192,-1.96426 0.8128,-0.83538 1.919111,-1.33209 1.128889,-0.49671 2.506133,-0.49671 1.377245,0 2.483556,0.49671 1.128889,0.49671 1.919111,1.33209 0.8128,0.83537 1.241778,1.96426 0.428978,1.10631 0.428978,2.32551 0,1.2192 -0.428978,2.34809 -0.428978,1.10631 -1.241778,1.94169 -0.790222,0.83538 -1.919111,1.33209 -1.106311,0.49671 -2.483556,0.49671 z m -3.522133,-6.096 q 0,0.85796 0.270933,1.58045 0.270934,0.72248 0.745067,1.26435 0.474133,0.51929 1.106311,0.83538 0.654756,0.29351 1.399822,0.29351 0.745067,0 1.377245,-0.29351 0.654755,-0.31609 1.128889,-0.85796 0.474133,-0.54186 0.745066,-1.26435 0.270934,-0.72249 0.270934,-1.58045 0,-0.83537 -0.270934,-1.55786 -0.270933,-0.74507 -0.745066,-1.28694 -0.474134,-0.54186 -1.128889,-0.83537 -0.632178,-0.31609 -1.377245,-0.31609 -0.722488,0 -1.377244,0.31609 -0.632178,0.31608 -1.106311,0.85795 -0.474133,0.54187 -0.767645,1.28693 -0.270933,0.72249 -0.270933,1.55787 z"
         style="font-style:normal;font-variant:normal;font-weight:600;font-stretch:normal;font-family:Raleway;-inkscape-font-specification:'Raleway Semi-Bold';fill:#00ffff;stroke-width:0.26458332px"
         id="path40" />
      <path
         d="m 59.03226,131.58355 q -1.354666,0 -2.460977,-0.63218 -1.083734,-0.65475 -1.715911,-1.73849 v 2.14489 h -2.190045 v -16.48178 h 2.483556 v 6.90881 q 0.699911,-1.12889 1.738489,-1.78365 1.061155,-0.65475 2.483555,-0.65475 1.174045,0 2.144889,0.51928 0.970844,0.49672 1.648178,1.35467 0.699911,0.83538 1.061155,1.96427 0.383823,1.10631 0.383823,2.32551 0,1.26435 -0.428978,2.37067 -0.428978,1.10631 -1.174045,1.94168 -0.745066,0.8128 -1.783644,1.28694 -1.016,0.47413 -2.190045,0.47413 z m -0.654755,-2.12231 q 0.8128,0 1.490133,-0.31609 0.677334,-0.33867 1.151467,-0.88053 0.496711,-0.54187 0.767644,-1.24178 0.270934,-0.72249 0.270934,-1.51271 0,-0.79022 -0.270934,-1.51271 -0.248355,-0.74507 -0.722489,-1.28694 -0.451555,-0.56444 -1.106311,-0.90311 -0.632177,-0.33866 -1.399822,-0.33866 -1.151467,0 -2.054578,0.74506 -0.880533,0.74507 -1.354666,1.80623 v 3.11573 q 0.135466,0.51929 0.474133,0.94827 0.338667,0.4064 0.790222,0.72248 0.451556,0.31609 0.970845,0.49672 0.519289,0.15804 0.993422,0.15804 z"
         style="font-style:normal;font-variant:normal;font-weight:600;font-stretch:normal;font-family:Raleway;-inkscape-font-specification:'Raleway Semi-Bold';fill:#00ffff;stroke-width:0.26458332px"
         id="path42" />
      <path
         d="m 73.231565,131.58355 q -1.354667,0 -2.460978,-0.63218 -1.083733,-0.65475 -1.715911,-1.73849 v 2.14489 h -2.190044 v -16.48178 h 2.483555 v 6.90881 q 0.699911,-1.12889 1.738489,-1.78365 1.061156,-0.65475 2.483556,-0.65475 1.174044,0 2.144889,0.51928 0.970844,0.49672 1.648177,1.35467 0.699912,0.83538 1.061156,1.96427 0.383822,1.10631 0.383822,2.32551 0,1.26435 -0.428978,2.37067 -0.428977,1.10631 -1.174044,1.94168 -0.745067,0.8128 -1.783644,1.28694 -1.016,0.47413 -2.190045,0.47413 z m -0.654755,-2.12231 q 0.8128,0 1.490133,-0.31609 0.677333,-0.33867 1.151467,-0.88053 0.496711,-0.54187 0.767644,-1.24178 0.270933,-0.72249 0.270933,-1.51271 0,-0.79022 -0.270933,-1.51271 -0.248356,-0.74507 -0.722489,-1.28694 -0.451555,-0.56444 -1.106311,-0.90311 -0.632178,-0.33866 -1.399822,-0.33866 -1.151467,0 -2.054578,0.74506 -0.880533,0.74507 -1.354667,1.80623 v 3.11573 q 0.135467,0.51929 0.474134,0.94827 0.338666,0.4064 0.790222,0.72248 0.451555,0.31609 0.970844,0.49672 0.519289,0.15804 0.993423,0.15804 z"
         style="font-style:normal;font-variant:normal;font-weight:600;font-stretch:normal;font-family:Raleway;-inkscape-font-specification:'Raleway Semi-Bold';fill:#00ffff;stroke-width:0.26458332px"
         id="path44" />
      <path
         d="M 81.063938,131.35777 V 119.5496 h 2.483556 v 11.80817 z m 0,-13.74986 v -2.73192 h 2.483556 v 2.73192 z"
         style="font-style:normal;font-variant:normal;font-weight:600;font-stretch:normal;font-family:Raleway;-inkscape-font-specification:'Raleway Semi-Bold';fill:#00ffff;stroke-width:0.26458332px"
         id="path46" />
      <path
         d="m 91.882927,131.58355 q -1.377244,0 -2.506133,-0.47413 -1.128889,-0.49671 -1.941689,-1.33209 -0.790222,-0.83538 -1.241778,-1.94169 -0.428978,-1.10631 -0.428978,-2.34809 0,-1.24178 0.428978,-2.34809 0.451556,-1.12889 1.241778,-1.96426 0.8128,-0.85796 1.941689,-1.33209 1.128889,-0.49671 2.528711,-0.49671 1.377245,0 2.483556,0.49671 1.128889,0.49671 1.919111,1.33209 0.790222,0.8128 1.196622,1.91911 0.428978,1.08373 0.428978,2.28035 0,0.27094 -0.02258,0.51929 -0.02258,0.22578 -0.04516,0.38382 h -9.460089 q 0.06773,0.79023 0.361245,1.4224 0.316089,0.63218 0.790222,1.10631 0.496711,0.45156 1.106311,0.69992 0.632178,0.24835 1.309511,0.24835 0.496711,0 0.970845,-0.11289 0.496711,-0.13546 0.903111,-0.36124 0.4064,-0.24836 0.722489,-0.58702 0.316089,-0.33867 0.496711,-0.74507 l 2.122311,0.6096 q -0.6096,1.33209 -2.032,2.19004 -1.399822,0.83538 -3.273778,0.83538 z m 3.589867,-7.02169 q -0.06773,-0.74506 -0.383822,-1.37724 -0.293511,-0.63218 -0.767645,-1.06116 -0.474133,-0.45155 -1.106311,-0.69991 -0.632178,-0.24835 -1.332089,-0.24835 -0.699911,0 -1.332089,0.24835 -0.6096,0.24836 -1.083733,0.69991 -0.474133,0.42898 -0.767644,1.06116 -0.293512,0.63218 -0.361245,1.37724 z"
         style="font-style:normal;font-variant:normal;font-weight:600;font-stretch:normal;font-family:Raleway;-inkscape-font-specification:'Raleway Semi-Bold';fill:#00ffff;stroke-width:0.26458332px"
         id="path48" />
      <path
         d="m 119.33292,131.35777 v -11.53724 l -4.76391,8.7376 h -1.39982 l -4.78649,-8.7376 v 11.53724 h -2.52871 v -16.03022 h 2.70933 l 5.30578,9.79876 5.30578,-9.79876 h 2.70933 v 16.03022 z"
         style="font-style:normal;font-variant:normal;font-weight:600;font-stretch:normal;font-family:Raleway;-inkscape-font-specification:'Raleway Semi-Bold';fill:#00ffff;stroke-width:0.26458332px"
         id="path50" />
      <path
         d="m 130.3357,131.58355 q -1.37724,0 -2.50613,-0.47413 -1.12889,-0.49671 -1.94169,-1.33209 -0.79022,-0.83538 -1.24178,-1.94169 -0.42898,-1.10631 -0.42898,-2.34809 0,-1.24178 0.42898,-2.34809 0.45156,-1.12889 1.24178,-1.96426 0.8128,-0.85796 1.94169,-1.33209 1.12889,-0.49671 2.52871,-0.49671 1.37724,0 2.48355,0.49671 1.12889,0.49671 1.91912,1.33209 0.79022,0.8128 1.19662,1.91911 0.42898,1.08373 0.42898,2.28035 0,0.27094 -0.0226,0.51929 -0.0226,0.22578 -0.0452,0.38382 h -9.46009 q 0.0677,0.79023 0.36125,1.4224 0.31609,0.63218 0.79022,1.10631 0.49671,0.45156 1.10631,0.69992 0.63218,0.24835 1.30951,0.24835 0.49671,0 0.97085,-0.11289 0.49671,-0.13546 0.90311,-0.36124 0.4064,-0.24836 0.72249,-0.58702 0.31609,-0.33867 0.49671,-0.74507 l 2.12231,0.6096 q -0.6096,1.33209 -2.032,2.19004 -1.39982,0.83538 -3.27378,0.83538 z m 3.58987,-7.02169 q -0.0677,-0.74506 -0.38382,-1.37724 -0.29352,-0.63218 -0.76765,-1.06116 -0.47413,-0.45155 -1.10631,-0.69991 -0.63218,-0.24835 -1.33209,-0.24835 -0.69991,0 -1.33209,0.24835 -0.6096,0.24836 -1.08373,0.69991 -0.47413,0.42898 -0.76765,1.06116 -0.29351,0.63218 -0.36124,1.37724 z"
         style="font-style:normal;font-variant:normal;font-weight:600;font-stretch:normal;font-family:Raleway;-inkscape-font-specification:'Raleway Semi-Bold';fill:#00ffff;stroke-width:0.26458332px"
         id="path52" />
      <path
         d="m 138.53214,134.13484 q 0.33867,0.0677 0.65476,0.11289 0.33867,0.0452 0.54187,0.0452 0.29351,0 0.49671,-0.13546 0.22578,-0.11289 0.45155,-0.42898 0.22578,-0.31609 0.45156,-0.90311 0.24835,-0.56445 0.56444,-1.46756 l -4.85422,-11.80817 h 2.55129 l 3.6576,9.61813 3.2512,-9.61813 h 2.34809 l -5.35093,14.54008 q -0.36125,1.016 -1.26436,1.69334 -0.88053,0.69991 -2.28036,0.69991 -0.27093,0 -0.56444,-0.0452 -0.29351,-0.0226 -0.65476,-0.13546 z"
         style="font-style:normal;font-variant:normal;font-weight:600;font-stretch:normal;font-family:Raleway;-inkscape-font-specification:'Raleway Semi-Bold';fill:#00ffff;stroke-width:0.26458332px"
         id="path54" />
      <path
         d="m 155.42703,131.58355 q -1.37725,0 -2.50614,-0.47413 -1.12889,-0.49671 -1.94169,-1.33209 -0.79022,-0.83538 -1.24177,-1.94169 -0.42898,-1.10631 -0.42898,-2.34809 0,-1.24178 0.42898,-2.34809 0.45155,-1.12889 1.24177,-1.96426 0.8128,-0.85796 1.94169,-1.33209 1.12889,-0.49671 2.52871,-0.49671 1.37725,0 2.48356,0.49671 1.12889,0.49671 1.91911,1.33209 0.79022,0.8128 1.19662,1.91911 0.42898,1.08373 0.42898,2.28035 0,0.27094 -0.0226,0.51929 -0.0226,0.22578 -0.0451,0.38382 h -9.46009 q 0.0677,0.79023 0.36124,1.4224 0.31609,0.63218 0.79022,1.10631 0.49672,0.45156 1.10632,0.69992 0.63217,0.24835 1.30951,0.24835 0.49671,0 0.97084,-0.11289 0.49671,-0.13546 0.90311,-0.36124 0.4064,-0.24836 0.72249,-0.58702 0.31609,-0.33867 0.49671,-0.74507 l 2.12231,0.6096 q -0.6096,1.33209 -2.032,2.19004 -1.39982,0.83538 -3.27377,0.83538 z m 3.58986,-7.02169 q -0.0677,-0.74506 -0.38382,-1.37724 -0.29351,-0.63218 -0.76764,-1.06116 -0.47414,-0.45155 -1.10632,-0.69991 -0.63217,-0.24835 -1.33208,-0.24835 -0.69992,0 -1.33209,0.24835 -0.6096,0.24836 -1.08374,0.69991 -0.47413,0.42898 -0.76764,1.06116 -0.29351,0.63218 -0.36125,1.37724 z"
         style="font-style:normal;font-variant:normal;font-weight:600;font-stretch:normal;font-family:Raleway;-inkscape-font-specification:'Raleway Semi-Bold';fill:#00ffff;stroke-width:0.26458332px"
         id="path56" />
      <path
         d="m 170.16361,121.69448 q -1.44498,0.0452 -2.57386,0.67734 -1.10632,0.6096 -1.58045,1.76106 v 7.22489 h -2.48355 V 119.5496 h 2.30293 v 2.6416 q 0.6096,-1.2192 1.58044,-1.94169 0.99343,-0.74507 2.12231,-0.8128 0.22578,0 0.36125,0 0.15804,0 0.27093,0.0226 z"
         style="font-style:normal;font-variant:normal;font-weight:600;font-stretch:normal;font-family:Raleway;-inkscape-font-specification:'Raleway Semi-Bold';fill:#00ffff;stroke-width:0.26458332px"
         id="path58" />
    </g>
    <g
       aria-label="Robbie Meyer"
       style="font-style:normal;font-variant:normal;font-weight:600;font-stretch:normal;font-size:22.57777786px;line-height:6.61458349px;font-family:Raleway;-inkscape-font-specification:'Raleway Semi-Bold';letter-spacing:0px;word-spacing:0px;fill:#ffff00;fill-opacity:1;stroke:none;stroke-width:0.26458332px;stroke-linecap:butt;stroke-linejoin:miter;stroke-opacity:1"
       id="text817-13">
      <path
         d="m 25.60473,130.39659 v -16.03022 h 6.976533 q 1.083734,0 1.986845,0.45155 0.925689,0.45156 1.580444,1.19663 0.654756,0.72249 1.016,1.67075 0.383822,0.92569 0.383822,1.89654 0,0.8128 -0.225777,1.55786 -0.225778,0.74507 -0.632178,1.37725 -0.4064,0.63217 -0.993422,1.10631 -0.587023,0.45155 -1.286934,0.67733 l 3.770489,6.096 h -2.867378 l -3.476977,-5.57671 h -3.702756 v 5.57671 z m 2.528711,-7.81191 h 4.425245 q 0.541866,0 0.970844,-0.22578 0.451556,-0.24835 0.767644,-0.65475 0.316089,-0.42898 0.496712,-0.97085 0.180622,-0.54186 0.180622,-1.15146 0,-0.6096 -0.225778,-1.15147 -0.2032,-0.54187 -0.564444,-0.94827 -0.338667,-0.4064 -0.8128,-0.63218 -0.451556,-0.24835 -0.948267,-0.24835 h -4.289778 z"
         style="font-style:normal;font-variant:normal;font-weight:600;font-stretch:normal;font-family:Raleway;-inkscape-font-specification:'Raleway Semi-Bold';fill:#ffff00;stroke-width:0.26458332px"
         id="path61" />
      <path
         d="m 45.146502,130.62237 q -1.399822,0 -2.528711,-0.49671 -1.106311,-0.49671 -1.896534,-1.33209 -0.790222,-0.83538 -1.2192,-1.94169 -0.428977,-1.12889 -0.428977,-2.34809 0,-1.2192 0.428977,-2.32551 0.428978,-1.12889 1.2192,-1.96427 0.8128,-0.83537 1.919111,-1.33209 1.128889,-0.49671 2.506134,-0.49671 1.377244,0 2.483555,0.49671 1.128889,0.49672 1.919112,1.33209 0.8128,0.83538 1.241777,1.96427 0.428978,1.10631 0.428978,2.32551 0,1.2192 -0.428978,2.34809 -0.428977,1.10631 -1.241777,1.94169 -0.790223,0.83538 -1.919112,1.33209 -1.106311,0.49671 -2.483555,0.49671 z m -3.522134,-6.096 q 0,0.85795 0.270934,1.58044 0.270933,0.72249 0.745066,1.26436 0.474134,0.51929 1.106312,0.83538 0.654755,0.29351 1.399822,0.29351 0.745067,0 1.377244,-0.29351 0.654756,-0.31609 1.128889,-0.85796 0.474134,-0.54187 0.745067,-1.26435 0.270933,-0.72249 0.270933,-1.58045 0,-0.83538 -0.270933,-1.55787 -0.270933,-0.74506 -0.745067,-1.28693 -0.474133,-0.54187 -1.128889,-0.83538 -0.632177,-0.31609 -1.377244,-0.31609 -0.722489,0 -1.377245,0.31609 -0.632177,0.31609 -1.106311,0.85796 -0.474133,0.54187 -0.767644,1.28693 -0.270934,0.72249 -0.270934,1.55787 z"
         style="font-style:normal;font-variant:normal;font-weight:600;font-stretch:normal;font-family:Raleway;-inkscape-font-specification:'Raleway Semi-Bold';fill:#ffff00;stroke-width:0.26458332px"
         id="path63" />
      <path
         d="m 59.789602,130.62237 q -1.354667,0 -2.460978,-0.63218 -1.083733,-0.65475 -1.715911,-1.73849 v 2.14489 h -2.190044 v -16.48178 h 2.483555 v 6.9088 q 0.699911,-1.12889 1.738489,-1.78364 1.061156,-0.65476 2.483556,-0.65476 1.174044,0 2.144888,0.51929 0.970845,0.49671 1.648178,1.35467 0.699911,0.83538 1.061156,1.96427 0.383822,1.10631 0.383822,2.32551 0,1.26435 -0.428978,2.37066 -0.428978,1.10631 -1.174044,1.94169 -0.745067,0.8128 -1.783645,1.28694 -1.016,0.47413 -2.190044,0.47413 z m -0.654756,-2.12231 q 0.8128,0 1.490134,-0.31609 0.677333,-0.33867 1.151466,-0.88053 0.496711,-0.54187 0.767645,-1.24178 0.270933,-0.72249 0.270933,-1.51271 0,-0.79023 -0.270933,-1.51271 -0.248356,-0.74507 -0.722489,-1.28694 -0.451556,-0.56444 -1.106311,-0.90311 -0.632178,-0.33867 -1.399822,-0.33867 -1.151467,0 -2.054578,0.74507 -0.880534,0.74507 -1.354667,1.80622 v 3.11574 q 0.135467,0.51929 0.474133,0.94826 0.338667,0.4064 0.790223,0.72249 0.451555,0.31609 0.970844,0.49671 0.519289,0.15805 0.993422,0.15805 z"
         style="font-style:normal;font-variant:normal;font-weight:600;font-stretch:normal;font-family:Raleway;-inkscape-font-specification:'Raleway Semi-Bold';fill:#ffff00;stroke-width:0.26458332px"
         id="path65" />
      <path
         d="m 73.988906,130.62237 q -1.354666,0 -2.460977,-0.63218 -1.083734,-0.65475 -1.715911,-1.73849 v 2.14489 h -2.190045 v -16.48178 h 2.483556 v 6.9088 q 0.699911,-1.12889 1.738489,-1.78364 1.061155,-0.65476 2.483555,-0.65476 1.174045,0 2.144889,0.51929 0.970844,0.49671 1.648178,1.35467 0.699911,0.83538 1.061155,1.96427 0.383823,1.10631 0.383823,2.32551 0,1.26435 -0.428978,2.37066 -0.428978,1.10631 -1.174045,1.94169 -0.745066,0.8128 -1.783644,1.28694 -1.016,0.47413 -2.190045,0.47413 z m -0.654755,-2.12231 q 0.8128,0 1.490133,-0.31609 0.677334,-0.33867 1.151467,-0.88053 0.496711,-0.54187 0.767644,-1.24178 0.270934,-0.72249 0.270934,-1.51271 0,-0.79023 -0.270934,-1.51271 -0.248355,-0.74507 -0.722489,-1.28694 -0.451555,-0.56444 -1.106311,-0.90311 -0.632177,-0.33867 -1.399822,-0.33867 -1.151467,0 -2.054578,0.74507 -0.880533,0.74507 -1.354666,1.80622 v 3.11574 q 0.135466,0.51929 0.474133,0.94826 0.338667,0.4064 0.790222,0.72249 0.451556,0.31609 0.970845,0.49671 0.519289,0.15805 0.993422,0.15805 z"
         style="font-style:normal;font-variant:normal;font-weight:600;font-stretch:normal;font-family:Raleway;-inkscape-font-specification:'Raleway Semi-Bold';fill:#ffff00;stroke-width:0.26458332px"
         id="path67" />
      <path
         d="m 81.82128,130.39659 v -11.80818 h 2.483555 v 11.80818 z m 0,-13.74987 v -2.73191 h 2.483555 v 2.73191 z"
         style="font-style:normal;font-variant:normal;font-weight:600;font-stretch:normal;font-family:Raleway;-inkscape-font-specification:'Raleway Semi-Bold';fill:#ffff00;stroke-width:0.26458332px"
         id="path69" />
      <path
         d="m 92.640269,130.62237 q -1.377245,0 -2.506134,-0.47413 -1.128889,-0.49672 -1.941689,-1.33209 -0.790222,-0.83538 -1.241777,-1.94169 -0.428978,-1.10631 -0.428978,-2.34809 0,-1.24178 0.428978,-2.34809 0.451555,-1.12889 1.241777,-1.96427 0.8128,-0.85795 1.941689,-1.33209 1.128889,-0.49671 2.528711,-0.49671 1.377245,0 2.483556,0.49671 1.128889,0.49672 1.919111,1.33209 0.790222,0.8128 1.196622,1.91911 0.428978,1.08374 0.428978,2.28036 0,0.27093 -0.02258,0.51929 -0.02258,0.22578 -0.04516,0.38382 h -9.460089 q 0.06773,0.79022 0.361244,1.4224 0.316089,0.63218 0.790223,1.10631 0.496711,0.45156 1.106311,0.69991 0.632177,0.24836 1.309511,0.24836 0.496711,0 0.970844,-0.11289 0.496711,-0.13547 0.903111,-0.36124 0.4064,-0.24836 0.722489,-0.58703 0.316089,-0.33866 0.496711,-0.74506 l 2.122311,0.6096 q -0.6096,1.33209 -2.032,2.19004 -1.399822,0.83538 -3.273777,0.83538 z m 3.589866,-7.02169 q -0.06773,-0.74507 -0.383822,-1.37724 -0.293511,-0.63218 -0.767644,-1.06116 -0.474134,-0.45156 -1.106311,-0.69991 -0.632178,-0.24836 -1.332089,-0.24836 -0.699911,0 -1.332089,0.24836 -0.6096,0.24835 -1.083734,0.69991 -0.474133,0.42898 -0.767644,1.06116 -0.293511,0.63217 -0.361244,1.37724 z"
         style="font-style:normal;font-variant:normal;font-weight:600;font-stretch:normal;font-family:Raleway;-inkscape-font-specification:'Raleway Semi-Bold';fill:#ffff00;stroke-width:0.26458332px"
         id="path71" />
      <path
         d="m 120.09026,130.39659 v -11.53724 l -4.76391,8.7376 h -1.39982 l -4.78649,-8.7376 v 11.53724 h -2.52871 v -16.03022 h 2.70933 l 5.30578,9.79875 5.30578,-9.79875 h 2.70933 v 16.03022 z"
         style="font-style:normal;font-variant:normal;font-weight:600;font-stretch:normal;font-family:Raleway;-inkscape-font-specification:'Raleway Semi-Bold';fill:#ffff00;stroke-width:0.26458332px"
         id="path73" />
      <path
         d="m 131.09304,130.62237 q -1.37724,0 -2.50613,-0.47413 -1.12889,-0.49672 -1.94169,-1.33209 -0.79022,-0.83538 -1.24178,-1.94169 -0.42898,-1.10631 -0.42898,-2.34809 0,-1.24178 0.42898,-2.34809 0.45156,-1.12889 1.24178,-1.96427 0.8128,-0.85795 1.94169,-1.33209 1.12889,-0.49671 2.52871,-0.49671 1.37724,0 2.48356,0.49671 1.12888,0.49672 1.91911,1.33209 0.79022,0.8128 1.19662,1.91911 0.42898,1.08374 0.42898,2.28036 0,0.27093 -0.0226,0.51929 -0.0226,0.22578 -0.0452,0.38382 h -9.46009 q 0.0677,0.79022 0.36125,1.4224 0.31609,0.63218 0.79022,1.10631 0.49671,0.45156 1.10631,0.69991 0.63218,0.24836 1.30951,0.24836 0.49671,0 0.97085,-0.11289 0.49671,-0.13547 0.90311,-0.36124 0.4064,-0.24836 0.72249,-0.58703 0.31609,-0.33866 0.49671,-0.74506 l 2.12231,0.6096 q -0.6096,1.33209 -2.032,2.19004 -1.39982,0.83538 -3.27378,0.83538 z m 3.58987,-7.02169 q -0.0677,-0.74507 -0.38382,-1.37724 -0.29351,-0.63218 -0.76765,-1.06116 -0.47413,-0.45156 -1.10631,-0.69991 -0.63218,-0.24836 -1.33209,-0.24836 -0.69991,0 -1.33209,0.24836 -0.6096,0.24835 -1.08373,0.69991 -0.47413,0.42898 -0.76764,1.06116 -0.29352,0.63217 -0.36125,1.37724 z"
         style="font-style:normal;font-variant:normal;font-weight:600;font-stretch:normal;font-family:Raleway;-inkscape-font-specification:'Raleway Semi-Bold';fill:#ffff00;stroke-width:0.26458332px"
         id="path75" />
      <path
         d="m 139.28949,133.17366 q 0.33866,0.0677 0.65475,0.11289 0.33867,0.0452 0.54187,0.0452 0.29351,0 0.49671,-0.13546 0.22578,-0.11289 0.45155,-0.42898 0.22578,-0.31609 0.45156,-0.90311 0.24836,-0.56445 0.56444,-1.46756 l -4.85422,-11.80818 h 2.55129 l 3.6576,9.61814 3.2512,-9.61814 h 2.34809 l -5.35093,14.54009 q -0.36125,1.016 -1.26436,1.69334 -0.88053,0.69991 -2.28035,0.69991 -0.27094,0 -0.56445,-0.0452 -0.29351,-0.0226 -0.65475,-0.13547 z"
         style="font-style:normal;font-variant:normal;font-weight:600;font-stretch:normal;font-family:Raleway;-inkscape-font-specification:'Raleway Semi-Bold';fill:#ffff00;stroke-width:0.26458332px"
         id="path77" />
      <path
         d="m 156.18437,130.62237 q -1.37725,0 -2.50614,-0.47413 -1.12889,-0.49672 -1.94169,-1.33209 -0.79022,-0.83538 -1.24177,-1.94169 -0.42898,-1.10631 -0.42898,-2.34809 0,-1.24178 0.42898,-2.34809 0.45155,-1.12889 1.24177,-1.96427 0.8128,-0.85795 1.94169,-1.33209 1.12889,-0.49671 2.52871,-0.49671 1.37725,0 2.48356,0.49671 1.12889,0.49672 1.91911,1.33209 0.79022,0.8128 1.19662,1.91911 0.42898,1.08374 0.42898,2.28036 0,0.27093 -0.0226,0.51929 -0.0226,0.22578 -0.0451,0.38382 h -9.46009 q 0.0677,0.79022 0.36124,1.4224 0.31609,0.63218 0.79023,1.10631 0.49671,0.45156 1.10631,0.69991 0.63217,0.24836 1.30951,0.24836 0.49671,0 0.97084,-0.11289 0.49671,-0.13547 0.90311,-0.36124 0.4064,-0.24836 0.72249,-0.58703 0.31609,-0.33866 0.49671,-0.74506 l 2.12231,0.6096 q -0.6096,1.33209 -2.032,2.19004 -1.39982,0.83538 -3.27377,0.83538 z m 3.58986,-7.02169 q -0.0677,-0.74507 -0.38382,-1.37724 -0.29351,-0.63218 -0.76764,-1.06116 -0.47414,-0.45156 -1.10631,-0.69991 -0.63218,-0.24836 -1.33209,-0.24836 -0.69991,0 -1.33209,0.24836 -0.6096,0.24835 -1.08374,0.69991 -0.47413,0.42898 -0.76764,1.06116 -0.29351,0.63217 -0.36124,1.37724 z"
         style="font-style:normal;font-variant:normal;font-weight:600;font-stretch:normal;font-family:Raleway;-inkscape-font-specification:'Raleway Semi-Bold';fill:#ffff00;stroke-width:0.26458332px"
         id="path79" />
      <path
         d="m 170.92095,120.7333 q -1.44497,0.0452 -2.57386,0.67734 -1.10631,0.6096 -1.58045,1.76106 v 7.22489 h -2.48355 v -11.80818 h 2.30293 v 2.6416 q 0.6096,-1.2192 1.58044,-1.94169 0.99343,-0.74506 2.12232,-0.8128 0.22577,0 0.36124,0 0.15804,0 0.27093,0.0226 z"
         style="font-style:normal;font-variant:normal;font-weight:600;font-stretch:normal;font-family:Raleway;-inkscape-font-specification:'Raleway Semi-Bold';fill:#ffff00;stroke-width:0.26458332px"
         id="path81" />
    </g>
    <g
       aria-label="Robbie Meyer"
       style="font-style:normal;font-variant:normal;font-weight:600;font-stretch:normal;font-size:22.57777786px;line-height:6.61458349px;font-family:Raleway;-inkscape-font-specification:'Raleway Semi-Bold';letter-spacing:0px;word-spacing:0px;fill:#ffffff;fill-opacity:1;stroke:none;stroke-width:0.5;stroke-linecap:butt;stroke-linejoin:miter;stroke-miterlimit:4;stroke-dasharray:none;stroke-opacity:1"
       id="text817-2">
      <path
         d="m 25.248611,131.00304 v -16.03023 h 6.976533 q 1.083733,0 1.986845,0.45156 0.925688,0.45156 1.580444,1.19662 0.654756,0.72249 1.016,1.67076 0.383822,0.92569 0.383822,1.89653 0,0.8128 -0.225778,1.55787 -0.225777,0.74506 -0.632177,1.37724 -0.4064,0.63218 -0.993423,1.10631 -0.587022,0.45156 -1.286933,0.67734 l 3.770489,6.096 h -2.867378 l -3.476978,-5.57671 h -3.702755 v 5.57671 z m 2.528711,-7.81191 h 4.425244 q 0.541867,0 0.970845,-0.22578 0.451555,-0.24836 0.767644,-0.65476 0.316089,-0.42898 0.496711,-0.97084 0.180623,-0.54187 0.180623,-1.15147 0,-0.6096 -0.225778,-1.15147 -0.2032,-0.54186 -0.564445,-0.94826 -0.338666,-0.4064 -0.8128,-0.63218 -0.451555,-0.24836 -0.948266,-0.24836 h -4.289778 z"
         style="font-style:normal;font-variant:normal;font-weight:600;font-stretch:normal;font-family:Raleway;-inkscape-font-specification:'Raleway Semi-Bold';fill:#ffffff;stroke:none;stroke-width:0.5;stroke-miterlimit:4;stroke-dasharray:none;stroke-opacity:1"
         id="path84" />
      <path
         d="m 44.790383,131.22881 q -1.399823,0 -2.528711,-0.49671 -1.106312,-0.49671 -1.896534,-1.33209 -0.790222,-0.83537 -1.2192,-1.94168 -0.428978,-1.12889 -0.428978,-2.34809 0,-1.2192 0.428978,-2.32551 0.428978,-1.12889 1.2192,-1.96427 0.8128,-0.83538 1.919111,-1.33209 1.128889,-0.49671 2.506134,-0.49671 1.377244,0 2.483555,0.49671 1.128889,0.49671 1.919111,1.33209 0.8128,0.83538 1.241778,1.96427 0.428978,1.10631 0.428978,2.32551 0,1.2192 -0.428978,2.34809 -0.428978,1.10631 -1.241778,1.94168 -0.790222,0.83538 -1.919111,1.33209 -1.106311,0.49671 -2.483555,0.49671 z m -3.522134,-6.096 q 0,0.85796 0.270934,1.58045 0.270933,0.72249 0.745066,1.26435 0.474134,0.51929 1.106311,0.83538 0.654756,0.29351 1.399823,0.29351 0.745066,0 1.377244,-0.29351 0.654756,-0.31609 1.128889,-0.85795 0.474133,-0.54187 0.745067,-1.26436 0.270933,-0.72249 0.270933,-1.58044 0,-0.83538 -0.270933,-1.55787 -0.270934,-0.74507 -0.745067,-1.28693 -0.474133,-0.54187 -1.128889,-0.83538 -0.632178,-0.31609 -1.377244,-0.31609 -0.722489,0 -1.377245,0.31609 -0.632178,0.31609 -1.106311,0.85795 -0.474133,0.54187 -0.767644,1.28694 -0.270934,0.72249 -0.270934,1.55786 z"
         style="font-style:normal;font-variant:normal;font-weight:600;font-stretch:normal;font-family:Raleway;-inkscape-font-specification:'Raleway Semi-Bold';fill:#ffffff;stroke:none;stroke-width:0.5;stroke-miterlimit:4;stroke-dasharray:none;stroke-opacity:1"
         id="path86" />
      <path
         d="m 59.433483,131.22881 q -1.354667,0 -2.460978,-0.63217 -1.083733,-0.65476 -1.715911,-1.73849 v 2.14489 h -2.190045 v -16.48178 h 2.483556 v 6.9088 q 0.699911,-1.12889 1.738489,-1.78365 1.061155,-0.65475 2.483555,-0.65475 1.174045,0 2.144889,0.51929 0.970845,0.49671 1.648178,1.35466 0.699911,0.83538 1.061156,1.96427 0.383822,1.10631 0.383822,2.32551 0,1.26436 -0.428978,2.37067 -0.428978,1.10631 -1.174044,1.94169 -0.745067,0.8128 -1.783645,1.28693 -1.016,0.47413 -2.190044,0.47413 z m -0.654756,-2.12231 q 0.8128,0 1.490133,-0.31609 0.677334,-0.33866 1.151467,-0.88053 0.496711,-0.54187 0.767645,-1.24178 0.270933,-0.72249 0.270933,-1.51271 0,-0.79022 -0.270933,-1.51271 -0.248356,-0.74507 -0.722489,-1.28693 -0.451556,-0.56445 -1.106311,-0.90311 -0.632178,-0.33867 -1.399823,-0.33867 -1.151466,0 -2.054577,0.74507 -0.880534,0.74506 -1.354667,1.80622 v 3.11573 q 0.135467,0.51929 0.474133,0.94827 0.338667,0.4064 0.790222,0.72249 0.451556,0.31609 0.970845,0.49671 0.519289,0.15804 0.993422,0.15804 z"
         style="font-style:normal;font-variant:normal;font-weight:600;font-stretch:normal;font-family:Raleway;-inkscape-font-specification:'Raleway Semi-Bold';fill:#ffffff;stroke:none;stroke-width:0.5;stroke-miterlimit:4;stroke-dasharray:none;stroke-opacity:1"
         id="path88" />
      <path
         d="m 73.632787,131.22881 q -1.354666,0 -2.460977,-0.63217 -1.083734,-0.65476 -1.715912,-1.73849 v 2.14489 h -2.190044 v -16.48178 h 2.483556 v 6.9088 q 0.699911,-1.12889 1.738488,-1.78365 1.061156,-0.65475 2.483556,-0.65475 1.174044,0 2.144889,0.51929 0.970844,0.49671 1.648178,1.35466 0.699911,0.83538 1.061155,1.96427 0.383822,1.10631 0.383822,2.32551 0,1.26436 -0.428977,2.37067 -0.428978,1.10631 -1.174045,1.94169 -0.745066,0.8128 -1.783644,1.28693 -1.016,0.47413 -2.190045,0.47413 z m -0.654755,-2.12231 q 0.8128,0 1.490133,-0.31609 0.677333,-0.33866 1.151467,-0.88053 0.496711,-0.54187 0.767644,-1.24178 0.270934,-0.72249 0.270934,-1.51271 0,-0.79022 -0.270934,-1.51271 -0.248355,-0.74507 -0.722489,-1.28693 -0.451555,-0.56445 -1.106311,-0.90311 -0.632178,-0.33867 -1.399822,-0.33867 -1.151467,0 -2.054578,0.74507 -0.880533,0.74506 -1.354666,1.80622 v 3.11573 q 0.135466,0.51929 0.474133,0.94827 0.338667,0.4064 0.790222,0.72249 0.451556,0.31609 0.970845,0.49671 0.519288,0.15804 0.993422,0.15804 z"
         style="font-style:normal;font-variant:normal;font-weight:600;font-stretch:normal;font-family:Raleway;-inkscape-font-specification:'Raleway Semi-Bold';fill:#ffffff;stroke:none;stroke-width:0.5;stroke-miterlimit:4;stroke-dasharray:none;stroke-opacity:1"
         id="path90" />
      <path
         d="m 81.46516,131.00304 v -11.80818 h 2.483556 v 11.80818 z m 0,-13.74987 v -2.73191 h 2.483556 v 2.73191 z"
         style="font-style:normal;font-variant:normal;font-weight:600;font-stretch:normal;font-family:Raleway;-inkscape-font-specification:'Raleway Semi-Bold';fill:#ffffff;stroke:none;stroke-width:0.5;stroke-miterlimit:4;stroke-dasharray:none;stroke-opacity:1"
         id="path92" />
      <path
         d="m 92.28415,131.22881 q -1.377245,0 -2.506134,-0.47413 -1.128889,-0.49671 -1.941689,-1.33209 -0.790222,-0.83538 -1.241778,-1.94169 -0.428977,-1.10631 -0.428977,-2.34809 0,-1.24177 0.428977,-2.34808 0.451556,-1.12889 1.241778,-1.96427 0.8128,-0.85796 1.941689,-1.33209 1.128889,-0.49671 2.528711,-0.49671 1.377245,0 2.483556,0.49671 1.128889,0.49671 1.919111,1.33209 0.790222,0.8128 1.196622,1.91911 0.428978,1.08373 0.428978,2.28036 0,0.27093 -0.02258,0.51928 -0.02258,0.22578 -0.04515,0.38383 h -9.460089 q 0.06773,0.79022 0.361244,1.4224 0.316089,0.63217 0.790222,1.10631 0.496711,0.45155 1.106311,0.69991 0.632178,0.24835 1.309512,0.24835 0.496711,0 0.970844,-0.11288 0.496711,-0.13547 0.903111,-0.36125 0.4064,-0.24835 0.722489,-0.58702 0.316089,-0.33867 0.496711,-0.74507 l 2.122311,0.6096 q -0.6096,1.33209 -2.032,2.19005 -1.399822,0.83537 -3.273777,0.83537 z m 3.589866,-7.02168 q -0.06773,-0.74507 -0.383822,-1.37725 -0.293511,-0.63218 -0.767644,-1.06115 -0.474134,-0.45156 -1.106312,-0.69992 -0.632177,-0.24835 -1.332088,-0.24835 -0.699912,0 -1.332089,0.24835 -0.6096,0.24836 -1.083734,0.69992 -0.474133,0.42897 -0.767644,1.06115 -0.293511,0.63218 -0.361245,1.37725 z"
         style="font-style:normal;font-variant:normal;font-weight:600;font-stretch:normal;font-family:Raleway;-inkscape-font-specification:'Raleway Semi-Bold';fill:#ffffff;stroke:none;stroke-width:0.5;stroke-miterlimit:4;stroke-dasharray:none;stroke-opacity:1"
         id="path94" />
      <path
         d="m 119.73414,131.00304 v -11.53725 l -4.76391,8.7376 h -1.39982 l -4.78649,-8.7376 v 11.53725 h -2.52871 v -16.03023 h 2.70933 l 5.30578,9.79876 5.30578,-9.79876 h 2.70933 v 16.03023 z"
         style="font-style:normal;font-variant:normal;font-weight:600;font-stretch:normal;font-family:Raleway;-inkscape-font-specification:'Raleway Semi-Bold';fill:#ffffff;stroke:none;stroke-width:0.5;stroke-miterlimit:4;stroke-dasharray:none;stroke-opacity:1"
         id="path96" />
      <path
         d="m 130.73692,131.22881 q -1.37724,0 -2.50613,-0.47413 -1.12889,-0.49671 -1.94169,-1.33209 -0.79022,-0.83538 -1.24178,-1.94169 -0.42897,-1.10631 -0.42897,-2.34809 0,-1.24177 0.42897,-2.34808 0.45156,-1.12889 1.24178,-1.96427 0.8128,-0.85796 1.94169,-1.33209 1.12889,-0.49671 2.52871,-0.49671 1.37725,0 2.48356,0.49671 1.12889,0.49671 1.91911,1.33209 0.79022,0.8128 1.19662,1.91911 0.42898,1.08373 0.42898,2.28036 0,0.27093 -0.0226,0.51928 -0.0226,0.22578 -0.0452,0.38383 h -9.46008 q 0.0677,0.79022 0.36124,1.4224 0.31609,0.63217 0.79022,1.10631 0.49671,0.45155 1.10631,0.69991 0.63218,0.24835 1.30951,0.24835 0.49672,0 0.97085,-0.11288 0.49671,-0.13547 0.90311,-0.36125 0.4064,-0.24835 0.72249,-0.58702 0.31609,-0.33867 0.49671,-0.74507 l 2.12231,0.6096 q -0.6096,1.33209 -2.032,2.19005 -1.39982,0.83537 -3.27378,0.83537 z m 3.58987,-7.02168 q -0.0677,-0.74507 -0.38382,-1.37725 -0.29351,-0.63218 -0.76765,-1.06115 -0.47413,-0.45156 -1.10631,-0.69992 -0.63218,-0.24835 -1.33209,-0.24835 -0.69991,0 -1.33209,0.24835 -0.6096,0.24836 -1.08373,0.69992 -0.47413,0.42897 -0.76764,1.06115 -0.29351,0.63218 -0.36125,1.37725 z"
         style="font-style:normal;font-variant:normal;font-weight:600;font-stretch:normal;font-family:Raleway;-inkscape-font-specification:'Raleway Semi-Bold';fill:#ffffff;stroke:none;stroke-width:0.5;stroke-miterlimit:4;stroke-dasharray:none;stroke-opacity:1"
         id="path98" />
      <path
         d="m 138.93337,133.7801 q 0.33866,0.0677 0.65475,0.11289 0.33867,0.0452 0.54187,0.0452 0.29351,0 0.49671,-0.13547 0.22578,-0.11289 0.45156,-0.42898 0.22577,-0.31609 0.45155,-0.90311 0.24836,-0.56444 0.56445,-1.46755 l -4.85423,-11.80818 h 2.55129 l 3.6576,9.61813 3.2512,-9.61813 h 2.34809 l -5.35093,14.54009 q -0.36125,1.016 -1.26436,1.69333 -0.88053,0.69991 -2.28035,0.69991 -0.27094,0 -0.56445,-0.0451 -0.29351,-0.0226 -0.65475,-0.13547 z"
         style="font-style:normal;font-variant:normal;font-weight:600;font-stretch:normal;font-family:Raleway;-inkscape-font-specification:'Raleway Semi-Bold';fill:#ffffff;stroke:none;stroke-width:0.5;stroke-miterlimit:4;stroke-dasharray:none;stroke-opacity:1"
         id="path100" />
      <path
         d="m 155.82825,131.22881 q -1.37725,0 -2.50614,-0.47413 -1.12888,-0.49671 -1.94168,-1.33209 -0.79023,-0.83538 -1.24178,-1.94169 -0.42898,-1.10631 -0.42898,-2.34809 0,-1.24177 0.42898,-2.34808 0.45155,-1.12889 1.24178,-1.96427 0.8128,-0.85796 1.94168,-1.33209 1.12889,-0.49671 2.52872,-0.49671 1.37724,0 2.48355,0.49671 1.12889,0.49671 1.91911,1.33209 0.79022,0.8128 1.19662,1.91911 0.42898,1.08373 0.42898,2.28036 0,0.27093 -0.0226,0.51928 -0.0226,0.22578 -0.0451,0.38383 h -9.46009 q 0.0677,0.79022 0.36124,1.4224 0.31609,0.63217 0.79023,1.10631 0.49671,0.45155 1.10631,0.69991 0.63218,0.24835 1.30951,0.24835 0.49671,0 0.97084,-0.11288 0.49671,-0.13547 0.90311,-0.36125 0.4064,-0.24835 0.72249,-0.58702 0.31609,-0.33867 0.49671,-0.74507 l 2.12232,0.6096 q -0.6096,1.33209 -2.032,2.19005 -1.39983,0.83537 -3.27378,0.83537 z m 3.58986,-7.02168 q -0.0677,-0.74507 -0.38382,-1.37725 -0.29351,-0.63218 -0.76764,-1.06115 -0.47414,-0.45156 -1.10631,-0.69992 -0.63218,-0.24835 -1.33209,-0.24835 -0.69991,0 -1.33209,0.24835 -0.6096,0.24836 -1.08373,0.69992 -0.47414,0.42897 -0.76765,1.06115 -0.29351,0.63218 -0.36124,1.37725 z"
         style="font-style:normal;font-variant:normal;font-weight:600;font-stretch:normal;font-family:Raleway;-inkscape-font-specification:'Raleway Semi-Bold';fill:#ffffff;stroke:none;stroke-width:0.5;stroke-miterlimit:4;stroke-dasharray:none;stroke-opacity:1"
         id="path102" />
      <path
         d="m 170.56483,121.33975 q -1.44497,0.0452 -2.57386,0.67733 -1.10631,0.6096 -1.58045,1.76107 v 7.22489 h -2.48355 v -11.80818 h 2.30293 v 2.6416 q 0.6096,-1.2192 1.58045,-1.94169 0.99342,-0.74507 2.12231,-0.8128 0.22577,0 0.36124,0 0.15805,0 0.27093,0.0226 z"
         style="font-style:normal;font-variant:normal;font-weight:600;font-stretch:normal;font-family:Raleway;-inkscape-font-specification:'Raleway Semi-Bold';fill:#ffffff;stroke:none;stroke-width:0.5;stroke-miterlimit:4;stroke-dasharray:none;stroke-opacity:1"
         id="path104" />
    </g>
  </g>
</svg>
