<?xml version="1.0" encoding="utf-8" standalone="no"?>
<!DOCTYPE svg PUBLIC "-//W3C//DTD SVG 1.1//EN"
  "http://www.w3.org/Graphics/SVG/1.1/DTD/svg11.dtd">
<!-- Created with matplotlib (http://matplotlib.org/) -->
<svg height="432pt" version="1.1" viewBox="0 0 612 432" width="612pt" xmlns="http://www.w3.org/2000/svg" xmlns:xlink="http://www.w3.org/1999/xlink">
 <defs>
  <style type="text/css">
*{stroke-linecap:butt;stroke-linejoin:round;}
  </style>
 </defs>
 <g id="figure_1">
  <g id="patch_1">
   <path d="M 0 432 
L 612 432 
L 612 0 
L 0 0 
z
" style="fill:#ffffff;"/>
  </g>
  <g id="axes_1">
   <g id="patch_2">
    <path d="M 56.245 377.88 
L 593.38 377.88 
L 593.38 73.44 
L 56.245 73.44 
z
" style="fill:#ffffff;"/>
   </g>
   <g id="line2d_1">
    <path clip-path="url(#p78569ca850)" d="M 56.245 105.247164 
L 593.38 105.247164 
" style="fill:none;stroke:#000000;stroke-linecap:square;stroke-width:0.7;"/>
   </g>
   <g id="patch_3">
    <path clip-path="url(#p78569ca850)" d="M 89.815938 377.88 
L 156.957812 377.88 
L 156.957812 87.937143 
L 89.815938 87.937143 
z
" style="fill:#2b328c;"/>
   </g>
   <g id="patch_4">
    <path clip-path="url(#p78569ca850)" d="M 224.099688 377.88 
L 291.241562 377.88 
L 291.241562 170.159744 
L 224.099688 170.159744 
z
" style="fill:#ff4c00;"/>
   </g>
   <g id="patch_5">
    <path clip-path="url(#p78569ca850)" d="M 358.383438 377.88 
L 425.525313 377.88 
L 425.525313 343.259957 
L 358.383438 343.259957 
z
" style="fill:#e3102b;"/>
   </g>
   <g id="patch_6">
    <path clip-path="url(#p78569ca850)" d="M 492.667187 377.88 
L 559.809062 377.88 
L 559.809062 373.552495 
L 492.667187 373.552495 
z
" style="fill:#307730;"/>
   </g>
   <g id="matplotlib.axis_1">
    <g id="xtick_1">
     <g id="line2d_2">
      <defs>
       <path d="M 0 0 
L 0 3.5 
" id="m600ef0f9f5" style="stroke:#000000;stroke-width:0.8;"/>
      </defs>
      <g>
       <use style="stroke:#000000;stroke-width:0.8;" x="123.386875" xlink:href="#m600ef0f9f5" y="377.88"/>
      </g>
     </g>
     <g id="text_1">
      <!-- PCP -->
      <defs>
       <path d="M 27.796875 71.40625 
Q 53.5 71.40625 53.5 51.203125 
Q 53.5 40.90625 46.84375 35.046875 
Q 40.203125 29.203125 26.203125 29.203125 
L 15.796875 29.203125 
L 15.796875 0 
L 10 0 
L 10 71.40625 
z
M 27.203125 66.296875 
L 15.796875 66.296875 
L 15.796875 34.203125 
L 25.59375 34.203125 
Q 36 34.203125 41.75 37.84375 
Q 47.5 41.5 47.5 50.90625 
Q 47.5 58.90625 42.546875 62.59375 
Q 37.59375 66.296875 27.203125 66.296875 
z
" id="NotoSans-Light-50"/>
       <path d="M 40.40625 67.203125 
Q 31.59375 67.203125 25.296875 63.25 
Q 19 59.296875 15.640625 52.25 
Q 12.296875 45.203125 12.296875 35.796875 
Q 12.296875 26.203125 15.34375 19.09375 
Q 18.40625 12 24.40625 8.09375 
Q 30.40625 4.203125 39.40625 4.203125 
Q 44.59375 4.203125 48.9375 5 
Q 53.296875 5.796875 57.203125 7 
L 57.203125 2 
Q 53.5 0.59375 49.046875 -0.203125 
Q 44.59375 -1 38.796875 -1 
Q 28 -1 20.75 3.59375 
Q 13.5 8.203125 9.84375 16.5 
Q 6.203125 24.796875 6.203125 35.90625 
Q 6.203125 46.5 10.25 54.75 
Q 14.296875 63 21.9375 67.703125 
Q 29.59375 72.40625 40.40625 72.40625 
Q 50.90625 72.40625 59.203125 68.40625 
L 56.90625 63.40625 
Q 49.09375 67.203125 40.40625 67.203125 
z
" id="NotoSans-Light-43"/>
      </defs>
      <g transform="translate(110.779219 395.52)scale(0.14 -0.14)">
       <use xlink:href="#NotoSans-Light-50"/>
       <use x="58.899994" xlink:href="#NotoSans-Light-43"/>
       <use x="121.199982" xlink:href="#NotoSans-Light-50"/>
      </g>
     </g>
    </g>
    <g id="xtick_2">
     <g id="line2d_3">
      <g>
       <use style="stroke:#000000;stroke-width:0.8;" x="257.670625" xlink:href="#m600ef0f9f5" y="377.88"/>
      </g>
     </g>
     <g id="text_2">
      <!-- NDP -->
      <defs>
       <path d="M 62.796875 0 
L 56.59375 0 
L 15.296875 62.40625 
L 15 62.40625 
Q 15.203125 58.5 15.296875 54.140625 
Q 15.40625 49.796875 15.40625 45 
L 15.40625 0 
L 10 0 
L 10 71.40625 
L 16.203125 71.40625 
L 57.40625 9.203125 
L 57.796875 9.203125 
Q 57.59375 12.296875 57.5 17.140625 
Q 57.40625 22 57.40625 26.09375 
L 57.40625 71.40625 
L 62.796875 71.40625 
z
" id="NotoSans-Light-4e"/>
       <path d="M 64.796875 36.40625 
Q 64.796875 18.40625 55.296875 9.203125 
Q 45.796875 0 27.59375 0 
L 10 0 
L 10 71.40625 
L 29.796875 71.40625 
Q 46.796875 71.40625 55.796875 62.453125 
Q 64.796875 53.5 64.796875 36.40625 
z
M 58.796875 36.203125 
Q 58.796875 66.296875 28.703125 66.296875 
L 15.796875 66.296875 
L 15.796875 5.09375 
L 27.203125 5.09375 
Q 58.796875 5.09375 58.796875 36.203125 
z
" id="NotoSans-Light-44"/>
      </defs>
      <g transform="translate(243.467187 395.52)scale(0.14 -0.14)">
       <use xlink:href="#NotoSans-Light-4e"/>
       <use x="72.899994" xlink:href="#NotoSans-Light-44"/>
       <use x="143.999985" xlink:href="#NotoSans-Light-50"/>
      </g>
     </g>
    </g>
    <g id="xtick_3">
     <g id="line2d_4">
      <g>
       <use style="stroke:#000000;stroke-width:0.8;" x="391.954375" xlink:href="#m600ef0f9f5" y="377.88"/>
      </g>
     </g>
     <g id="text_3">
      <!-- LIB -->
      <defs>
       <path d="M 10 0 
L 10 71.40625 
L 15.796875 71.40625 
L 15.796875 5.203125 
L 49.203125 5.203125 
L 49.203125 0 
z
" id="NotoSans-Light-4c"/>
       <path d="M 26 0 
L 5 0 
L 5 3.59375 
L 12.59375 4.703125 
L 12.59375 66.59375 
L 5 67.796875 
L 5 71.40625 
L 26 71.40625 
L 26 67.796875 
L 18.40625 66.59375 
L 18.40625 4.703125 
L 26 3.59375 
z
" id="NotoSans-Light-49"/>
       <path d="M 10 71.40625 
L 29.796875 71.40625 
Q 43 71.40625 49.296875 67.296875 
Q 55.59375 63.203125 55.59375 54 
Q 55.59375 47.796875 52 43.390625 
Q 48.40625 39 41.703125 37.796875 
L 41.703125 37.40625 
Q 49.5 36.203125 53.546875 32.046875 
Q 57.59375 27.90625 57.59375 20.296875 
Q 57.59375 13.40625 54.4375 8.90625 
Q 51.296875 4.40625 45.640625 2.203125 
Q 40 0 32.59375 0 
L 10 0 
z
M 15.796875 39.90625 
L 31.09375 39.90625 
Q 40.90625 39.90625 45.25 43.296875 
Q 49.59375 46.703125 49.59375 53.40625 
Q 49.59375 60.296875 44.890625 63.296875 
Q 40.203125 66.296875 29.796875 66.296875 
L 15.796875 66.296875 
z
M 15.796875 34.90625 
L 15.796875 5 
L 32.09375 5 
Q 51.5 5 51.5 20.59375 
Q 51.5 28 46.546875 31.453125 
Q 41.59375 34.90625 31.203125 34.90625 
z
" id="NotoSans-Light-42"/>
      </defs>
      <g transform="translate(381.748594 395.52)scale(0.14 -0.14)">
       <use xlink:href="#NotoSans-Light-4c"/>
       <use x="51.499985" xlink:href="#NotoSans-Light-49"/>
       <use x="82.599976" xlink:href="#NotoSans-Light-42"/>
      </g>
     </g>
    </g>
    <g id="xtick_4">
     <g id="line2d_5">
      <g>
       <use style="stroke:#000000;stroke-width:0.8;" x="526.238125" xlink:href="#m600ef0f9f5" y="377.88"/>
      </g>
     </g>
     <g id="text_4">
      <!-- GPO -->
      <defs>
       <path d="M 38.703125 36.40625 
L 64.59375 36.40625 
L 64.59375 3.203125 
Q 59.40625 1.09375 53.59375 0.046875 
Q 47.796875 -1 41 -1 
Q 24 -1 15.09375 8.703125 
Q 6.203125 18.40625 6.203125 35.59375 
Q 6.203125 46.40625 10.546875 54.75 
Q 14.90625 63.09375 23.09375 67.796875 
Q 31.296875 72.5 42.796875 72.5 
Q 48.59375 72.5 53.890625 71.390625 
Q 59.203125 70.296875 63.796875 68.203125 
L 61.40625 63 
Q 52.296875 67.296875 42.40625 67.296875 
Q 33 67.296875 26.25 63.296875 
Q 19.5 59.296875 15.84375 52.140625 
Q 12.203125 45 12.203125 35.59375 
Q 12.203125 20.203125 19.84375 12.140625 
Q 27.5 4.09375 42.203125 4.09375 
Q 47.40625 4.09375 51.453125 4.84375 
Q 55.5 5.59375 58.796875 6.703125 
L 58.796875 31.09375 
L 38.703125 31.09375 
z
" id="NotoSans-Light-47"/>
       <path d="M 70.5 35.796875 
Q 70.5 24.90625 66.890625 16.59375 
Q 63.296875 8.296875 56.140625 3.640625 
Q 49 -1 38.40625 -1 
Q 27.59375 -1 20.4375 3.640625 
Q 13.296875 8.296875 9.75 16.640625 
Q 6.203125 25 6.203125 35.90625 
Q 6.203125 46.796875 9.84375 55 
Q 13.5 63.203125 20.75 67.84375 
Q 28 72.5 38.703125 72.5 
Q 49 72.5 56.046875 68.046875 
Q 63.09375 63.59375 66.796875 55.390625 
Q 70.5 47.203125 70.5 35.796875 
z
M 12.296875 35.796875 
Q 12.296875 26.296875 15.09375 19.140625 
Q 17.90625 12 23.703125 8.046875 
Q 29.5 4.09375 38.40625 4.09375 
Q 47.40625 4.09375 53.15625 8.046875 
Q 58.90625 12 61.65625 19.09375 
Q 64.40625 26.203125 64.40625 35.796875 
Q 64.40625 50.59375 57.953125 58.9375 
Q 51.5 67.296875 38.703125 67.296875 
Q 29.796875 67.296875 23.890625 63.34375 
Q 18 59.40625 15.140625 52.296875 
Q 12.296875 45.203125 12.296875 35.796875 
z
" id="NotoSans-Light-4f"/>
      </defs>
      <g transform="translate(511.670469 395.52)scale(0.14 -0.14)">
       <use xlink:href="#NotoSans-Light-47"/>
       <use x="72.399994" xlink:href="#NotoSans-Light-50"/>
       <use x="131.299988" xlink:href="#NotoSans-Light-4f"/>
      </g>
     </g>
    </g>
    <g id="text_5">
     <!-- Party -->
     <defs>
      <path d="M 27.59375 54.09375 
Q 36.59375 54.09375 41 49.6875 
Q 45.40625 45.296875 45.40625 35.796875 
L 45.40625 0 
L 41.09375 0 
L 40 9 
L 39.796875 9 
Q 37 4.5 32.796875 1.75 
Q 28.59375 -1 21.203125 -1 
Q 13.59375 -1 9.140625 2.796875 
Q 4.703125 6.59375 4.703125 13.90625 
Q 4.703125 21.796875 11.140625 26 
Q 17.59375 30.203125 30.09375 30.703125 
L 39.796875 31.203125 
L 39.796875 34.90625 
Q 39.796875 42.796875 36.640625 46.046875 
Q 33.5 49.296875 27.40625 49.296875 
Q 23.296875 49.296875 19.5 48.25 
Q 15.703125 47.203125 11.90625 45.203125 
L 10.09375 49.796875 
Q 13.796875 51.703125 18.296875 52.890625 
Q 22.796875 54.09375 27.59375 54.09375 
z
M 39.796875 26.796875 
L 30.796875 26.40625 
Q 20.59375 26 15.59375 22.953125 
Q 10.59375 19.90625 10.59375 13.796875 
Q 10.59375 8.90625 13.6875 6.34375 
Q 16.796875 3.796875 22.203125 3.796875 
Q 30.5 3.796875 35.046875 8.5 
Q 39.59375 13.203125 39.796875 21.703125 
z
" id="NotoSans-Light-61"/>
      <path d="M 30.59375 54.09375 
Q 34.796875 54.09375 37.796875 53.203125 
L 37 48 
Q 35.40625 48.40625 33.796875 48.59375 
Q 32.203125 48.796875 30.40625 48.796875 
Q 23 48.796875 18.75 43.4375 
Q 14.5 38.09375 14.5 29.203125 
L 14.5 0 
L 8.796875 0 
L 8.796875 53.203125 
L 13.59375 53.203125 
L 14.203125 43.203125 
L 14.5 43.203125 
Q 16.5 47.703125 20.546875 50.890625 
Q 24.59375 54.09375 30.59375 54.09375 
z
" id="NotoSans-Light-72"/>
      <path d="M 23.796875 3.796875 
Q 26 3.796875 28.046875 4.140625 
Q 30.09375 4.5 31.5 5 
L 31.5 0.40625 
Q 29.90625 -0.203125 27.75 -0.59375 
Q 25.59375 -1 23 -1 
Q 16.40625 -1 12.796875 2.75 
Q 9.203125 6.5 9.203125 14.796875 
L 9.203125 48.59375 
L 1.296875 48.59375 
L 1.296875 51.796875 
L 9.203125 53.59375 
L 11.203125 65.90625 
L 14.796875 65.90625 
L 14.796875 53.203125 
L 31.203125 53.203125 
L 31.203125 48.59375 
L 14.796875 48.59375 
L 14.796875 15 
Q 14.796875 3.796875 23.796875 3.796875 
z
" id="NotoSans-Light-74"/>
      <path d="M 0 53.203125 
L 6.09375 53.203125 
L 18.796875 20.09375 
Q 20.40625 15.703125 21.59375 12.25 
Q 22.796875 8.796875 23.5 6.09375 
L 23.796875 6.09375 
Q 24.5 8.40625 25.703125 12 
Q 26.90625 15.59375 28.5 20 
L 40.90625 53.203125 
L 47 53.203125 
L 23 -9.5 
Q 20.296875 -16.5 16.59375 -20.34375 
Q 12.90625 -24.203125 6.59375 -24.203125 
Q 4.59375 -24.203125 3.09375 -23.890625 
Q 1.59375 -23.59375 0.203125 -23.203125 
L 0.203125 -18.40625 
Q 2.796875 -19.296875 5.90625 -19.296875 
Q 10.09375 -19.296875 12.75 -16.6875 
Q 15.40625 -14.09375 17.40625 -8.796875 
L 20.90625 0.203125 
z
" id="NotoSans-Light-79"/>
     </defs>
     <g transform="translate(308.515625 413.377813)scale(0.14 -0.14)">
      <use xlink:href="#NotoSans-Light-50"/>
      <use x="58.899994" xlink:href="#NotoSans-Light-61"/>
      <use x="112.499985" xlink:href="#NotoSans-Light-72"/>
      <use x="151.899979" xlink:href="#NotoSans-Light-74"/>
      <use x="185.899963" xlink:href="#NotoSans-Light-79"/>
     </g>
    </g>
   </g>
   <g id="matplotlib.axis_2">
    <g id="ytick_1">
     <g id="line2d_6">
      <defs>
       <path d="M 0 0 
L -3.5 0 
" id="mc558bac90d" style="stroke:#000000;stroke-width:0.8;"/>
      </defs>
      <g>
       <use style="stroke:#000000;stroke-width:0.8;" x="56.245" xlink:href="#mc558bac90d" y="377.88"/>
      </g>
     </g>
     <g id="text_6">
      <!-- 0 -->
      <defs>
       <path d="M 51.5 35.90625 
Q 51.5 18 45.953125 8.5 
Q 40.40625 -1 28.5 -1 
Q 17.203125 -1 11.390625 8.390625 
Q 5.59375 17.796875 5.59375 35.90625 
Q 5.59375 46.796875 7.84375 55.046875 
Q 10.09375 63.296875 15.140625 67.890625 
Q 20.203125 72.5 28.59375 72.5 
Q 36.796875 72.5 41.84375 68 
Q 46.90625 63.5 49.203125 55.25 
Q 51.5 47 51.5 35.90625 
z
M 11.296875 35.90625 
Q 11.296875 19.796875 15.4375 11.890625 
Q 19.59375 4 28.5 4 
Q 37.59375 4 41.640625 11.890625 
Q 45.703125 19.796875 45.703125 35.90625 
Q 45.703125 45.796875 44.140625 52.890625 
Q 42.59375 60 38.84375 63.75 
Q 35.09375 67.5 28.59375 67.5 
Q 22.09375 67.5 18.296875 63.703125 
Q 14.5 59.90625 12.890625 52.796875 
Q 11.296875 45.703125 11.296875 35.90625 
z
" id="NotoSans-Light-30"/>
      </defs>
      <g transform="translate(41.251875 383.2)scale(0.14 -0.14)">
       <use xlink:href="#NotoSans-Light-30"/>
      </g>
     </g>
    </g>
    <g id="ytick_2">
     <g id="line2d_7">
      <g>
       <use style="stroke:#000000;stroke-width:0.8;" x="56.245" xlink:href="#mc558bac90d" y="334.604947"/>
      </g>
     </g>
     <g id="text_7">
      <!-- 10 -->
      <defs>
       <path d="M 33.796875 0 
L 28.203125 0 
L 28.203125 53.09375 
Q 28.203125 57.40625 28.203125 60.15625 
Q 28.203125 62.90625 28.40625 65.40625 
Q 27 64 25.796875 63 
Q 24.59375 62 22.59375 60.40625 
L 12.59375 52.796875 
L 9.59375 56.796875 
L 29 71.40625 
L 33.796875 71.40625 
z
" id="NotoSans-Light-31"/>
      </defs>
      <g transform="translate(33.25875 339.924947)scale(0.14 -0.14)">
       <use xlink:href="#NotoSans-Light-31"/>
       <use x="57.099991" xlink:href="#NotoSans-Light-30"/>
      </g>
     </g>
    </g>
    <g id="ytick_3">
     <g id="line2d_8">
      <g>
       <use style="stroke:#000000;stroke-width:0.8;" x="56.245" xlink:href="#mc558bac90d" y="291.329893"/>
      </g>
     </g>
     <g id="text_8">
      <!-- 20 -->
      <defs>
       <path d="M 50.59375 0 
L 5.40625 0 
L 5.40625 4.796875 
L 25.90625 26.09375 
Q 31 31.40625 34.5 35.59375 
Q 38 39.796875 39.796875 44 
Q 41.59375 48.203125 41.59375 53.40625 
Q 41.59375 60.09375 37.6875 63.75 
Q 33.796875 67.40625 27.203125 67.40625 
Q 22.40625 67.40625 18.203125 65.703125 
Q 14 64 9.90625 60.796875 
L 6.796875 64.796875 
Q 11.203125 68.40625 16.390625 70.40625 
Q 21.59375 72.40625 27.203125 72.40625 
Q 36.40625 72.40625 41.90625 67.296875 
Q 47.40625 62.203125 47.40625 53.59375 
Q 47.40625 47.796875 45.34375 43 
Q 43.296875 38.203125 39.546875 33.59375 
Q 35.796875 29 30.59375 23.796875 
L 12.703125 5.5 
L 12.703125 5.203125 
L 50.59375 5.203125 
z
" id="NotoSans-Light-32"/>
      </defs>
      <g transform="translate(33.25875 296.649893)scale(0.14 -0.14)">
       <use xlink:href="#NotoSans-Light-32"/>
       <use x="57.099991" xlink:href="#NotoSans-Light-30"/>
      </g>
     </g>
    </g>
    <g id="ytick_4">
     <g id="line2d_9">
      <g>
       <use style="stroke:#000000;stroke-width:0.8;" x="56.245" xlink:href="#mc558bac90d" y="248.05484"/>
      </g>
     </g>
     <g id="text_9">
      <!-- 30 -->
      <defs>
       <path d="M 48.203125 54.90625 
Q 48.203125 47.796875 44 43.296875 
Q 39.796875 38.796875 33.203125 37.59375 
L 33.203125 37.203125 
Q 41.59375 36.203125 46 31.75 
Q 50.40625 27.296875 50.40625 19.796875 
Q 50.40625 10.59375 43.90625 4.796875 
Q 37.40625 -1 24.40625 -1 
Q 18.59375 -1 13.640625 0 
Q 8.703125 1 4.59375 3 
L 4.59375 8.5 
Q 8.703125 6.5 14 5.203125 
Q 19.296875 3.90625 24.40625 3.90625 
Q 34.59375 3.90625 39.5 8.25 
Q 44.40625 12.59375 44.40625 20 
Q 44.40625 27.796875 38.59375 31.140625 
Q 32.796875 34.5 23.09375 34.5 
L 15.5 34.5 
L 15.5 39.5 
L 23.203125 39.5 
Q 31.5 39.5 36.890625 43.34375 
Q 42.296875 47.203125 42.296875 54.59375 
Q 42.296875 60.90625 38.1875 64.15625 
Q 34.09375 67.40625 27.296875 67.40625 
Q 21.59375 67.40625 17.046875 65.703125 
Q 12.5 64 8.09375 61 
L 5.203125 65 
Q 9.296875 68.203125 14.796875 70.296875 
Q 20.296875 72.40625 27.203125 72.40625 
Q 37.203125 72.40625 42.703125 67.65625 
Q 48.203125 62.90625 48.203125 54.90625 
z
" id="NotoSans-Light-33"/>
      </defs>
      <g transform="translate(33.25875 253.37484)scale(0.14 -0.14)">
       <use xlink:href="#NotoSans-Light-33"/>
       <use x="57.099991" xlink:href="#NotoSans-Light-30"/>
      </g>
     </g>
    </g>
    <g id="ytick_5">
     <g id="line2d_10">
      <g>
       <use style="stroke:#000000;stroke-width:0.8;" x="56.245" xlink:href="#mc558bac90d" y="204.779787"/>
      </g>
     </g>
     <g id="text_10">
      <!-- 40 -->
      <defs>
       <path d="M 55.59375 17.796875 
L 43.703125 17.796875 
L 43.703125 0 
L 38.203125 0 
L 38.203125 17.796875 
L 2.296875 17.796875 
L 2.296875 22.40625 
L 37.796875 71.796875 
L 43.703125 71.796875 
L 43.703125 23 
L 55.59375 23 
z
M 38.203125 23 
L 38.203125 49.5 
Q 38.203125 55.296875 38.25 58.640625 
Q 38.296875 62 38.40625 65.5 
L 38.203125 65.5 
Q 36.796875 63.203125 35.59375 61.203125 
Q 34.40625 59.203125 32.796875 56.90625 
L 8.296875 23 
z
" id="NotoSans-Light-34"/>
      </defs>
      <g transform="translate(33.25875 210.099787)scale(0.14 -0.14)">
       <use xlink:href="#NotoSans-Light-34"/>
       <use x="57.099991" xlink:href="#NotoSans-Light-30"/>
      </g>
     </g>
    </g>
    <g id="ytick_6">
     <g id="line2d_11">
      <g>
       <use style="stroke:#000000;stroke-width:0.8;" x="56.245" xlink:href="#mc558bac90d" y="161.504733"/>
      </g>
     </g>
     <g id="text_11">
      <!-- 50 -->
      <defs>
       <path d="M 27.40625 43.203125 
Q 38.296875 43.203125 44.640625 37.703125 
Q 51 32.203125 51 22.203125 
Q 51 11.40625 44 5.203125 
Q 37 -1 25 -1 
Q 19.40625 -1 14.75 0.09375 
Q 10.09375 1.203125 6.796875 3 
L 6.796875 8.703125 
Q 10.296875 6.59375 15.140625 5.296875 
Q 20 4 25.09375 4 
Q 34.203125 4 39.703125 8.546875 
Q 45.203125 13.09375 45.203125 21.796875 
Q 45.203125 29.59375 40.453125 33.890625 
Q 35.703125 38.203125 26 38.203125 
Q 22.203125 38.203125 18.59375 37.703125 
Q 15 37.203125 12 36.40625 
L 8.90625 38.5 
L 11.796875 71.40625 
L 46.40625 71.40625 
L 46.40625 66.203125 
L 16.59375 66.203125 
L 14.59375 41.59375 
Q 16.703125 42 19.890625 42.59375 
Q 23.09375 43.203125 27.40625 43.203125 
z
" id="NotoSans-Light-35"/>
      </defs>
      <g transform="translate(33.25875 166.824733)scale(0.14 -0.14)">
       <use xlink:href="#NotoSans-Light-35"/>
       <use x="57.099991" xlink:href="#NotoSans-Light-30"/>
      </g>
     </g>
    </g>
    <g id="ytick_7">
     <g id="line2d_12">
      <g>
       <use style="stroke:#000000;stroke-width:0.8;" x="56.245" xlink:href="#mc558bac90d" y="118.22968"/>
      </g>
     </g>
     <g id="text_12">
      <!-- 60 -->
      <defs>
       <path d="M 6.203125 30.40625 
Q 6.203125 43.203125 9.453125 52.640625 
Q 12.703125 62.09375 19.546875 67.296875 
Q 26.40625 72.5 37.40625 72.5 
Q 42.90625 72.5 46.796875 71.40625 
L 46.796875 66.296875 
Q 45 67 42.59375 67.296875 
Q 40.203125 67.59375 37.59375 67.59375 
Q 24.703125 67.59375 18.453125 58.890625 
Q 12.203125 50.203125 11.796875 34.203125 
L 12.203125 34.203125 
Q 14.296875 38.09375 18.890625 41.1875 
Q 23.5 44.296875 31.09375 44.296875 
Q 40.703125 44.296875 46.296875 38.546875 
Q 51.90625 32.796875 51.90625 22.796875 
Q 51.90625 12 46.046875 5.5 
Q 40.203125 -1 29.796875 -1 
Q 22.203125 -1 16.953125 3.046875 
Q 11.703125 7.09375 8.953125 14.140625 
Q 6.203125 21.203125 6.203125 30.40625 
z
M 29.796875 3.90625 
Q 37.40625 3.90625 41.796875 8.75 
Q 46.203125 13.59375 46.203125 22.796875 
Q 46.203125 30.59375 42.203125 35.09375 
Q 38.203125 39.59375 30.203125 39.59375 
Q 24.703125 39.59375 20.640625 37.390625 
Q 16.59375 35.203125 14.390625 31.84375 
Q 12.203125 28.5 12.203125 25.203125 
Q 12.203125 22.09375 13.09375 18.4375 
Q 14 14.796875 16.046875 11.5 
Q 18.09375 8.203125 21.4375 6.046875 
Q 24.796875 3.90625 29.796875 3.90625 
z
" id="NotoSans-Light-36"/>
      </defs>
      <g transform="translate(33.25875 123.54968)scale(0.14 -0.14)">
       <use xlink:href="#NotoSans-Light-36"/>
       <use x="57.099991" xlink:href="#NotoSans-Light-30"/>
      </g>
     </g>
    </g>
    <g id="ytick_8">
     <g id="line2d_13">
      <g>
       <use style="stroke:#000000;stroke-width:0.8;" x="56.245" xlink:href="#mc558bac90d" y="74.954627"/>
      </g>
     </g>
     <g id="text_13">
      <!-- 70 -->
      <defs>
       <path d="M 16 0 
L 45.40625 66.203125 
L 5.09375 66.203125 
L 5.09375 71.40625 
L 51.59375 71.40625 
L 51.59375 67.203125 
L 22.203125 0 
z
" id="NotoSans-Light-37"/>
      </defs>
      <g transform="translate(33.25875 80.274627)scale(0.14 -0.14)">
       <use xlink:href="#NotoSans-Light-37"/>
       <use x="57.099991" xlink:href="#NotoSans-Light-30"/>
      </g>
     </g>
    </g>
    <g id="text_14">
     <!-- Number of Seats -->
     <defs>
      <path d="M 50.703125 53.203125 
L 50.703125 0 
L 46 0 
L 45.203125 9.09375 
L 44.90625 9.09375 
Q 42.703125 4.796875 38.140625 1.890625 
Q 33.59375 -1 26.796875 -1 
Q 8 -1 8 18.40625 
L 8 53.203125 
L 13.796875 53.203125 
L 13.796875 18.796875 
Q 13.796875 11.203125 17.1875 7.546875 
Q 20.59375 3.90625 27.40625 3.90625 
Q 45 3.90625 45 24.203125 
L 45 53.203125 
z
" id="NotoSans-Light-75"/>
      <path d="M 64.40625 54.203125 
Q 72.296875 54.203125 76.75 49.703125 
Q 81.203125 45.203125 81.203125 35.5 
L 81.203125 0 
L 75.59375 0 
L 75.59375 35.203125 
Q 75.59375 42.40625 72.390625 45.796875 
Q 69.203125 49.203125 63.59375 49.203125 
Q 56 49.203125 51.890625 44.75 
Q 47.796875 40.296875 47.796875 31 
L 47.796875 0 
L 42.203125 0 
L 42.203125 35.203125 
Q 42.203125 42.40625 39 45.796875 
Q 35.796875 49.203125 30.203125 49.203125 
Q 22.59375 49.203125 18.5 44.546875 
Q 14.40625 39.90625 14.40625 30.203125 
L 14.40625 0 
L 8.796875 0 
L 8.796875 53.203125 
L 13.40625 53.203125 
L 14.203125 44.796875 
L 14.59375 44.796875 
Q 16.59375 48.703125 20.640625 51.453125 
Q 24.703125 54.203125 31 54.203125 
Q 36.796875 54.203125 40.796875 51.703125 
Q 44.796875 49.203125 46.40625 44.203125 
L 46.796875 44.203125 
Q 49 49 53.59375 51.59375 
Q 58.203125 54.203125 64.40625 54.203125 
z
" id="NotoSans-Light-6d"/>
      <path d="M 14.40625 76 
L 14.40625 55 
Q 14.40625 52.203125 14.296875 48.890625 
Q 14.203125 45.59375 14 43.59375 
L 14.40625 43.59375 
Q 16.40625 48.09375 20.953125 51.140625 
Q 25.5 54.203125 32.5 54.203125 
Q 42.796875 54.203125 48.5 47.25 
Q 54.203125 40.296875 54.203125 26.703125 
Q 54.203125 14.09375 48.453125 6.546875 
Q 42.703125 -1 31.703125 -1 
Q 25 -1 20.75 1.796875 
Q 16.5 4.59375 14.5 8.59375 
L 14 8.59375 
L 13 0 
L 8.703125 0 
L 8.703125 76 
z
M 31.796875 49.296875 
Q 22.5 49.296875 18.453125 43.5 
Q 14.40625 37.703125 14.40625 26.703125 
L 14.40625 26 
Q 14.40625 15.203125 18.25 9.546875 
Q 22.09375 3.90625 31 3.90625 
Q 39.59375 3.90625 43.9375 9.84375 
Q 48.296875 15.796875 48.296875 26.796875 
Q 48.296875 49.296875 31.796875 49.296875 
z
" id="NotoSans-Light-62"/>
      <path d="M 29 54.203125 
Q 35.796875 54.203125 40.390625 51.046875 
Q 45 47.90625 47.296875 42.40625 
Q 49.59375 36.90625 49.59375 29.796875 
L 49.59375 25.796875 
L 11.59375 25.796875 
Q 11.59375 15.296875 16.5 9.640625 
Q 21.40625 4 30.59375 4 
Q 35.59375 4 39.296875 4.796875 
Q 43 5.59375 47.40625 7.59375 
L 47.40625 2.40625 
Q 43.40625 0.59375 39.5 -0.203125 
Q 35.59375 -1 30.40625 -1 
Q 18.5 -1 12.09375 6.296875 
Q 5.703125 13.59375 5.703125 26.203125 
Q 5.703125 34.296875 8.453125 40.640625 
Q 11.203125 47 16.390625 50.59375 
Q 21.59375 54.203125 29 54.203125 
z
M 28.90625 49.40625 
Q 21.59375 49.40625 17.046875 44.5 
Q 12.5 39.59375 11.703125 30.59375 
L 43.59375 30.59375 
Q 43.59375 39 40.046875 44.203125 
Q 36.5 49.40625 28.90625 49.40625 
z
" id="NotoSans-Light-65"/>
      <path id="NotoSans-Light-20"/>
      <path d="M 53.296875 26.59375 
Q 53.296875 18.296875 50.546875 12.09375 
Q 47.796875 5.90625 42.4375 2.453125 
Q 37.09375 -1 29.40625 -1 
Q 22 -1 16.703125 2.390625 
Q 11.40625 5.796875 8.546875 12 
Q 5.703125 18.203125 5.703125 26.59375 
Q 5.703125 39.59375 12.140625 46.890625 
Q 18.59375 54.203125 29.796875 54.203125 
Q 37.40625 54.203125 42.65625 50.75 
Q 47.90625 47.296875 50.59375 41.09375 
Q 53.296875 34.90625 53.296875 26.59375 
z
M 11.59375 26.59375 
Q 11.59375 16.40625 15.890625 10.15625 
Q 20.203125 3.90625 29.40625 3.90625 
Q 38.703125 3.90625 43.046875 10.15625 
Q 47.40625 16.40625 47.40625 26.59375 
Q 47.40625 33.203125 45.59375 38.296875 
Q 43.796875 43.40625 39.890625 46.296875 
Q 36 49.203125 29.703125 49.203125 
Q 20.59375 49.203125 16.09375 43.203125 
Q 11.59375 37.203125 11.59375 26.59375 
z
" id="NotoSans-Light-6f"/>
      <path d="M 29.5 48.59375 
L 16.796875 48.59375 
L 16.796875 0 
L 11.09375 0 
L 11.09375 48.59375 
L 1.296875 48.59375 
L 1.296875 51.703125 
L 11.09375 53.40625 
L 11.09375 58.59375 
Q 11.09375 67.796875 15.046875 72.140625 
Q 19 76.5 27 76.5 
Q 29.796875 76.5 32.09375 76.046875 
Q 34.40625 75.59375 36.296875 75 
L 35 70.203125 
Q 33.203125 70.796875 31.140625 71.1875 
Q 29.09375 71.59375 27 71.59375 
Q 21.59375 71.59375 19.1875 68.546875 
Q 16.796875 65.5 16.796875 58.703125 
L 16.796875 53.203125 
L 29.5 53.203125 
z
" id="NotoSans-Light-66"/>
      <path d="M 49.59375 18.59375 
Q 49.59375 12.203125 46.390625 7.84375 
Q 43.203125 3.5 37.59375 1.25 
Q 32 -1 24.796875 -1 
Q 18.40625 -1 13.59375 -0.09375 
Q 8.796875 0.796875 5.40625 2.203125 
L 5.40625 7.90625 
Q 9.203125 6.40625 14.25 5.25 
Q 19.296875 4.09375 25.203125 4.09375 
Q 33.40625 4.09375 38.546875 7.640625 
Q 43.703125 11.203125 43.703125 18.203125 
Q 43.703125 22.40625 41.75 25.15625 
Q 39.796875 27.90625 35.75 29.953125 
Q 31.703125 32 25.40625 34.09375 
Q 19.40625 36.203125 15.09375 38.640625 
Q 10.796875 41.09375 8.5 44.84375 
Q 6.203125 48.59375 6.203125 54.296875 
Q 6.203125 60.203125 9.140625 64.203125 
Q 12.09375 68.203125 17.25 70.296875 
Q 22.40625 72.40625 29 72.40625 
Q 34.203125 72.40625 38.890625 71.40625 
Q 43.59375 70.40625 47.796875 68.59375 
L 45.796875 63.59375 
Q 37.40625 67.203125 28.796875 67.203125 
Q 21.40625 67.203125 16.75 63.953125 
Q 12.09375 60.703125 12.09375 54.40625 
Q 12.09375 49.796875 14.09375 47.046875 
Q 16.09375 44.296875 19.890625 42.390625 
Q 23.703125 40.5 29.203125 38.59375 
Q 35.5 36.40625 40.046875 33.953125 
Q 44.59375 31.5 47.09375 27.890625 
Q 49.59375 24.296875 49.59375 18.59375 
z
" id="NotoSans-Light-53"/>
      <path d="M 42.203125 14.09375 
Q 42.203125 6.796875 36.84375 2.890625 
Q 31.5 -1 21.59375 -1 
Q 16 -1 11.75 0 
Q 7.5 1 4.59375 2.40625 
L 4.59375 7.90625 
Q 8.09375 6.09375 12.59375 4.9375 
Q 17.09375 3.796875 21.796875 3.796875 
Q 29.59375 3.796875 33.09375 6.4375 
Q 36.59375 9.09375 36.59375 13.703125 
Q 36.59375 18.09375 32.9375 20.4375 
Q 29.296875 22.796875 22 25.296875 
Q 17.09375 27 13.34375 28.703125 
Q 9.59375 30.40625 7.5 33.15625 
Q 5.40625 35.90625 5.40625 40.59375 
Q 5.40625 47 10.59375 50.59375 
Q 15.796875 54.203125 24.5 54.203125 
Q 29.296875 54.203125 33.4375 53.25 
Q 37.59375 52.296875 41 50.90625 
L 39 46.203125 
Q 35.90625 47.59375 32 48.5 
Q 28.09375 49.40625 24.203125 49.40625 
Q 17.90625 49.40625 14.40625 47.203125 
Q 10.90625 45 10.90625 40.796875 
Q 10.90625 37.59375 12.59375 35.75 
Q 14.296875 33.90625 17.5 32.546875 
Q 20.703125 31.203125 25.296875 29.59375 
Q 30 28 33.84375 26.203125 
Q 37.703125 24.40625 39.953125 21.59375 
Q 42.203125 18.796875 42.203125 14.09375 
z
" id="NotoSans-Light-73"/>
     </defs>
     <g transform="translate(25.955625 279.036094)rotate(-90)scale(0.14 -0.14)">
      <use xlink:href="#NotoSans-Light-4e"/>
      <use x="72.899994" xlink:href="#NotoSans-Light-75"/>
      <use x="132.499985" xlink:href="#NotoSans-Light-6d"/>
      <use x="221.899979" xlink:href="#NotoSans-Light-62"/>
      <use x="281.799973" xlink:href="#NotoSans-Light-65"/>
      <use x="336.999969" xlink:href="#NotoSans-Light-72"/>
      <use x="376.399963" xlink:href="#NotoSans-Light-20"/>
      <use x="402.399948" xlink:href="#NotoSans-Light-6f"/>
      <use x="461.399933" xlink:href="#NotoSans-Light-66"/>
      <use x="492.299927" xlink:href="#NotoSans-Light-20"/>
      <use x="518.299911" xlink:href="#NotoSans-Light-53"/>
      <use x="572.899902" xlink:href="#NotoSans-Light-65"/>
      <use x="628.099899" xlink:href="#NotoSans-Light-61"/>
      <use x="681.69989" xlink:href="#NotoSans-Light-74"/>
      <use x="715.699875" xlink:href="#NotoSans-Light-73"/>
     </g>
    </g>
   </g>
   <g id="patch_7">
    <path d="M 56.245 377.88 
L 56.245 73.44 
" style="fill:none;stroke:#000000;stroke-linecap:square;stroke-linejoin:miter;stroke-width:0.8;"/>
   </g>
   <g id="patch_8">
    <path d="M 56.245 377.88 
L 593.38 377.88 
" style="fill:none;stroke:#000000;stroke-linecap:square;stroke-linejoin:miter;stroke-width:0.8;"/>
   </g>
   <g id="text_15">
    <!-- 67 -->
    <defs>
     <path d="M 3.5 30.296875 
Q 3.5 36.40625 4.390625 42.453125 
Q 5.296875 48.5 7.546875 53.84375 
Q 9.796875 59.203125 13.84375 63.34375 
Q 17.90625 67.5 24.15625 69.84375 
Q 30.40625 72.203125 39.296875 72.203125 
Q 41.40625 72.203125 44.203125 72.046875 
Q 47 71.90625 48.90625 71.5 
L 48.90625 59.40625 
Q 47 59.796875 44.75 60.09375 
Q 42.5 60.40625 40.296875 60.40625 
Q 31.40625 60.40625 26.546875 57.59375 
Q 21.703125 54.796875 19.703125 49.75 
Q 17.703125 44.703125 17.40625 38.09375 
L 18 38.09375 
Q 20 41.59375 23.75 44 
Q 27.5 46.40625 33.5 46.40625 
Q 42.90625 46.40625 48.40625 40.5 
Q 53.90625 34.59375 53.90625 23.796875 
Q 53.90625 12.203125 47.34375 5.59375 
Q 40.796875 -1 29.59375 -1 
Q 22.296875 -1 16.390625 2.34375 
Q 10.5 5.703125 7 12.640625 
Q 3.5 19.59375 3.5 30.296875 
z
M 29.296875 11.09375 
Q 33.703125 11.09375 36.5 14.140625 
Q 39.296875 17.203125 39.296875 23.59375 
Q 39.296875 28.796875 36.890625 31.796875 
Q 34.5 34.796875 29.59375 34.796875 
Q 26.203125 34.796875 23.75 33.296875 
Q 21.296875 31.796875 19.890625 29.546875 
Q 18.5 27.296875 18.5 24.90625 
Q 18.5 21.59375 19.703125 18.390625 
Q 20.90625 15.203125 23.34375 13.140625 
Q 25.796875 11.09375 29.296875 11.09375 
z
" id="NotoSans-Bold-36"/>
     <path d="M 11.09375 0 
L 37.90625 58.703125 
L 2.703125 58.703125 
L 2.703125 71.40625 
L 53.90625 71.40625 
L 53.90625 61.90625 
L 26.90625 0 
z
" id="NotoSans-Bold-37"/>
    </defs>
    <g style="fill:#ffffff;" transform="translate(115.378438 104.850476)scale(0.14 -0.14)">
     <use xlink:href="#NotoSans-Bold-36"/>
     <use x="57.199997" xlink:href="#NotoSans-Bold-37"/>
    </g>
   </g>
   <g id="text_16">
    <!-- 48 -->
    <defs>
     <path d="M 55.5 14.796875 
L 46.90625 14.796875 
L 46.90625 0 
L 32.203125 0 
L 32.203125 14.796875 
L 1.703125 14.796875 
L 1.703125 25.296875 
L 33 71.40625 
L 46.90625 71.40625 
L 46.90625 26.5 
L 55.5 26.5 
z
M 32.203125 26.5 
L 32.203125 38.59375 
Q 32.203125 40.90625 32.296875 44.203125 
Q 32.40625 47.5 32.546875 50.34375 
Q 32.703125 53.203125 32.796875 54.09375 
L 32.40625 54.09375 
Q 31.5 52.09375 30.453125 50.1875 
Q 29.40625 48.296875 28.09375 46.296875 
L 15 26.5 
z
" id="NotoSans-Bold-34"/>
     <path d="M 28.59375 72.296875 
Q 34.796875 72.296875 39.9375 70.390625 
Q 45.09375 68.5 48.25 64.640625 
Q 51.40625 60.796875 51.40625 55.09375 
Q 51.40625 48.59375 47.75 44.5 
Q 44.09375 40.40625 38.59375 37.703125 
Q 42.40625 35.703125 45.84375 33.046875 
Q 49.296875 30.40625 51.4375 26.796875 
Q 53.59375 23.203125 53.59375 18.5 
Q 53.59375 12.59375 50.4375 8.1875 
Q 47.296875 3.796875 41.640625 1.390625 
Q 36 -1 28.59375 -1 
Q 16.59375 -1 10.046875 4.09375 
Q 3.5 9.203125 3.5 18.09375 
Q 3.5 25.40625 7.5 29.953125 
Q 11.5 34.5 17.203125 37.296875 
Q 12.40625 40.296875 9.046875 44.546875 
Q 5.703125 48.796875 5.703125 55.203125 
Q 5.703125 60.796875 8.890625 64.640625 
Q 12.09375 68.5 17.34375 70.390625 
Q 22.59375 72.296875 28.59375 72.296875 
z
M 28.5 61.296875 
Q 24.796875 61.296875 22.34375 59.34375 
Q 19.90625 57.40625 19.90625 54 
Q 19.90625 50.296875 22.5 48 
Q 25.09375 45.703125 28.59375 44 
Q 32 45.59375 34.59375 47.84375 
Q 37.203125 50.09375 37.203125 54 
Q 37.203125 57.40625 34.703125 59.34375 
Q 32.203125 61.296875 28.5 61.296875 
z
M 17.5 19 
Q 17.5 15.09375 20.25 12.59375 
Q 23 10.09375 28.40625 10.09375 
Q 34 10.09375 36.796875 12.5 
Q 39.59375 14.90625 39.59375 18.90625 
Q 39.59375 21.59375 38 23.640625 
Q 36.40625 25.703125 34 27.34375 
Q 31.59375 29 29.203125 30.40625 
L 27.90625 31.09375 
Q 23.203125 28.90625 20.34375 26 
Q 17.5 23.09375 17.5 19 
z
" id="NotoSans-Bold-38"/>
    </defs>
    <g style="fill:#ffffff;" transform="translate(249.662187 187.073077)scale(0.14 -0.14)">
     <use xlink:href="#NotoSans-Bold-34"/>
     <use x="57.199997" xlink:href="#NotoSans-Bold-38"/>
    </g>
   </g>
   <g id="text_17">
    <!-- 8 -->
    <g style="fill:#ffffff;" transform="translate(387.950156 360.173291)scale(0.14 -0.14)">
     <use xlink:href="#NotoSans-Bold-38"/>
    </g>
   </g>
   <g id="text_18">
    <!-- 1 -->
    <defs>
     <path d="M 41.296875 0 
L 26.203125 0 
L 26.203125 41.296875 
Q 26.203125 43.796875 26.296875 48.046875 
Q 26.40625 52.296875 26.59375 55.5 
Q 26.09375 54.90625 24.4375 53.34375 
Q 22.796875 51.796875 21.40625 50.59375 
L 13.203125 44 
L 5.90625 53.09375 
L 28.90625 71.40625 
L 41.296875 71.40625 
z
" id="NotoSans-Bold-31"/>
    </defs>
    <g transform="translate(522.233906 369.324161)scale(0.14 -0.14)">
     <use xlink:href="#NotoSans-Bold-31"/>
    </g>
   </g>
   <g id="text_19">
    <!-- 63 seats required to form a majority government -->
    <defs>
     <path d="M 45.40625 -23.59375 
L 45.40625 -0.40625 
Q 45.40625 1.703125 45.453125 4.640625 
Q 45.5 7.59375 45.703125 9.703125 
L 45.296875 9.703125 
Q 43.296875 5.09375 38.6875 2.046875 
Q 34.09375 -1 27.09375 -1 
Q 17 -1 11.296875 5.953125 
Q 5.59375 12.90625 5.59375 26.40625 
Q 5.59375 39 11.296875 46.59375 
Q 17 54.203125 28 54.203125 
Q 34.796875 54.203125 39.046875 51.296875 
Q 43.296875 48.40625 45.296875 44.40625 
L 45.59375 44.40625 
L 46.40625 53.203125 
L 51 53.203125 
L 51 -23.59375 
z
M 28 3.796875 
Q 37.203125 3.796875 41.25 9.4375 
Q 45.296875 15.09375 45.40625 25.59375 
L 45.40625 27 
Q 45.40625 38 41.453125 43.640625 
Q 37.5 49.296875 28.59375 49.296875 
Q 20 49.296875 15.703125 43.1875 
Q 11.40625 37.09375 11.40625 26.40625 
Q 11.40625 15.40625 15.5 9.59375 
Q 19.59375 3.796875 28 3.796875 
z
" id="NotoSans-Light-71"/>
     <path d="M 11.59375 72.90625 
Q 15.59375 72.90625 15.59375 68.59375 
Q 15.59375 64.203125 11.59375 64.203125 
Q 7.796875 64.203125 7.796875 68.59375 
Q 7.796875 72.90625 11.59375 72.90625 
z
M 14.40625 53.203125 
L 14.40625 0 
L 8.796875 0 
L 8.796875 53.203125 
z
" id="NotoSans-Light-69"/>
     <path d="M 27.90625 -1 
Q 17.203125 -1 11.453125 5.84375 
Q 5.703125 12.703125 5.703125 26 
Q 5.703125 39.796875 11.75 47 
Q 17.796875 54.203125 28.40625 54.203125 
Q 35.09375 54.203125 39.296875 51.296875 
Q 43.5 48.40625 45.5 44 
L 45.90625 44 
Q 45.796875 46.40625 45.640625 49.296875 
Q 45.5 52.203125 45.5 54.40625 
L 45.5 76 
L 51.203125 76 
L 51.203125 0 
L 46.59375 0 
L 45.796875 9.203125 
L 45.5 9.203125 
Q 43.40625 5 39.203125 2 
Q 35 -1 27.90625 -1 
z
M 28.59375 3.90625 
Q 37.796875 3.90625 41.6875 9.5 
Q 45.59375 15.09375 45.59375 25.59375 
L 45.59375 26.59375 
Q 45.59375 37.59375 41.6875 43.4375 
Q 37.796875 49.296875 29 49.296875 
Q 20.40625 49.296875 16 43.25 
Q 11.59375 37.203125 11.59375 26 
Q 11.59375 15.09375 15.796875 9.5 
Q 20 3.90625 28.59375 3.90625 
z
" id="NotoSans-Light-64"/>
     <path d="M 7.796875 68.59375 
Q 7.796875 72.90625 11.59375 72.90625 
Q 15.59375 72.90625 15.59375 68.59375 
Q 15.59375 64.203125 11.59375 64.203125 
Q 7.796875 64.203125 7.796875 68.59375 
z
M 1.59375 -24 
Q -2.703125 -24 -5.203125 -22.90625 
L -5.203125 -18 
Q -2.40625 -19.09375 1.09375 -19.09375 
Q 4.703125 -19.09375 6.75 -16.890625 
Q 8.796875 -14.703125 8.796875 -10 
L 8.796875 53.203125 
L 14.40625 53.203125 
L 14.40625 -10 
Q 14.40625 -16.796875 11.046875 -20.390625 
Q 7.703125 -24 1.59375 -24 
z
" id="NotoSans-Light-6a"/>
     <path d="M 28.203125 54.203125 
Q 34.5 54.203125 38.640625 51.796875 
Q 42.796875 49.40625 45.296875 45.09375 
L 45.59375 45.09375 
L 46.5 53.203125 
L 51.09375 53.203125 
L 51.09375 -1.703125 
Q 51.09375 -12.203125 45.75 -18.09375 
Q 40.40625 -24 28.203125 -24 
Q 22.203125 -24 17.59375 -23 
Q 13 -22 9.203125 -20.40625 
L 9.203125 -14.90625 
Q 13 -16.796875 17.84375 -17.9375 
Q 22.703125 -19.09375 28.40625 -19.09375 
Q 37.09375 -19.09375 41.25 -14.5 
Q 45.40625 -9.90625 45.40625 -2 
L 45.40625 1.09375 
Q 45.40625 3.203125 45.5 5.296875 
Q 45.59375 7.40625 45.703125 9.40625 
L 45.40625 9.40625 
Q 43.203125 4.203125 38.59375 1.59375 
Q 34 -1 27.59375 -1 
Q 17.203125 -1 11.453125 6 
Q 5.703125 13 5.703125 26.203125 
Q 5.703125 39.09375 11.453125 46.640625 
Q 17.203125 54.203125 28.203125 54.203125 
z
M 28.796875 49.203125 
Q 20.203125 49.203125 15.890625 43.140625 
Q 11.59375 37.09375 11.59375 26.09375 
Q 11.59375 15.203125 15.84375 9.5 
Q 20.09375 3.796875 28.203125 3.796875 
Q 34.796875 3.796875 38.546875 6.5 
Q 42.296875 9.203125 43.890625 13.890625 
Q 45.5 18.59375 45.5 24.59375 
L 45.5 28 
Q 45.5 38.203125 41.75 43.703125 
Q 38 49.203125 28.796875 49.203125 
z
" id="NotoSans-Light-67"/>
     <path d="M 20.40625 0 
L 0 53.203125 
L 6 53.203125 
L 19.203125 17.90625 
Q 20.5 14.59375 21.546875 11.390625 
Q 22.59375 8.203125 23.203125 5.703125 
L 23.59375 5.703125 
Q 24.296875 8.203125 25.34375 11.453125 
Q 26.40625 14.703125 27.59375 17.90625 
L 40.796875 53.203125 
L 46.90625 53.203125 
L 26.5 0 
z
" id="NotoSans-Light-76"/>
     <path d="M 32.59375 54.203125 
Q 41.703125 54.203125 46.5 49.5 
Q 51.296875 44.796875 51.296875 34.796875 
L 51.296875 0 
L 45.59375 0 
L 45.59375 34.40625 
Q 45.59375 42 42.140625 45.59375 
Q 38.703125 49.203125 32 49.203125 
Q 14.40625 49.203125 14.40625 29 
L 14.40625 0 
L 8.796875 0 
L 8.796875 53.203125 
L 13.40625 53.203125 
L 14.203125 44 
L 14.59375 44 
Q 16.703125 48.40625 21.25 51.296875 
Q 25.796875 54.203125 32.59375 54.203125 
z
" id="NotoSans-Light-6e"/>
    </defs>
    <g transform="translate(138.613375 67.44)scale(0.168 -0.168)">
     <use xlink:href="#NotoSans-Light-36"/>
     <use x="57.099991" xlink:href="#NotoSans-Light-33"/>
     <use x="114.199982" xlink:href="#NotoSans-Light-20"/>
     <use x="140.199966" xlink:href="#NotoSans-Light-73"/>
     <use x="186.999954" xlink:href="#NotoSans-Light-65"/>
     <use x="242.199951" xlink:href="#NotoSans-Light-61"/>
     <use x="295.799942" xlink:href="#NotoSans-Light-74"/>
     <use x="329.799927" xlink:href="#NotoSans-Light-73"/>
     <use x="376.599915" xlink:href="#NotoSans-Light-20"/>
     <use x="402.599899" xlink:href="#NotoSans-Light-72"/>
     <use x="441.999893" xlink:href="#NotoSans-Light-65"/>
     <use x="497.19989" xlink:href="#NotoSans-Light-71"/>
     <use x="557.099884" xlink:href="#NotoSans-Light-75"/>
     <use x="616.699875" xlink:href="#NotoSans-Light-69"/>
     <use x="639.899872" xlink:href="#NotoSans-Light-72"/>
     <use x="679.299866" xlink:href="#NotoSans-Light-65"/>
     <use x="734.499863" xlink:href="#NotoSans-Light-64"/>
     <use x="794.399857" xlink:href="#NotoSans-Light-20"/>
     <use x="820.399841" xlink:href="#NotoSans-Light-74"/>
     <use x="854.399826" xlink:href="#NotoSans-Light-6f"/>
     <use x="913.399811" xlink:href="#NotoSans-Light-20"/>
     <use x="939.399796" xlink:href="#NotoSans-Light-66"/>
     <use x="970.299789" xlink:href="#NotoSans-Light-6f"/>
     <use x="1029.299774" xlink:href="#NotoSans-Light-72"/>
     <use x="1068.699768" xlink:href="#NotoSans-Light-6d"/>
     <use x="1158.099762" xlink:href="#NotoSans-Light-20"/>
     <use x="1184.099747" xlink:href="#NotoSans-Light-61"/>
     <use x="1237.699738" xlink:href="#NotoSans-Light-20"/>
     <use x="1263.699722" xlink:href="#NotoSans-Light-6d"/>
     <use x="1353.099716" xlink:href="#NotoSans-Light-61"/>
     <use x="1406.699707" xlink:href="#NotoSans-Light-6a"/>
     <use x="1429.899704" xlink:href="#NotoSans-Light-6f"/>
     <use x="1488.899689" xlink:href="#NotoSans-Light-72"/>
     <use x="1528.299683" xlink:href="#NotoSans-Light-69"/>
     <use x="1551.49968" xlink:href="#NotoSans-Light-74"/>
     <use x="1585.499664" xlink:href="#NotoSans-Light-79"/>
     <use x="1632.399658" xlink:href="#NotoSans-Light-20"/>
     <use x="1658.399643" xlink:href="#NotoSans-Light-67"/>
     <use x="1718.299637" xlink:href="#NotoSans-Light-6f"/>
     <use x="1777.299622" xlink:href="#NotoSans-Light-76"/>
     <use x="1824.199615" xlink:href="#NotoSans-Light-65"/>
     <use x="1879.399612" xlink:href="#NotoSans-Light-72"/>
     <use x="1918.799606" xlink:href="#NotoSans-Light-6e"/>
     <use x="1978.399597" xlink:href="#NotoSans-Light-6d"/>
     <use x="2067.799591" xlink:href="#NotoSans-Light-65"/>
     <use x="2122.999588" xlink:href="#NotoSans-Light-6e"/>
     <use x="2182.599579" xlink:href="#NotoSans-Light-74"/>
    </g>
   </g>
  </g>
  <g id="text_20">
   <!-- Ontatio 2018 Provincial Election Results -->
   <defs>
    <path d="M 28.40625 72.40625 
Q 37.59375 72.40625 43.25 68.046875 
Q 48.90625 63.703125 48.90625 55.703125 
Q 48.90625 49.203125 44.65625 45.046875 
Q 40.40625 40.90625 33.796875 38 
Q 41.59375 34.796875 46.390625 30.296875 
Q 51.203125 25.796875 51.203125 18.296875 
Q 51.203125 12.203125 48.25 7.890625 
Q 45.296875 3.59375 40.140625 1.296875 
Q 35 -1 28.40625 -1 
Q 17.90625 -1 11.75 4.09375 
Q 5.59375 9.203125 5.59375 17.796875 
Q 5.59375 23 7.796875 26.75 
Q 10 30.5 13.796875 33.140625 
Q 17.59375 35.796875 22.40625 37.703125 
Q 18.40625 39.59375 15.15625 41.9375 
Q 11.90625 44.296875 9.953125 47.640625 
Q 8 51 8 55.59375 
Q 8 60.796875 10.640625 64.59375 
Q 13.296875 68.40625 17.890625 70.40625 
Q 22.5 72.40625 28.40625 72.40625 
z
M 28.40625 67.59375 
Q 22 67.59375 17.796875 64.390625 
Q 13.59375 61.203125 13.59375 55.40625 
Q 13.59375 49.5 17.84375 46.140625 
Q 22.09375 42.796875 28.796875 40.296875 
Q 35.5 43.09375 39.34375 46.5 
Q 43.203125 49.90625 43.203125 55.59375 
Q 43.203125 61.40625 39.203125 64.5 
Q 35.203125 67.59375 28.40625 67.59375 
z
M 11.296875 17.796875 
Q 11.296875 11.5 15.75 7.59375 
Q 20.203125 3.703125 28.203125 3.703125 
Q 36.203125 3.703125 40.890625 7.546875 
Q 45.59375 11.40625 45.59375 18.203125 
Q 45.59375 24 41.4375 27.84375 
Q 37.296875 31.703125 29.796875 34.40625 
L 27.59375 35.203125 
Q 20.203125 32.5 15.75 28.546875 
Q 11.296875 24.59375 11.296875 17.796875 
z
" id="NotoSans-Light-38"/>
    <path d="M 30.09375 -1 
Q 18.40625 -1 12.046875 6.140625 
Q 5.703125 13.296875 5.703125 26.296875 
Q 5.703125 35.203125 8.890625 41.453125 
Q 12.09375 47.703125 17.84375 50.953125 
Q 23.59375 54.203125 31.203125 54.203125 
Q 35.09375 54.203125 38.4375 53.5 
Q 41.796875 52.796875 44.40625 51.59375 
L 42.796875 46.59375 
Q 37.203125 49.09375 31.203125 49.09375 
Q 21.796875 49.09375 16.6875 43 
Q 11.59375 36.90625 11.59375 26.40625 
Q 11.59375 16.40625 16.09375 10.203125 
Q 20.59375 4 30 4 
Q 34 4 37.5 4.796875 
Q 41 5.59375 43.796875 6.90625 
L 43.796875 1.796875 
Q 41.203125 0.5 37.796875 -0.25 
Q 34.40625 -1 30.09375 -1 
z
" id="NotoSans-Light-63"/>
    <path d="M 14.5 0 
L 8.796875 0 
L 8.796875 76 
L 14.5 76 
z
" id="NotoSans-Light-6c"/>
    <path d="M 49.203125 0 
L 10 0 
L 10 71.40625 
L 49.203125 71.40625 
L 49.203125 66.203125 
L 15.796875 66.203125 
L 15.796875 40 
L 47.296875 40 
L 47.296875 34.90625 
L 15.796875 34.90625 
L 15.796875 5.203125 
L 49.203125 5.203125 
z
" id="NotoSans-Light-45"/>
    <path d="M 27.796875 71.40625 
Q 40.59375 71.40625 47.046875 66.90625 
Q 53.5 62.40625 53.5 51.796875 
Q 53.5 43.59375 49.140625 39 
Q 44.796875 34.40625 38.296875 32.40625 
L 57.90625 0 
L 51 0 
L 32.796875 30.796875 
L 15.796875 30.796875 
L 15.796875 0 
L 10 0 
L 10 71.40625 
z
M 27.296875 66.203125 
L 15.796875 66.203125 
L 15.796875 35.796875 
L 29.296875 35.796875 
Q 38 35.796875 42.75 39.890625 
Q 47.5 44 47.5 51.59375 
Q 47.5 59.796875 42.546875 63 
Q 37.59375 66.203125 27.296875 66.203125 
z
" id="NotoSans-Light-52"/>
   </defs>
   <g transform="translate(109.115469 25.36)scale(0.22 -0.22)">
    <use xlink:href="#NotoSans-Light-4f"/>
    <use x="76.799988" xlink:href="#NotoSans-Light-6e"/>
    <use x="136.399979" xlink:href="#NotoSans-Light-74"/>
    <use x="170.399963" xlink:href="#NotoSans-Light-61"/>
    <use x="223.999954" xlink:href="#NotoSans-Light-74"/>
    <use x="257.999939" xlink:href="#NotoSans-Light-69"/>
    <use x="281.199936" xlink:href="#NotoSans-Light-6f"/>
    <use x="340.199921" xlink:href="#NotoSans-Light-20"/>
    <use x="366.199905" xlink:href="#NotoSans-Light-32"/>
    <use x="423.299896" xlink:href="#NotoSans-Light-30"/>
    <use x="480.399887" xlink:href="#NotoSans-Light-31"/>
    <use x="537.499878" xlink:href="#NotoSans-Light-38"/>
    <use x="594.599869" xlink:href="#NotoSans-Light-20"/>
    <use x="620.599854" xlink:href="#NotoSans-Light-50"/>
    <use x="679.499847" xlink:href="#NotoSans-Light-72"/>
    <use x="718.899841" xlink:href="#NotoSans-Light-6f"/>
    <use x="777.899826" xlink:href="#NotoSans-Light-76"/>
    <use x="824.79982" xlink:href="#NotoSans-Light-69"/>
    <use x="847.999817" xlink:href="#NotoSans-Light-6e"/>
    <use x="907.599808" xlink:href="#NotoSans-Light-63"/>
    <use x="955.199799" xlink:href="#NotoSans-Light-69"/>
    <use x="978.399796" xlink:href="#NotoSans-Light-61"/>
    <use x="1031.999786" xlink:href="#NotoSans-Light-6c"/>
    <use x="1055.199783" xlink:href="#NotoSans-Light-20"/>
    <use x="1081.199768" xlink:href="#NotoSans-Light-45"/>
    <use x="1136.499756" xlink:href="#NotoSans-Light-6c"/>
    <use x="1159.699753" xlink:href="#NotoSans-Light-65"/>
    <use x="1214.89975" xlink:href="#NotoSans-Light-63"/>
    <use x="1262.499741" xlink:href="#NotoSans-Light-74"/>
    <use x="1296.499725" xlink:href="#NotoSans-Light-69"/>
    <use x="1319.699722" xlink:href="#NotoSans-Light-6f"/>
    <use x="1378.699707" xlink:href="#NotoSans-Light-6e"/>
    <use x="1438.299698" xlink:href="#NotoSans-Light-20"/>
    <use x="1464.299683" xlink:href="#NotoSans-Light-52"/>
    <use x="1524.299667" xlink:href="#NotoSans-Light-65"/>
    <use x="1579.499664" xlink:href="#NotoSans-Light-73"/>
    <use x="1626.299652" xlink:href="#NotoSans-Light-75"/>
    <use x="1685.899643" xlink:href="#NotoSans-Light-6c"/>
    <use x="1709.09964" xlink:href="#NotoSans-Light-74"/>
    <use x="1743.099625" xlink:href="#NotoSans-Light-73"/>
   </g>
   <!-- With GPO Votes Redistributed -->
   <defs>
    <path d="M 87.796875 71.40625 
L 68.40625 0 
L 62.59375 0 
L 47.59375 52.5 
Q 45.59375 59.90625 44.59375 64.203125 
Q 44.296875 62.203125 43.640625 59.390625 
Q 43 56.59375 42.09375 53.40625 
L 27.203125 0 
L 21.40625 0 
L 2.296875 71.40625 
L 8.296875 71.40625 
L 21.203125 22.40625 
Q 22.296875 18.203125 23.140625 14.75 
Q 24 11.296875 24.59375 8 
Q 25.203125 11.40625 26 15 
Q 26.796875 18.59375 28 22.703125 
L 41.796875 71.40625 
L 47.59375 71.40625 
L 61.796875 22.40625 
Q 63.203125 18.09375 64 14.546875 
Q 64.796875 11 65.40625 7.796875 
Q 65.796875 11.09375 66.59375 14.546875 
Q 67.40625 18 68.59375 22.296875 
L 81.796875 71.40625 
z
" id="NotoSans-Light-57"/>
    <path d="M 14.40625 76 
L 14.40625 51.59375 
Q 14.40625 47.59375 14.09375 44 
L 14.5 44 
Q 16.5 48.40625 21.09375 51.296875 
Q 25.703125 54.203125 32.5 54.203125 
Q 41.59375 54.203125 46.4375 49.5 
Q 51.296875 44.796875 51.296875 34.796875 
L 51.296875 0 
L 45.59375 0 
L 45.59375 34.40625 
Q 45.59375 42 42.140625 45.59375 
Q 38.703125 49.203125 32 49.203125 
Q 14.40625 49.203125 14.40625 29 
L 14.40625 0 
L 8.796875 0 
L 8.796875 76 
z
" id="NotoSans-Light-68"/>
    <path d="M 58.203125 71.40625 
L 32 0 
L 26.203125 0 
L 0 71.40625 
L 6.09375 71.40625 
L 25 19.90625 
Q 26.296875 16.296875 27.34375 13 
Q 28.40625 9.703125 29.09375 6.796875 
Q 29.796875 9.703125 30.796875 12.890625 
Q 31.796875 16.09375 33.203125 20 
L 52 71.40625 
z
" id="NotoSans-Light-56"/>
   </defs>
   <g transform="translate(156.791875 50.614625)scale(0.22 -0.22)">
    <use xlink:href="#NotoSans-Light-57"/>
    <use x="89.999985" xlink:href="#NotoSans-Light-69"/>
    <use x="113.199982" xlink:href="#NotoSans-Light-74"/>
    <use x="147.199966" xlink:href="#NotoSans-Light-68"/>
    <use x="206.799957" xlink:href="#NotoSans-Light-20"/>
    <use x="232.799942" xlink:href="#NotoSans-Light-47"/>
    <use x="305.199936" xlink:href="#NotoSans-Light-50"/>
    <use x="364.09993" xlink:href="#NotoSans-Light-4f"/>
    <use x="440.899918" xlink:href="#NotoSans-Light-20"/>
    <use x="466.899902" xlink:href="#NotoSans-Light-56"/>
    <use x="525.099899" xlink:href="#NotoSans-Light-6f"/>
    <use x="584.099884" xlink:href="#NotoSans-Light-74"/>
    <use x="618.099869" xlink:href="#NotoSans-Light-65"/>
    <use x="673.299866" xlink:href="#NotoSans-Light-73"/>
    <use x="720.099854" xlink:href="#NotoSans-Light-20"/>
    <use x="746.099838" xlink:href="#NotoSans-Light-52"/>
    <use x="806.099823" xlink:href="#NotoSans-Light-65"/>
    <use x="861.29982" xlink:href="#NotoSans-Light-64"/>
    <use x="921.199814" xlink:href="#NotoSans-Light-69"/>
    <use x="944.399811" xlink:href="#NotoSans-Light-73"/>
    <use x="991.199799" xlink:href="#NotoSans-Light-74"/>
    <use x="1025.199783" xlink:href="#NotoSans-Light-72"/>
    <use x="1064.599777" xlink:href="#NotoSans-Light-69"/>
    <use x="1087.799774" xlink:href="#NotoSans-Light-62"/>
    <use x="1147.699768" xlink:href="#NotoSans-Light-75"/>
    <use x="1207.299759" xlink:href="#NotoSans-Light-74"/>
    <use x="1241.299744" xlink:href="#NotoSans-Light-65"/>
    <use x="1296.499741" xlink:href="#NotoSans-Light-64"/>
   </g>
  </g>
 </g>
 <defs>
  <clipPath id="p78569ca850">
   <rect height="304.44" width="537.135" x="56.245" y="73.44"/>
  </clipPath>
 </defs>
</svg>
