<?xml version="1.0" encoding="utf-8" standalone="no"?>
<!DOCTYPE svg PUBLIC "-//W3C//DTD SVG 1.1//EN"
  "http://www.w3.org/Graphics/SVG/1.1/DTD/svg11.dtd">
<!-- Created with matplotlib (http://matplotlib.org/) -->
<svg height="432pt" version="1.1" viewBox="0 0 612 432" width="612pt" xmlns="http://www.w3.org/2000/svg" xmlns:xlink="http://www.w3.org/1999/xlink">
 <defs>
  <style type="text/css">
*{stroke-linecap:butt;stroke-linejoin:round;}
  </style>
 </defs>
 <g id="figure_1">
  <g id="patch_1">
   <path d="M 0 432 
L 612 432 
L 612 0 
L 0 0 
z
" style="fill:#ffffff;"/>
  </g>
  <g id="axes_1">
   <g id="patch_2">
    <path d="M 76.5 378 
L 550.8 378 
L 550.8 51.84 
L 76.5 51.84 
z
" style="fill:#ffffff;"/>
   </g>
   <g id="patch_3">
    <path clip-path="url(#pc175865edb)" d="M 106.14375 378 
L 165.43125 378 
L 165.43125 67.371429 
L 106.14375 67.371429 
z
" style="fill:#e3102b;"/>
   </g>
   <g id="patch_4">
    <path clip-path="url(#pc175865edb)" d="M 224.71875 378 
L 284.00625 378 
L 284.00625 110.497724 
L 224.71875 110.497724 
z
" style="fill:#2b328c;"/>
   </g>
   <g id="patch_5">
    <path clip-path="url(#pc175865edb)" d="M 343.29375 378 
L 402.58125 378 
L 402.58125 118.447272 
L 343.29375 118.447272 
z
" style="fill:#ff4c00;"/>
   </g>
   <g id="patch_6">
    <path clip-path="url(#pc175865edb)" d="M 461.86875 378 
L 521.15625 378 
L 521.15625 146.469427 
L 461.86875 146.469427 
z
" style="fill:#307730;"/>
   </g>
   <g id="matplotlib.axis_1">
    <g id="xtick_1">
     <g id="line2d_1">
      <defs>
       <path d="M 0 0 
L 0 3.5 
" id="mada74c8086" style="stroke:#000000;stroke-width:0.8;"/>
      </defs>
      <g>
       <use style="stroke:#000000;stroke-width:0.8;" x="135.7875" xlink:href="#mada74c8086" y="378"/>
      </g>
     </g>
     <g id="text_1">
      <!-- LIB -->
      <defs>
       <path d="M 10 0 
L 10 71.40625 
L 15.796875 71.40625 
L 15.796875 5.203125 
L 49.203125 5.203125 
L 49.203125 0 
z
" id="NotoSans-Light-4c"/>
       <path d="M 26 0 
L 5 0 
L 5 3.59375 
L 12.59375 4.703125 
L 12.59375 66.59375 
L 5 67.796875 
L 5 71.40625 
L 26 71.40625 
L 26 67.796875 
L 18.40625 66.59375 
L 18.40625 4.703125 
L 26 3.59375 
z
" id="NotoSans-Light-49"/>
       <path d="M 10 71.40625 
L 29.796875 71.40625 
Q 43 71.40625 49.296875 67.296875 
Q 55.59375 63.203125 55.59375 54 
Q 55.59375 47.796875 52 43.390625 
Q 48.40625 39 41.703125 37.796875 
L 41.703125 37.40625 
Q 49.5 36.203125 53.546875 32.046875 
Q 57.59375 27.90625 57.59375 20.296875 
Q 57.59375 13.40625 54.4375 8.90625 
Q 51.296875 4.40625 45.640625 2.203125 
Q 40 0 32.59375 0 
L 10 0 
z
M 15.796875 39.90625 
L 31.09375 39.90625 
Q 40.90625 39.90625 45.25 43.296875 
Q 49.59375 46.703125 49.59375 53.40625 
Q 49.59375 60.296875 44.890625 63.296875 
Q 40.203125 66.296875 29.796875 66.296875 
L 15.796875 66.296875 
z
M 15.796875 34.90625 
L 15.796875 5 
L 32.09375 5 
Q 51.5 5 51.5 20.59375 
Q 51.5 28 46.546875 31.453125 
Q 41.59375 34.90625 31.203125 34.90625 
z
" id="NotoSans-Light-42"/>
      </defs>
      <g transform="translate(125.581719 395.64)scale(0.14 -0.14)">
       <use xlink:href="#NotoSans-Light-4c"/>
       <use x="51.499985" xlink:href="#NotoSans-Light-49"/>
       <use x="82.599976" xlink:href="#NotoSans-Light-42"/>
      </g>
     </g>
    </g>
    <g id="xtick_2">
     <g id="line2d_2">
      <g>
       <use style="stroke:#000000;stroke-width:0.8;" x="254.3625" xlink:href="#mada74c8086" y="378"/>
      </g>
     </g>
     <g id="text_2">
      <!-- PCP -->
      <defs>
       <path d="M 27.796875 71.40625 
Q 53.5 71.40625 53.5 51.203125 
Q 53.5 40.90625 46.84375 35.046875 
Q 40.203125 29.203125 26.203125 29.203125 
L 15.796875 29.203125 
L 15.796875 0 
L 10 0 
L 10 71.40625 
z
M 27.203125 66.296875 
L 15.796875 66.296875 
L 15.796875 34.203125 
L 25.59375 34.203125 
Q 36 34.203125 41.75 37.84375 
Q 47.5 41.5 47.5 50.90625 
Q 47.5 58.90625 42.546875 62.59375 
Q 37.59375 66.296875 27.203125 66.296875 
z
" id="NotoSans-Light-50"/>
       <path d="M 40.40625 67.203125 
Q 31.59375 67.203125 25.296875 63.25 
Q 19 59.296875 15.640625 52.25 
Q 12.296875 45.203125 12.296875 35.796875 
Q 12.296875 26.203125 15.34375 19.09375 
Q 18.40625 12 24.40625 8.09375 
Q 30.40625 4.203125 39.40625 4.203125 
Q 44.59375 4.203125 48.9375 5 
Q 53.296875 5.796875 57.203125 7 
L 57.203125 2 
Q 53.5 0.59375 49.046875 -0.203125 
Q 44.59375 -1 38.796875 -1 
Q 28 -1 20.75 3.59375 
Q 13.5 8.203125 9.84375 16.5 
Q 6.203125 24.796875 6.203125 35.90625 
Q 6.203125 46.5 10.25 54.75 
Q 14.296875 63 21.9375 67.703125 
Q 29.59375 72.40625 40.40625 72.40625 
Q 50.90625 72.40625 59.203125 68.40625 
L 56.90625 63.40625 
Q 49.09375 67.203125 40.40625 67.203125 
z
" id="NotoSans-Light-43"/>
      </defs>
      <g transform="translate(241.754844 395.64)scale(0.14 -0.14)">
       <use xlink:href="#NotoSans-Light-50"/>
       <use x="58.899994" xlink:href="#NotoSans-Light-43"/>
       <use x="121.199982" xlink:href="#NotoSans-Light-50"/>
      </g>
     </g>
    </g>
    <g id="xtick_3">
     <g id="line2d_3">
      <g>
       <use style="stroke:#000000;stroke-width:0.8;" x="372.9375" xlink:href="#mada74c8086" y="378"/>
      </g>
     </g>
     <g id="text_3">
      <!-- NDP -->
      <defs>
       <path d="M 62.796875 0 
L 56.59375 0 
L 15.296875 62.40625 
L 15 62.40625 
Q 15.203125 58.5 15.296875 54.140625 
Q 15.40625 49.796875 15.40625 45 
L 15.40625 0 
L 10 0 
L 10 71.40625 
L 16.203125 71.40625 
L 57.40625 9.203125 
L 57.796875 9.203125 
Q 57.59375 12.296875 57.5 17.140625 
Q 57.40625 22 57.40625 26.09375 
L 57.40625 71.40625 
L 62.796875 71.40625 
z
" id="NotoSans-Light-4e"/>
       <path d="M 64.796875 36.40625 
Q 64.796875 18.40625 55.296875 9.203125 
Q 45.796875 0 27.59375 0 
L 10 0 
L 10 71.40625 
L 29.796875 71.40625 
Q 46.796875 71.40625 55.796875 62.453125 
Q 64.796875 53.5 64.796875 36.40625 
z
M 58.796875 36.203125 
Q 58.796875 66.296875 28.703125 66.296875 
L 15.796875 66.296875 
L 15.796875 5.09375 
L 27.203125 5.09375 
Q 58.796875 5.09375 58.796875 36.203125 
z
" id="NotoSans-Light-44"/>
      </defs>
      <g transform="translate(358.734063 395.64)scale(0.14 -0.14)">
       <use xlink:href="#NotoSans-Light-4e"/>
       <use x="72.899994" xlink:href="#NotoSans-Light-44"/>
       <use x="143.999985" xlink:href="#NotoSans-Light-50"/>
      </g>
     </g>
    </g>
    <g id="xtick_4">
     <g id="line2d_4">
      <g>
       <use style="stroke:#000000;stroke-width:0.8;" x="491.5125" xlink:href="#mada74c8086" y="378"/>
      </g>
     </g>
     <g id="text_4">
      <!-- GPO -->
      <defs>
       <path d="M 38.703125 36.40625 
L 64.59375 36.40625 
L 64.59375 3.203125 
Q 59.40625 1.09375 53.59375 0.046875 
Q 47.796875 -1 41 -1 
Q 24 -1 15.09375 8.703125 
Q 6.203125 18.40625 6.203125 35.59375 
Q 6.203125 46.40625 10.546875 54.75 
Q 14.90625 63.09375 23.09375 67.796875 
Q 31.296875 72.5 42.796875 72.5 
Q 48.59375 72.5 53.890625 71.390625 
Q 59.203125 70.296875 63.796875 68.203125 
L 61.40625 63 
Q 52.296875 67.296875 42.40625 67.296875 
Q 33 67.296875 26.25 63.296875 
Q 19.5 59.296875 15.84375 52.140625 
Q 12.203125 45 12.203125 35.59375 
Q 12.203125 20.203125 19.84375 12.140625 
Q 27.5 4.09375 42.203125 4.09375 
Q 47.40625 4.09375 51.453125 4.84375 
Q 55.5 5.59375 58.796875 6.703125 
L 58.796875 31.09375 
L 38.703125 31.09375 
z
" id="NotoSans-Light-47"/>
       <path d="M 70.5 35.796875 
Q 70.5 24.90625 66.890625 16.59375 
Q 63.296875 8.296875 56.140625 3.640625 
Q 49 -1 38.40625 -1 
Q 27.59375 -1 20.4375 3.640625 
Q 13.296875 8.296875 9.75 16.640625 
Q 6.203125 25 6.203125 35.90625 
Q 6.203125 46.796875 9.84375 55 
Q 13.5 63.203125 20.75 67.84375 
Q 28 72.5 38.703125 72.5 
Q 49 72.5 56.046875 68.046875 
Q 63.09375 63.59375 66.796875 55.390625 
Q 70.5 47.203125 70.5 35.796875 
z
M 12.296875 35.796875 
Q 12.296875 26.296875 15.09375 19.140625 
Q 17.90625 12 23.703125 8.046875 
Q 29.5 4.09375 38.40625 4.09375 
Q 47.40625 4.09375 53.15625 8.046875 
Q 58.90625 12 61.65625 19.09375 
Q 64.40625 26.203125 64.40625 35.796875 
Q 64.40625 50.59375 57.953125 58.9375 
Q 51.5 67.296875 38.703125 67.296875 
Q 29.796875 67.296875 23.890625 63.34375 
Q 18 59.40625 15.140625 52.296875 
Q 12.296875 45.203125 12.296875 35.796875 
z
" id="NotoSans-Light-4f"/>
      </defs>
      <g transform="translate(476.944844 395.64)scale(0.14 -0.14)">
       <use xlink:href="#NotoSans-Light-47"/>
       <use x="72.399994" xlink:href="#NotoSans-Light-50"/>
       <use x="131.299988" xlink:href="#NotoSans-Light-4f"/>
      </g>
     </g>
    </g>
    <g id="text_5">
     <!-- Party -->
     <defs>
      <path d="M 27.59375 54.09375 
Q 36.59375 54.09375 41 49.6875 
Q 45.40625 45.296875 45.40625 35.796875 
L 45.40625 0 
L 41.09375 0 
L 40 9 
L 39.796875 9 
Q 37 4.5 32.796875 1.75 
Q 28.59375 -1 21.203125 -1 
Q 13.59375 -1 9.140625 2.796875 
Q 4.703125 6.59375 4.703125 13.90625 
Q 4.703125 21.796875 11.140625 26 
Q 17.59375 30.203125 30.09375 30.703125 
L 39.796875 31.203125 
L 39.796875 34.90625 
Q 39.796875 42.796875 36.640625 46.046875 
Q 33.5 49.296875 27.40625 49.296875 
Q 23.296875 49.296875 19.5 48.25 
Q 15.703125 47.203125 11.90625 45.203125 
L 10.09375 49.796875 
Q 13.796875 51.703125 18.296875 52.890625 
Q 22.796875 54.09375 27.59375 54.09375 
z
M 39.796875 26.796875 
L 30.796875 26.40625 
Q 20.59375 26 15.59375 22.953125 
Q 10.59375 19.90625 10.59375 13.796875 
Q 10.59375 8.90625 13.6875 6.34375 
Q 16.796875 3.796875 22.203125 3.796875 
Q 30.5 3.796875 35.046875 8.5 
Q 39.59375 13.203125 39.796875 21.703125 
z
" id="NotoSans-Light-61"/>
      <path d="M 30.59375 54.09375 
Q 34.796875 54.09375 37.796875 53.203125 
L 37 48 
Q 35.40625 48.40625 33.796875 48.59375 
Q 32.203125 48.796875 30.40625 48.796875 
Q 23 48.796875 18.75 43.4375 
Q 14.5 38.09375 14.5 29.203125 
L 14.5 0 
L 8.796875 0 
L 8.796875 53.203125 
L 13.59375 53.203125 
L 14.203125 43.203125 
L 14.5 43.203125 
Q 16.5 47.703125 20.546875 50.890625 
Q 24.59375 54.09375 30.59375 54.09375 
z
" id="NotoSans-Light-72"/>
      <path d="M 23.796875 3.796875 
Q 26 3.796875 28.046875 4.140625 
Q 30.09375 4.5 31.5 5 
L 31.5 0.40625 
Q 29.90625 -0.203125 27.75 -0.59375 
Q 25.59375 -1 23 -1 
Q 16.40625 -1 12.796875 2.75 
Q 9.203125 6.5 9.203125 14.796875 
L 9.203125 48.59375 
L 1.296875 48.59375 
L 1.296875 51.796875 
L 9.203125 53.59375 
L 11.203125 65.90625 
L 14.796875 65.90625 
L 14.796875 53.203125 
L 31.203125 53.203125 
L 31.203125 48.59375 
L 14.796875 48.59375 
L 14.796875 15 
Q 14.796875 3.796875 23.796875 3.796875 
z
" id="NotoSans-Light-74"/>
      <path d="M 0 53.203125 
L 6.09375 53.203125 
L 18.796875 20.09375 
Q 20.40625 15.703125 21.59375 12.25 
Q 22.796875 8.796875 23.5 6.09375 
L 23.796875 6.09375 
Q 24.5 8.40625 25.703125 12 
Q 26.90625 15.59375 28.5 20 
L 40.90625 53.203125 
L 47 53.203125 
L 23 -9.5 
Q 20.296875 -16.5 16.59375 -20.34375 
Q 12.90625 -24.203125 6.59375 -24.203125 
Q 4.59375 -24.203125 3.09375 -23.890625 
Q 1.59375 -23.59375 0.203125 -23.203125 
L 0.203125 -18.40625 
Q 2.796875 -19.296875 5.90625 -19.296875 
Q 10.09375 -19.296875 12.75 -16.6875 
Q 15.40625 -14.09375 17.40625 -8.796875 
L 20.90625 0.203125 
z
" id="NotoSans-Light-79"/>
     </defs>
     <g transform="translate(297.353125 413.497813)scale(0.14 -0.14)">
      <use xlink:href="#NotoSans-Light-50"/>
      <use x="58.899994" xlink:href="#NotoSans-Light-61"/>
      <use x="112.499985" xlink:href="#NotoSans-Light-72"/>
      <use x="151.899979" xlink:href="#NotoSans-Light-74"/>
      <use x="185.899963" xlink:href="#NotoSans-Light-79"/>
     </g>
    </g>
   </g>
   <g id="matplotlib.axis_2">
    <g id="ytick_1">
     <g id="line2d_5">
      <defs>
       <path d="M 0 0 
L -3.5 0 
" id="m5643220491" style="stroke:#000000;stroke-width:0.8;"/>
      </defs>
      <g>
       <use style="stroke:#000000;stroke-width:0.8;" x="76.5" xlink:href="#m5643220491" y="378"/>
      </g>
     </g>
     <g id="text_6">
      <!-- 0 -->
      <defs>
       <path d="M 51.5 35.90625 
Q 51.5 18 45.953125 8.5 
Q 40.40625 -1 28.5 -1 
Q 17.203125 -1 11.390625 8.390625 
Q 5.59375 17.796875 5.59375 35.90625 
Q 5.59375 46.796875 7.84375 55.046875 
Q 10.09375 63.296875 15.140625 67.890625 
Q 20.203125 72.5 28.59375 72.5 
Q 36.796875 72.5 41.84375 68 
Q 46.90625 63.5 49.203125 55.25 
Q 51.5 47 51.5 35.90625 
z
M 11.296875 35.90625 
Q 11.296875 19.796875 15.4375 11.890625 
Q 19.59375 4 28.5 4 
Q 37.59375 4 41.640625 11.890625 
Q 45.703125 19.796875 45.703125 35.90625 
Q 45.703125 45.796875 44.140625 52.890625 
Q 42.59375 60 38.84375 63.75 
Q 35.09375 67.5 28.59375 67.5 
Q 22.09375 67.5 18.296875 63.703125 
Q 14.5 59.90625 12.890625 52.796875 
Q 11.296875 45.703125 11.296875 35.90625 
z
" id="NotoSans-Light-30"/>
      </defs>
      <g transform="translate(61.506875 383.32)scale(0.14 -0.14)">
       <use xlink:href="#NotoSans-Light-30"/>
      </g>
     </g>
    </g>
    <g id="ytick_2">
     <g id="line2d_6">
      <g>
       <use style="stroke:#000000;stroke-width:0.8;" x="76.5" xlink:href="#m5643220491" y="328.315328"/>
      </g>
     </g>
     <g id="text_7">
      <!-- 5 -->
      <defs>
       <path d="M 27.40625 43.203125 
Q 38.296875 43.203125 44.640625 37.703125 
Q 51 32.203125 51 22.203125 
Q 51 11.40625 44 5.203125 
Q 37 -1 25 -1 
Q 19.40625 -1 14.75 0.09375 
Q 10.09375 1.203125 6.796875 3 
L 6.796875 8.703125 
Q 10.296875 6.59375 15.140625 5.296875 
Q 20 4 25.09375 4 
Q 34.203125 4 39.703125 8.546875 
Q 45.203125 13.09375 45.203125 21.796875 
Q 45.203125 29.59375 40.453125 33.890625 
Q 35.703125 38.203125 26 38.203125 
Q 22.203125 38.203125 18.59375 37.703125 
Q 15 37.203125 12 36.40625 
L 8.90625 38.5 
L 11.796875 71.40625 
L 46.40625 71.40625 
L 46.40625 66.203125 
L 16.59375 66.203125 
L 14.59375 41.59375 
Q 16.703125 42 19.890625 42.59375 
Q 23.09375 43.203125 27.40625 43.203125 
z
" id="NotoSans-Light-35"/>
      </defs>
      <g transform="translate(61.506875 333.635328)scale(0.14 -0.14)">
       <use xlink:href="#NotoSans-Light-35"/>
      </g>
     </g>
    </g>
    <g id="ytick_3">
     <g id="line2d_7">
      <g>
       <use style="stroke:#000000;stroke-width:0.8;" x="76.5" xlink:href="#m5643220491" y="278.630655"/>
      </g>
     </g>
     <g id="text_8">
      <!-- 10 -->
      <defs>
       <path d="M 33.796875 0 
L 28.203125 0 
L 28.203125 53.09375 
Q 28.203125 57.40625 28.203125 60.15625 
Q 28.203125 62.90625 28.40625 65.40625 
Q 27 64 25.796875 63 
Q 24.59375 62 22.59375 60.40625 
L 12.59375 52.796875 
L 9.59375 56.796875 
L 29 71.40625 
L 33.796875 71.40625 
z
" id="NotoSans-Light-31"/>
      </defs>
      <g transform="translate(53.51375 283.950655)scale(0.14 -0.14)">
       <use xlink:href="#NotoSans-Light-31"/>
       <use x="57.099991" xlink:href="#NotoSans-Light-30"/>
      </g>
     </g>
    </g>
    <g id="ytick_4">
     <g id="line2d_8">
      <g>
       <use style="stroke:#000000;stroke-width:0.8;" x="76.5" xlink:href="#m5643220491" y="228.945983"/>
      </g>
     </g>
     <g id="text_9">
      <!-- 15 -->
      <g transform="translate(53.51375 234.265983)scale(0.14 -0.14)">
       <use xlink:href="#NotoSans-Light-31"/>
       <use x="57.099991" xlink:href="#NotoSans-Light-35"/>
      </g>
     </g>
    </g>
    <g id="ytick_5">
     <g id="line2d_9">
      <g>
       <use style="stroke:#000000;stroke-width:0.8;" x="76.5" xlink:href="#m5643220491" y="179.261311"/>
      </g>
     </g>
     <g id="text_10">
      <!-- 20 -->
      <defs>
       <path d="M 50.59375 0 
L 5.40625 0 
L 5.40625 4.796875 
L 25.90625 26.09375 
Q 31 31.40625 34.5 35.59375 
Q 38 39.796875 39.796875 44 
Q 41.59375 48.203125 41.59375 53.40625 
Q 41.59375 60.09375 37.6875 63.75 
Q 33.796875 67.40625 27.203125 67.40625 
Q 22.40625 67.40625 18.203125 65.703125 
Q 14 64 9.90625 60.796875 
L 6.796875 64.796875 
Q 11.203125 68.40625 16.390625 70.40625 
Q 21.59375 72.40625 27.203125 72.40625 
Q 36.40625 72.40625 41.90625 67.296875 
Q 47.40625 62.203125 47.40625 53.59375 
Q 47.40625 47.796875 45.34375 43 
Q 43.296875 38.203125 39.546875 33.59375 
Q 35.796875 29 30.59375 23.796875 
L 12.703125 5.5 
L 12.703125 5.203125 
L 50.59375 5.203125 
z
" id="NotoSans-Light-32"/>
      </defs>
      <g transform="translate(53.51375 184.581311)scale(0.14 -0.14)">
       <use xlink:href="#NotoSans-Light-32"/>
       <use x="57.099991" xlink:href="#NotoSans-Light-30"/>
      </g>
     </g>
    </g>
    <g id="ytick_6">
     <g id="line2d_10">
      <g>
       <use style="stroke:#000000;stroke-width:0.8;" x="76.5" xlink:href="#m5643220491" y="129.576638"/>
      </g>
     </g>
     <g id="text_11">
      <!-- 25 -->
      <g transform="translate(53.51375 134.896638)scale(0.14 -0.14)">
       <use xlink:href="#NotoSans-Light-32"/>
       <use x="57.099991" xlink:href="#NotoSans-Light-35"/>
      </g>
     </g>
    </g>
    <g id="ytick_7">
     <g id="line2d_11">
      <g>
       <use style="stroke:#000000;stroke-width:0.8;" x="76.5" xlink:href="#m5643220491" y="79.891966"/>
      </g>
     </g>
     <g id="text_12">
      <!-- 30 -->
      <defs>
       <path d="M 48.203125 54.90625 
Q 48.203125 47.796875 44 43.296875 
Q 39.796875 38.796875 33.203125 37.59375 
L 33.203125 37.203125 
Q 41.59375 36.203125 46 31.75 
Q 50.40625 27.296875 50.40625 19.796875 
Q 50.40625 10.59375 43.90625 4.796875 
Q 37.40625 -1 24.40625 -1 
Q 18.59375 -1 13.640625 0 
Q 8.703125 1 4.59375 3 
L 4.59375 8.5 
Q 8.703125 6.5 14 5.203125 
Q 19.296875 3.90625 24.40625 3.90625 
Q 34.59375 3.90625 39.5 8.25 
Q 44.40625 12.59375 44.40625 20 
Q 44.40625 27.796875 38.59375 31.140625 
Q 32.796875 34.5 23.09375 34.5 
L 15.5 34.5 
L 15.5 39.5 
L 23.203125 39.5 
Q 31.5 39.5 36.890625 43.34375 
Q 42.296875 47.203125 42.296875 54.59375 
Q 42.296875 60.90625 38.1875 64.15625 
Q 34.09375 67.40625 27.296875 67.40625 
Q 21.59375 67.40625 17.046875 65.703125 
Q 12.5 64 8.09375 61 
L 5.203125 65 
Q 9.296875 68.203125 14.796875 70.296875 
Q 20.296875 72.40625 27.203125 72.40625 
Q 37.203125 72.40625 42.703125 67.65625 
Q 48.203125 62.90625 48.203125 54.90625 
z
" id="NotoSans-Light-33"/>
      </defs>
      <g transform="translate(53.51375 85.211966)scale(0.14 -0.14)">
       <use xlink:href="#NotoSans-Light-33"/>
       <use x="57.099991" xlink:href="#NotoSans-Light-30"/>
      </g>
     </g>
    </g>
    <g id="text_13">
     <!-- Vote Weighted Average of -->
     <defs>
      <path d="M 58.203125 71.40625 
L 32 0 
L 26.203125 0 
L 0 71.40625 
L 6.09375 71.40625 
L 25 19.90625 
Q 26.296875 16.296875 27.34375 13 
Q 28.40625 9.703125 29.09375 6.796875 
Q 29.796875 9.703125 30.796875 12.890625 
Q 31.796875 16.09375 33.203125 20 
L 52 71.40625 
z
" id="NotoSans-Light-56"/>
      <path d="M 53.296875 26.59375 
Q 53.296875 18.296875 50.546875 12.09375 
Q 47.796875 5.90625 42.4375 2.453125 
Q 37.09375 -1 29.40625 -1 
Q 22 -1 16.703125 2.390625 
Q 11.40625 5.796875 8.546875 12 
Q 5.703125 18.203125 5.703125 26.59375 
Q 5.703125 39.59375 12.140625 46.890625 
Q 18.59375 54.203125 29.796875 54.203125 
Q 37.40625 54.203125 42.65625 50.75 
Q 47.90625 47.296875 50.59375 41.09375 
Q 53.296875 34.90625 53.296875 26.59375 
z
M 11.59375 26.59375 
Q 11.59375 16.40625 15.890625 10.15625 
Q 20.203125 3.90625 29.40625 3.90625 
Q 38.703125 3.90625 43.046875 10.15625 
Q 47.40625 16.40625 47.40625 26.59375 
Q 47.40625 33.203125 45.59375 38.296875 
Q 43.796875 43.40625 39.890625 46.296875 
Q 36 49.203125 29.703125 49.203125 
Q 20.59375 49.203125 16.09375 43.203125 
Q 11.59375 37.203125 11.59375 26.59375 
z
" id="NotoSans-Light-6f"/>
      <path d="M 29 54.203125 
Q 35.796875 54.203125 40.390625 51.046875 
Q 45 47.90625 47.296875 42.40625 
Q 49.59375 36.90625 49.59375 29.796875 
L 49.59375 25.796875 
L 11.59375 25.796875 
Q 11.59375 15.296875 16.5 9.640625 
Q 21.40625 4 30.59375 4 
Q 35.59375 4 39.296875 4.796875 
Q 43 5.59375 47.40625 7.59375 
L 47.40625 2.40625 
Q 43.40625 0.59375 39.5 -0.203125 
Q 35.59375 -1 30.40625 -1 
Q 18.5 -1 12.09375 6.296875 
Q 5.703125 13.59375 5.703125 26.203125 
Q 5.703125 34.296875 8.453125 40.640625 
Q 11.203125 47 16.390625 50.59375 
Q 21.59375 54.203125 29 54.203125 
z
M 28.90625 49.40625 
Q 21.59375 49.40625 17.046875 44.5 
Q 12.5 39.59375 11.703125 30.59375 
L 43.59375 30.59375 
Q 43.59375 39 40.046875 44.203125 
Q 36.5 49.40625 28.90625 49.40625 
z
" id="NotoSans-Light-65"/>
      <path id="NotoSans-Light-20"/>
      <path d="M 87.796875 71.40625 
L 68.40625 0 
L 62.59375 0 
L 47.59375 52.5 
Q 45.59375 59.90625 44.59375 64.203125 
Q 44.296875 62.203125 43.640625 59.390625 
Q 43 56.59375 42.09375 53.40625 
L 27.203125 0 
L 21.40625 0 
L 2.296875 71.40625 
L 8.296875 71.40625 
L 21.203125 22.40625 
Q 22.296875 18.203125 23.140625 14.75 
Q 24 11.296875 24.59375 8 
Q 25.203125 11.40625 26 15 
Q 26.796875 18.59375 28 22.703125 
L 41.796875 71.40625 
L 47.59375 71.40625 
L 61.796875 22.40625 
Q 63.203125 18.09375 64 14.546875 
Q 64.796875 11 65.40625 7.796875 
Q 65.796875 11.09375 66.59375 14.546875 
Q 67.40625 18 68.59375 22.296875 
L 81.796875 71.40625 
z
" id="NotoSans-Light-57"/>
      <path d="M 11.59375 72.90625 
Q 15.59375 72.90625 15.59375 68.59375 
Q 15.59375 64.203125 11.59375 64.203125 
Q 7.796875 64.203125 7.796875 68.59375 
Q 7.796875 72.90625 11.59375 72.90625 
z
M 14.40625 53.203125 
L 14.40625 0 
L 8.796875 0 
L 8.796875 53.203125 
z
" id="NotoSans-Light-69"/>
      <path d="M 28.203125 54.203125 
Q 34.5 54.203125 38.640625 51.796875 
Q 42.796875 49.40625 45.296875 45.09375 
L 45.59375 45.09375 
L 46.5 53.203125 
L 51.09375 53.203125 
L 51.09375 -1.703125 
Q 51.09375 -12.203125 45.75 -18.09375 
Q 40.40625 -24 28.203125 -24 
Q 22.203125 -24 17.59375 -23 
Q 13 -22 9.203125 -20.40625 
L 9.203125 -14.90625 
Q 13 -16.796875 17.84375 -17.9375 
Q 22.703125 -19.09375 28.40625 -19.09375 
Q 37.09375 -19.09375 41.25 -14.5 
Q 45.40625 -9.90625 45.40625 -2 
L 45.40625 1.09375 
Q 45.40625 3.203125 45.5 5.296875 
Q 45.59375 7.40625 45.703125 9.40625 
L 45.40625 9.40625 
Q 43.203125 4.203125 38.59375 1.59375 
Q 34 -1 27.59375 -1 
Q 17.203125 -1 11.453125 6 
Q 5.703125 13 5.703125 26.203125 
Q 5.703125 39.09375 11.453125 46.640625 
Q 17.203125 54.203125 28.203125 54.203125 
z
M 28.796875 49.203125 
Q 20.203125 49.203125 15.890625 43.140625 
Q 11.59375 37.09375 11.59375 26.09375 
Q 11.59375 15.203125 15.84375 9.5 
Q 20.09375 3.796875 28.203125 3.796875 
Q 34.796875 3.796875 38.546875 6.5 
Q 42.296875 9.203125 43.890625 13.890625 
Q 45.5 18.59375 45.5 24.59375 
L 45.5 28 
Q 45.5 38.203125 41.75 43.703125 
Q 38 49.203125 28.796875 49.203125 
z
" id="NotoSans-Light-67"/>
      <path d="M 14.40625 76 
L 14.40625 51.59375 
Q 14.40625 47.59375 14.09375 44 
L 14.5 44 
Q 16.5 48.40625 21.09375 51.296875 
Q 25.703125 54.203125 32.5 54.203125 
Q 41.59375 54.203125 46.4375 49.5 
Q 51.296875 44.796875 51.296875 34.796875 
L 51.296875 0 
L 45.59375 0 
L 45.59375 34.40625 
Q 45.59375 42 42.140625 45.59375 
Q 38.703125 49.203125 32 49.203125 
Q 14.40625 49.203125 14.40625 29 
L 14.40625 0 
L 8.796875 0 
L 8.796875 76 
z
" id="NotoSans-Light-68"/>
      <path d="M 27.90625 -1 
Q 17.203125 -1 11.453125 5.84375 
Q 5.703125 12.703125 5.703125 26 
Q 5.703125 39.796875 11.75 47 
Q 17.796875 54.203125 28.40625 54.203125 
Q 35.09375 54.203125 39.296875 51.296875 
Q 43.5 48.40625 45.5 44 
L 45.90625 44 
Q 45.796875 46.40625 45.640625 49.296875 
Q 45.5 52.203125 45.5 54.40625 
L 45.5 76 
L 51.203125 76 
L 51.203125 0 
L 46.59375 0 
L 45.796875 9.203125 
L 45.5 9.203125 
Q 43.40625 5 39.203125 2 
Q 35 -1 27.90625 -1 
z
M 28.59375 3.90625 
Q 37.796875 3.90625 41.6875 9.5 
Q 45.59375 15.09375 45.59375 25.59375 
L 45.59375 26.59375 
Q 45.59375 37.59375 41.6875 43.4375 
Q 37.796875 49.296875 29 49.296875 
Q 20.40625 49.296875 16 43.25 
Q 11.59375 37.203125 11.59375 26 
Q 11.59375 15.09375 15.796875 9.5 
Q 20 3.90625 28.59375 3.90625 
z
" id="NotoSans-Light-64"/>
      <path d="M 54.703125 0 
L 45.203125 24.59375 
L 15.59375 24.59375 
L 5.90625 0 
L 0 0 
L 28 71.59375 
L 33.40625 71.59375 
L 60.796875 0 
z
M 43.40625 29.796875 
L 33.796875 55.59375 
Q 33.40625 57 32.40625 60 
Q 31.40625 63 30.59375 65.296875 
Q 29.796875 62.703125 28.890625 60.046875 
Q 28 57.40625 27.40625 55.5 
L 17.5 29.796875 
z
" id="NotoSans-Light-41"/>
      <path d="M 20.40625 0 
L 0 53.203125 
L 6 53.203125 
L 19.203125 17.90625 
Q 20.5 14.59375 21.546875 11.390625 
Q 22.59375 8.203125 23.203125 5.703125 
L 23.59375 5.703125 
Q 24.296875 8.203125 25.34375 11.453125 
Q 26.40625 14.703125 27.59375 17.90625 
L 40.796875 53.203125 
L 46.90625 53.203125 
L 26.5 0 
z
" id="NotoSans-Light-76"/>
      <path d="M 29.5 48.59375 
L 16.796875 48.59375 
L 16.796875 0 
L 11.09375 0 
L 11.09375 48.59375 
L 1.296875 48.59375 
L 1.296875 51.703125 
L 11.09375 53.40625 
L 11.09375 58.59375 
Q 11.09375 67.796875 15.046875 72.140625 
Q 19 76.5 27 76.5 
Q 29.796875 76.5 32.09375 76.046875 
Q 34.40625 75.59375 36.296875 75 
L 35 70.203125 
Q 33.203125 70.796875 31.140625 71.1875 
Q 29.09375 71.59375 27 71.59375 
Q 21.59375 71.59375 19.1875 68.546875 
Q 16.796875 65.5 16.796875 58.703125 
L 16.796875 53.203125 
L 29.5 53.203125 
z
" id="NotoSans-Light-66"/>
     </defs>
     <g transform="translate(30.02575 297.684062)rotate(-90)scale(0.14 -0.14)">
      <use xlink:href="#NotoSans-Light-56"/>
      <use x="58.199997" xlink:href="#NotoSans-Light-6f"/>
      <use x="117.199982" xlink:href="#NotoSans-Light-74"/>
      <use x="151.199966" xlink:href="#NotoSans-Light-65"/>
      <use x="206.399963" xlink:href="#NotoSans-Light-20"/>
      <use x="232.399948" xlink:href="#NotoSans-Light-57"/>
      <use x="322.399933" xlink:href="#NotoSans-Light-65"/>
      <use x="377.59993" xlink:href="#NotoSans-Light-69"/>
      <use x="400.799927" xlink:href="#NotoSans-Light-67"/>
      <use x="460.699921" xlink:href="#NotoSans-Light-68"/>
      <use x="520.299911" xlink:href="#NotoSans-Light-74"/>
      <use x="554.299896" xlink:href="#NotoSans-Light-65"/>
      <use x="609.499893" xlink:href="#NotoSans-Light-64"/>
      <use x="669.399887" xlink:href="#NotoSans-Light-20"/>
      <use x="695.399872" xlink:href="#NotoSans-Light-41"/>
      <use x="756.19986" xlink:href="#NotoSans-Light-76"/>
      <use x="803.099854" xlink:href="#NotoSans-Light-65"/>
      <use x="858.29985" xlink:href="#NotoSans-Light-72"/>
      <use x="897.699844" xlink:href="#NotoSans-Light-61"/>
      <use x="951.299835" xlink:href="#NotoSans-Light-67"/>
      <use x="1011.199829" xlink:href="#NotoSans-Light-65"/>
      <use x="1066.399826" xlink:href="#NotoSans-Light-20"/>
      <use x="1092.399811" xlink:href="#NotoSans-Light-6f"/>
      <use x="1151.399796" xlink:href="#NotoSans-Light-66"/>
     </g>
     <!-- Immigrant Percentage -->
     <defs>
      <path d="M 64.40625 54.203125 
Q 72.296875 54.203125 76.75 49.703125 
Q 81.203125 45.203125 81.203125 35.5 
L 81.203125 0 
L 75.59375 0 
L 75.59375 35.203125 
Q 75.59375 42.40625 72.390625 45.796875 
Q 69.203125 49.203125 63.59375 49.203125 
Q 56 49.203125 51.890625 44.75 
Q 47.796875 40.296875 47.796875 31 
L 47.796875 0 
L 42.203125 0 
L 42.203125 35.203125 
Q 42.203125 42.40625 39 45.796875 
Q 35.796875 49.203125 30.203125 49.203125 
Q 22.59375 49.203125 18.5 44.546875 
Q 14.40625 39.90625 14.40625 30.203125 
L 14.40625 0 
L 8.796875 0 
L 8.796875 53.203125 
L 13.40625 53.203125 
L 14.203125 44.796875 
L 14.59375 44.796875 
Q 16.59375 48.703125 20.640625 51.453125 
Q 24.703125 54.203125 31 54.203125 
Q 36.796875 54.203125 40.796875 51.703125 
Q 44.796875 49.203125 46.40625 44.203125 
L 46.796875 44.203125 
Q 49 49 53.59375 51.59375 
Q 58.203125 54.203125 64.40625 54.203125 
z
" id="NotoSans-Light-6d"/>
      <path d="M 32.59375 54.203125 
Q 41.703125 54.203125 46.5 49.5 
Q 51.296875 44.796875 51.296875 34.796875 
L 51.296875 0 
L 45.59375 0 
L 45.59375 34.40625 
Q 45.59375 42 42.140625 45.59375 
Q 38.703125 49.203125 32 49.203125 
Q 14.40625 49.203125 14.40625 29 
L 14.40625 0 
L 8.796875 0 
L 8.796875 53.203125 
L 13.40625 53.203125 
L 14.203125 44 
L 14.59375 44 
Q 16.703125 48.40625 21.25 51.296875 
Q 25.796875 54.203125 32.59375 54.203125 
z
" id="NotoSans-Light-6e"/>
      <path d="M 30.09375 -1 
Q 18.40625 -1 12.046875 6.140625 
Q 5.703125 13.296875 5.703125 26.296875 
Q 5.703125 35.203125 8.890625 41.453125 
Q 12.09375 47.703125 17.84375 50.953125 
Q 23.59375 54.203125 31.203125 54.203125 
Q 35.09375 54.203125 38.4375 53.5 
Q 41.796875 52.796875 44.40625 51.59375 
L 42.796875 46.59375 
Q 37.203125 49.09375 31.203125 49.09375 
Q 21.796875 49.09375 16.6875 43 
Q 11.59375 36.90625 11.59375 26.40625 
Q 11.59375 16.40625 16.09375 10.203125 
Q 20.59375 4 30 4 
Q 34 4 37.5 4.796875 
Q 41 5.59375 43.796875 6.90625 
L 43.796875 1.796875 
Q 41.203125 0.5 37.796875 -0.25 
Q 34.40625 -1 30.09375 -1 
z
" id="NotoSans-Light-63"/>
     </defs>
     <g transform="translate(46.15375 286.615312)rotate(-90)scale(0.14 -0.14)">
      <use xlink:href="#NotoSans-Light-49"/>
      <use x="31.099991" xlink:href="#NotoSans-Light-6d"/>
      <use x="120.499985" xlink:href="#NotoSans-Light-6d"/>
      <use x="209.899979" xlink:href="#NotoSans-Light-69"/>
      <use x="233.099976" xlink:href="#NotoSans-Light-67"/>
      <use x="292.999969" xlink:href="#NotoSans-Light-72"/>
      <use x="332.399963" xlink:href="#NotoSans-Light-61"/>
      <use x="385.999954" xlink:href="#NotoSans-Light-6e"/>
      <use x="445.599945" xlink:href="#NotoSans-Light-74"/>
      <use x="479.59993" xlink:href="#NotoSans-Light-20"/>
      <use x="505.599915" xlink:href="#NotoSans-Light-50"/>
      <use x="564.499908" xlink:href="#NotoSans-Light-65"/>
      <use x="619.699905" xlink:href="#NotoSans-Light-72"/>
      <use x="659.099899" xlink:href="#NotoSans-Light-63"/>
      <use x="706.69989" xlink:href="#NotoSans-Light-65"/>
      <use x="761.899887" xlink:href="#NotoSans-Light-6e"/>
      <use x="821.499878" xlink:href="#NotoSans-Light-74"/>
      <use x="855.499863" xlink:href="#NotoSans-Light-61"/>
      <use x="909.099854" xlink:href="#NotoSans-Light-67"/>
      <use x="968.999847" xlink:href="#NotoSans-Light-65"/>
     </g>
    </g>
   </g>
   <g id="patch_7">
    <path d="M 76.5 378 
L 76.5 51.84 
" style="fill:none;stroke:#000000;stroke-linecap:square;stroke-linejoin:miter;stroke-width:0.8;"/>
   </g>
   <g id="patch_8">
    <path d="M 76.5 378 
L 550.8 378 
" style="fill:none;stroke:#000000;stroke-linecap:square;stroke-linejoin:miter;stroke-width:0.8;"/>
   </g>
   <g id="text_14">
    <!-- 31.26 -->
    <defs>
     <path d="M 51.09375 55.40625 
Q 51.09375 48 46.640625 43.59375 
Q 42.203125 39.203125 35.703125 37.59375 
L 35.703125 37.296875 
Q 44.203125 36.203125 48.703125 32 
Q 53.203125 27.796875 53.203125 20.796875 
Q 53.203125 14.59375 50.140625 9.640625 
Q 47.09375 4.703125 40.75 1.84375 
Q 34.40625 -1 24.40625 -1 
Q 12.796875 -1 3.796875 2.90625 
L 3.796875 15.703125 
Q 8.40625 13.40625 13.40625 12.203125 
Q 18.40625 11 22.796875 11 
Q 30.90625 11 34.15625 13.796875 
Q 37.40625 16.59375 37.40625 21.703125 
Q 37.40625 24.59375 35.90625 26.6875 
Q 34.40625 28.796875 30.65625 29.84375 
Q 26.90625 30.90625 20.203125 30.90625 
L 14.796875 30.90625 
L 14.796875 42.5 
L 20.296875 42.5 
Q 26.90625 42.5 30.34375 43.75 
Q 33.796875 45 35.046875 47.140625 
Q 36.296875 49.296875 36.296875 52.09375 
Q 36.296875 55.90625 33.9375 58.046875 
Q 31.59375 60.203125 26.09375 60.203125 
Q 21 60.203125 17.203125 58.390625 
Q 13.40625 56.59375 10.90625 55 
L 3.90625 65.40625 
Q 8.09375 68.40625 13.75 70.40625 
Q 19.40625 72.40625 27.203125 72.40625 
Q 38.203125 72.40625 44.640625 67.953125 
Q 51.09375 63.5 51.09375 55.40625 
z
" id="NotoSans-Bold-33"/>
     <path d="M 41.296875 0 
L 26.203125 0 
L 26.203125 41.296875 
Q 26.203125 43.796875 26.296875 48.046875 
Q 26.40625 52.296875 26.59375 55.5 
Q 26.09375 54.90625 24.4375 53.34375 
Q 22.796875 51.796875 21.40625 50.59375 
L 13.203125 44 
L 5.90625 53.09375 
L 28.90625 71.40625 
L 41.296875 71.40625 
z
" id="NotoSans-Bold-31"/>
     <path d="M 5.703125 7 
Q 5.703125 11.59375 8.203125 13.4375 
Q 10.703125 15.296875 14.296875 15.296875 
Q 17.796875 15.296875 20.296875 13.4375 
Q 22.796875 11.59375 22.796875 7 
Q 22.796875 2.59375 20.296875 0.640625 
Q 17.796875 -1.296875 14.296875 -1.296875 
Q 10.703125 -1.296875 8.203125 0.640625 
Q 5.703125 2.59375 5.703125 7 
z
" id="NotoSans-Bold-2e"/>
     <path d="M 53.90625 0 
L 4 0 
L 4 10.5 
L 21.90625 28.59375 
Q 27.296875 34.203125 30.59375 37.953125 
Q 33.90625 41.703125 35.40625 44.75 
Q 36.90625 47.796875 36.90625 51.296875 
Q 36.90625 55.59375 34.546875 57.6875 
Q 32.203125 59.796875 28.203125 59.796875 
Q 24.09375 59.796875 20.1875 57.890625 
Q 16.296875 56 12 52.5 
L 3.796875 62.203125 
Q 6.796875 64.796875 10.296875 67.140625 
Q 13.796875 69.5 18.34375 70.953125 
Q 22.90625 72.40625 29.296875 72.40625 
Q 36.296875 72.40625 41.34375 69.84375 
Q 46.40625 67.296875 49.15625 62.9375 
Q 51.90625 58.59375 51.90625 53.09375 
Q 51.90625 47.203125 49.546875 42.296875 
Q 47.203125 37.40625 42.75 32.59375 
Q 38.296875 27.796875 32 22 
L 22.796875 13.40625 
L 22.796875 12.703125 
L 53.90625 12.703125 
z
" id="NotoSans-Bold-32"/>
     <path d="M 3.5 30.296875 
Q 3.5 36.40625 4.390625 42.453125 
Q 5.296875 48.5 7.546875 53.84375 
Q 9.796875 59.203125 13.84375 63.34375 
Q 17.90625 67.5 24.15625 69.84375 
Q 30.40625 72.203125 39.296875 72.203125 
Q 41.40625 72.203125 44.203125 72.046875 
Q 47 71.90625 48.90625 71.5 
L 48.90625 59.40625 
Q 47 59.796875 44.75 60.09375 
Q 42.5 60.40625 40.296875 60.40625 
Q 31.40625 60.40625 26.546875 57.59375 
Q 21.703125 54.796875 19.703125 49.75 
Q 17.703125 44.703125 17.40625 38.09375 
L 18 38.09375 
Q 20 41.59375 23.75 44 
Q 27.5 46.40625 33.5 46.40625 
Q 42.90625 46.40625 48.40625 40.5 
Q 53.90625 34.59375 53.90625 23.796875 
Q 53.90625 12.203125 47.34375 5.59375 
Q 40.796875 -1 29.59375 -1 
Q 22.296875 -1 16.390625 2.34375 
Q 10.5 5.703125 7 12.640625 
Q 3.5 19.59375 3.5 30.296875 
z
M 29.296875 11.09375 
Q 33.703125 11.09375 36.5 14.140625 
Q 39.296875 17.203125 39.296875 23.59375 
Q 39.296875 28.796875 36.890625 31.796875 
Q 34.5 34.796875 29.59375 34.796875 
Q 26.203125 34.796875 23.75 33.296875 
Q 21.296875 31.796875 19.890625 29.546875 
Q 18.5 27.296875 18.5 24.90625 
Q 18.5 21.59375 19.703125 18.390625 
Q 20.90625 15.203125 23.34375 13.140625 
Q 25.796875 11.09375 29.296875 11.09375 
z
" id="NotoSans-Bold-36"/>
    </defs>
    <g style="fill:#ffffff;" transform="translate(117.775625 85.491429)scale(0.14 -0.14)">
     <use xlink:href="#NotoSans-Bold-33"/>
     <use x="57.199997" xlink:href="#NotoSans-Bold-31"/>
     <use x="114.399994" xlink:href="#NotoSans-Bold-2e"/>
     <use x="142.899979" xlink:href="#NotoSans-Bold-32"/>
     <use x="200.099976" xlink:href="#NotoSans-Bold-36"/>
    </g>
   </g>
   <g id="text_15">
    <!-- 26.92 -->
    <defs>
     <path d="M 53.59375 40.90625 
Q 53.59375 34.796875 52.6875 28.75 
Q 51.796875 22.703125 49.546875 17.34375 
Q 47.296875 12 43.25 7.84375 
Q 39.203125 3.703125 32.953125 1.34375 
Q 26.703125 -1 17.796875 -1 
Q 15.703125 -1 12.890625 -0.84375 
Q 10.09375 -0.703125 8.203125 -0.296875 
L 8.203125 11.796875 
Q 10.203125 11.40625 12.390625 11.09375 
Q 14.59375 10.796875 16.796875 10.796875 
Q 25.703125 10.796875 30.546875 13.59375 
Q 35.40625 16.40625 37.40625 21.453125 
Q 39.40625 26.5 39.703125 33.09375 
L 39.09375 33.09375 
Q 37 29.59375 33.546875 27.1875 
Q 30.09375 24.796875 23.296875 24.796875 
Q 14.203125 24.796875 8.703125 30.6875 
Q 3.203125 36.59375 3.203125 47.40625 
Q 3.203125 59 9.75 65.59375 
Q 16.296875 72.203125 27.5 72.203125 
Q 34.796875 72.203125 40.6875 68.84375 
Q 46.59375 65.5 50.09375 58.546875 
Q 53.59375 51.59375 53.59375 40.90625 
z
M 27.796875 60.09375 
Q 23.40625 60.09375 20.59375 57.046875 
Q 17.796875 54 17.796875 47.59375 
Q 17.796875 42.40625 20.1875 39.40625 
Q 22.59375 36.40625 27.5 36.40625 
Q 30.796875 36.40625 33.296875 37.90625 
Q 35.796875 39.40625 37.1875 41.65625 
Q 38.59375 43.90625 38.59375 46.296875 
Q 38.59375 49.59375 37.390625 52.796875 
Q 36.203125 56 33.796875 58.046875 
Q 31.40625 60.09375 27.796875 60.09375 
z
" id="NotoSans-Bold-39"/>
    </defs>
    <g style="fill:#ffffff;" transform="translate(236.350625 128.617724)scale(0.14 -0.14)">
     <use xlink:href="#NotoSans-Bold-32"/>
     <use x="57.199997" xlink:href="#NotoSans-Bold-36"/>
     <use x="114.399994" xlink:href="#NotoSans-Bold-2e"/>
     <use x="142.899979" xlink:href="#NotoSans-Bold-39"/>
     <use x="200.099976" xlink:href="#NotoSans-Bold-32"/>
    </g>
   </g>
   <g id="text_16">
    <!-- 26.12 -->
    <g style="fill:#ffffff;" transform="translate(354.925625 136.567272)scale(0.14 -0.14)">
     <use xlink:href="#NotoSans-Bold-32"/>
     <use x="57.199997" xlink:href="#NotoSans-Bold-36"/>
     <use x="114.399994" xlink:href="#NotoSans-Bold-2e"/>
     <use x="142.899979" xlink:href="#NotoSans-Bold-31"/>
     <use x="200.099976" xlink:href="#NotoSans-Bold-32"/>
    </g>
   </g>
   <g id="text_17">
    <!-- 23.3 -->
    <g style="fill:#ffffff;" transform="translate(477.504844 164.589427)scale(0.14 -0.14)">
     <use xlink:href="#NotoSans-Bold-32"/>
     <use x="57.199997" xlink:href="#NotoSans-Bold-33"/>
     <use x="114.399994" xlink:href="#NotoSans-Bold-2e"/>
     <use x="142.899979" xlink:href="#NotoSans-Bold-33"/>
    </g>
   </g>
   <g id="text_18">
    <!-- 2018 Ontario Provincial Election -->
    <defs>
     <path d="M 28.40625 72.40625 
Q 37.59375 72.40625 43.25 68.046875 
Q 48.90625 63.703125 48.90625 55.703125 
Q 48.90625 49.203125 44.65625 45.046875 
Q 40.40625 40.90625 33.796875 38 
Q 41.59375 34.796875 46.390625 30.296875 
Q 51.203125 25.796875 51.203125 18.296875 
Q 51.203125 12.203125 48.25 7.890625 
Q 45.296875 3.59375 40.140625 1.296875 
Q 35 -1 28.40625 -1 
Q 17.90625 -1 11.75 4.09375 
Q 5.59375 9.203125 5.59375 17.796875 
Q 5.59375 23 7.796875 26.75 
Q 10 30.5 13.796875 33.140625 
Q 17.59375 35.796875 22.40625 37.703125 
Q 18.40625 39.59375 15.15625 41.9375 
Q 11.90625 44.296875 9.953125 47.640625 
Q 8 51 8 55.59375 
Q 8 60.796875 10.640625 64.59375 
Q 13.296875 68.40625 17.890625 70.40625 
Q 22.5 72.40625 28.40625 72.40625 
z
M 28.40625 67.59375 
Q 22 67.59375 17.796875 64.390625 
Q 13.59375 61.203125 13.59375 55.40625 
Q 13.59375 49.5 17.84375 46.140625 
Q 22.09375 42.796875 28.796875 40.296875 
Q 35.5 43.09375 39.34375 46.5 
Q 43.203125 49.90625 43.203125 55.59375 
Q 43.203125 61.40625 39.203125 64.5 
Q 35.203125 67.59375 28.40625 67.59375 
z
M 11.296875 17.796875 
Q 11.296875 11.5 15.75 7.59375 
Q 20.203125 3.703125 28.203125 3.703125 
Q 36.203125 3.703125 40.890625 7.546875 
Q 45.59375 11.40625 45.59375 18.203125 
Q 45.59375 24 41.4375 27.84375 
Q 37.296875 31.703125 29.796875 34.40625 
L 27.59375 35.203125 
Q 20.203125 32.5 15.75 28.546875 
Q 11.296875 24.59375 11.296875 17.796875 
z
" id="NotoSans-Light-38"/>
     <path d="M 14.5 0 
L 8.796875 0 
L 8.796875 76 
L 14.5 76 
z
" id="NotoSans-Light-6c"/>
     <path d="M 49.203125 0 
L 10 0 
L 10 71.40625 
L 49.203125 71.40625 
L 49.203125 66.203125 
L 15.796875 66.203125 
L 15.796875 40 
L 47.296875 40 
L 47.296875 34.90625 
L 15.796875 34.90625 
L 15.796875 5.203125 
L 49.203125 5.203125 
z
" id="NotoSans-Light-45"/>
    </defs>
    <g transform="translate(192.381563 45.84)scale(0.168 -0.168)">
     <use xlink:href="#NotoSans-Light-32"/>
     <use x="57.099991" xlink:href="#NotoSans-Light-30"/>
     <use x="114.199982" xlink:href="#NotoSans-Light-31"/>
     <use x="171.299973" xlink:href="#NotoSans-Light-38"/>
     <use x="228.399963" xlink:href="#NotoSans-Light-20"/>
     <use x="254.399948" xlink:href="#NotoSans-Light-4f"/>
     <use x="331.199936" xlink:href="#NotoSans-Light-6e"/>
     <use x="390.799927" xlink:href="#NotoSans-Light-74"/>
     <use x="424.799911" xlink:href="#NotoSans-Light-61"/>
     <use x="478.399902" xlink:href="#NotoSans-Light-72"/>
     <use x="517.799896" xlink:href="#NotoSans-Light-69"/>
     <use x="540.999893" xlink:href="#NotoSans-Light-6f"/>
     <use x="599.999878" xlink:href="#NotoSans-Light-20"/>
     <use x="625.999863" xlink:href="#NotoSans-Light-50"/>
     <use x="684.899857" xlink:href="#NotoSans-Light-72"/>
     <use x="724.29985" xlink:href="#NotoSans-Light-6f"/>
     <use x="783.299835" xlink:href="#NotoSans-Light-76"/>
     <use x="830.199829" xlink:href="#NotoSans-Light-69"/>
     <use x="853.399826" xlink:href="#NotoSans-Light-6e"/>
     <use x="912.999817" xlink:href="#NotoSans-Light-63"/>
     <use x="960.599808" xlink:href="#NotoSans-Light-69"/>
     <use x="983.799805" xlink:href="#NotoSans-Light-61"/>
     <use x="1037.399796" xlink:href="#NotoSans-Light-6c"/>
     <use x="1060.599792" xlink:href="#NotoSans-Light-20"/>
     <use x="1086.599777" xlink:href="#NotoSans-Light-45"/>
     <use x="1141.899765" xlink:href="#NotoSans-Light-6c"/>
     <use x="1165.099762" xlink:href="#NotoSans-Light-65"/>
     <use x="1220.299759" xlink:href="#NotoSans-Light-63"/>
     <use x="1267.89975" xlink:href="#NotoSans-Light-74"/>
     <use x="1301.899734" xlink:href="#NotoSans-Light-69"/>
     <use x="1325.099731" xlink:href="#NotoSans-Light-6f"/>
     <use x="1384.099716" xlink:href="#NotoSans-Light-6e"/>
    </g>
   </g>
  </g>
  <g id="text_19">
   <!-- Average Immigrant Percentage of Riding Population by Party -->
   <defs>
    <path d="M 27.796875 71.40625 
Q 40.59375 71.40625 47.046875 66.90625 
Q 53.5 62.40625 53.5 51.796875 
Q 53.5 43.59375 49.140625 39 
Q 44.796875 34.40625 38.296875 32.40625 
L 57.90625 0 
L 51 0 
L 32.796875 30.796875 
L 15.796875 30.796875 
L 15.796875 0 
L 10 0 
L 10 71.40625 
z
M 27.296875 66.203125 
L 15.796875 66.203125 
L 15.796875 35.796875 
L 29.296875 35.796875 
Q 38 35.796875 42.75 39.890625 
Q 47.5 44 47.5 51.59375 
Q 47.5 59.796875 42.546875 63 
Q 37.59375 66.203125 27.296875 66.203125 
z
" id="NotoSans-Light-52"/>
    <path d="M 32.59375 54.203125 
Q 42.796875 54.203125 48.546875 47.34375 
Q 54.296875 40.5 54.296875 26.90625 
Q 54.296875 13.296875 48.34375 6.140625 
Q 42.40625 -1 32.09375 -1 
Q 25 -1 20.75 2 
Q 16.5 5 14.5 9.203125 
L 14.09375 9.203125 
Q 14.203125 6.59375 14.34375 3.6875 
Q 14.5 0.796875 14.5 -1.796875 
L 14.5 -23.59375 
L 8.796875 -23.59375 
L 8.796875 53.203125 
L 13.5 53.203125 
L 14.203125 43.203125 
L 14.5 43.203125 
Q 16.5 47.59375 20.84375 50.890625 
Q 25.203125 54.203125 32.59375 54.203125 
z
M 31.796875 49.203125 
Q 23 49.203125 18.796875 43.640625 
Q 14.59375 38.09375 14.5 27.59375 
L 14.5 26.59375 
Q 14.5 15.203125 18.640625 9.546875 
Q 22.796875 3.90625 31.40625 3.90625 
Q 39.59375 3.90625 44 10 
Q 48.40625 16.09375 48.40625 27 
Q 48.40625 37.703125 44.25 43.453125 
Q 40.09375 49.203125 31.796875 49.203125 
z
" id="NotoSans-Light-70"/>
    <path d="M 50.703125 53.203125 
L 50.703125 0 
L 46 0 
L 45.203125 9.09375 
L 44.90625 9.09375 
Q 42.703125 4.796875 38.140625 1.890625 
Q 33.59375 -1 26.796875 -1 
Q 8 -1 8 18.40625 
L 8 53.203125 
L 13.796875 53.203125 
L 13.796875 18.796875 
Q 13.796875 11.203125 17.1875 7.546875 
Q 20.59375 3.90625 27.40625 3.90625 
Q 45 3.90625 45 24.203125 
L 45 53.203125 
z
" id="NotoSans-Light-75"/>
    <path d="M 14.40625 76 
L 14.40625 55 
Q 14.40625 52.203125 14.296875 48.890625 
Q 14.203125 45.59375 14 43.59375 
L 14.40625 43.59375 
Q 16.40625 48.09375 20.953125 51.140625 
Q 25.5 54.203125 32.5 54.203125 
Q 42.796875 54.203125 48.5 47.25 
Q 54.203125 40.296875 54.203125 26.703125 
Q 54.203125 14.09375 48.453125 6.546875 
Q 42.703125 -1 31.703125 -1 
Q 25 -1 20.75 1.796875 
Q 16.5 4.59375 14.5 8.59375 
L 14 8.59375 
L 13 0 
L 8.703125 0 
L 8.703125 76 
z
M 31.796875 49.296875 
Q 22.5 49.296875 18.453125 43.5 
Q 14.40625 37.703125 14.40625 26.703125 
L 14.40625 26 
Q 14.40625 15.203125 18.25 9.546875 
Q 22.09375 3.90625 31 3.90625 
Q 39.59375 3.90625 43.9375 9.84375 
Q 48.296875 15.796875 48.296875 26.796875 
Q 48.296875 49.296875 31.796875 49.296875 
z
" id="NotoSans-Light-62"/>
   </defs>
   <g transform="translate(2.776406 25.47)scale(0.22 -0.22)">
    <use xlink:href="#NotoSans-Light-41"/>
    <use x="60.799988" xlink:href="#NotoSans-Light-76"/>
    <use x="107.699982" xlink:href="#NotoSans-Light-65"/>
    <use x="162.899979" xlink:href="#NotoSans-Light-72"/>
    <use x="202.299973" xlink:href="#NotoSans-Light-61"/>
    <use x="255.899963" xlink:href="#NotoSans-Light-67"/>
    <use x="315.799957" xlink:href="#NotoSans-Light-65"/>
    <use x="370.999954" xlink:href="#NotoSans-Light-20"/>
    <use x="396.999939" xlink:href="#NotoSans-Light-49"/>
    <use x="428.09993" xlink:href="#NotoSans-Light-6d"/>
    <use x="517.499924" xlink:href="#NotoSans-Light-6d"/>
    <use x="606.899918" xlink:href="#NotoSans-Light-69"/>
    <use x="630.099915" xlink:href="#NotoSans-Light-67"/>
    <use x="689.999908" xlink:href="#NotoSans-Light-72"/>
    <use x="729.399902" xlink:href="#NotoSans-Light-61"/>
    <use x="782.999893" xlink:href="#NotoSans-Light-6e"/>
    <use x="842.599884" xlink:href="#NotoSans-Light-74"/>
    <use x="876.599869" xlink:href="#NotoSans-Light-20"/>
    <use x="902.599854" xlink:href="#NotoSans-Light-50"/>
    <use x="961.499847" xlink:href="#NotoSans-Light-65"/>
    <use x="1016.699844" xlink:href="#NotoSans-Light-72"/>
    <use x="1056.099838" xlink:href="#NotoSans-Light-63"/>
    <use x="1103.699829" xlink:href="#NotoSans-Light-65"/>
    <use x="1158.899826" xlink:href="#NotoSans-Light-6e"/>
    <use x="1218.499817" xlink:href="#NotoSans-Light-74"/>
    <use x="1252.499802" xlink:href="#NotoSans-Light-61"/>
    <use x="1306.099792" xlink:href="#NotoSans-Light-67"/>
    <use x="1365.999786" xlink:href="#NotoSans-Light-65"/>
    <use x="1421.199783" xlink:href="#NotoSans-Light-20"/>
    <use x="1447.199768" xlink:href="#NotoSans-Light-6f"/>
    <use x="1506.199753" xlink:href="#NotoSans-Light-66"/>
    <use x="1537.099747" xlink:href="#NotoSans-Light-20"/>
    <use x="1563.099731" xlink:href="#NotoSans-Light-52"/>
    <use x="1623.099716" xlink:href="#NotoSans-Light-69"/>
    <use x="1646.299713" xlink:href="#NotoSans-Light-64"/>
    <use x="1706.199707" xlink:href="#NotoSans-Light-69"/>
    <use x="1729.399704" xlink:href="#NotoSans-Light-6e"/>
    <use x="1788.999695" xlink:href="#NotoSans-Light-67"/>
    <use x="1848.899689" xlink:href="#NotoSans-Light-20"/>
    <use x="1874.899673" xlink:href="#NotoSans-Light-50"/>
    <use x="1933.799667" xlink:href="#NotoSans-Light-6f"/>
    <use x="1992.799652" xlink:href="#NotoSans-Light-70"/>
    <use x="2052.699646" xlink:href="#NotoSans-Light-75"/>
    <use x="2112.299637" xlink:href="#NotoSans-Light-6c"/>
    <use x="2135.499634" xlink:href="#NotoSans-Light-61"/>
    <use x="2189.099625" xlink:href="#NotoSans-Light-74"/>
    <use x="2223.099609" xlink:href="#NotoSans-Light-69"/>
    <use x="2246.299606" xlink:href="#NotoSans-Light-6f"/>
    <use x="2305.299591" xlink:href="#NotoSans-Light-6e"/>
    <use x="2364.899582" xlink:href="#NotoSans-Light-20"/>
    <use x="2390.899567" xlink:href="#NotoSans-Light-62"/>
    <use x="2450.799561" xlink:href="#NotoSans-Light-79"/>
    <use x="2497.699554" xlink:href="#NotoSans-Light-20"/>
    <use x="2523.699539" xlink:href="#NotoSans-Light-50"/>
    <use x="2582.599533" xlink:href="#NotoSans-Light-61"/>
    <use x="2636.199524" xlink:href="#NotoSans-Light-72"/>
    <use x="2675.599518" xlink:href="#NotoSans-Light-74"/>
    <use x="2709.599503" xlink:href="#NotoSans-Light-79"/>
   </g>
  </g>
 </g>
 <defs>
  <clipPath id="pc175865edb">
   <rect height="326.16" width="474.3" x="76.5" y="51.84"/>
  </clipPath>
 </defs>
</svg>
