<?xml version="1.0" encoding="utf-8" standalone="no"?>
<!DOCTYPE svg PUBLIC "-//W3C//DTD SVG 1.1//EN"
  "http://www.w3.org/Graphics/SVG/1.1/DTD/svg11.dtd">
<!-- Created with matplotlib (http://matplotlib.org/) -->
<svg height="432pt" version="1.1" viewBox="0 0 612 432" width="612pt" xmlns="http://www.w3.org/2000/svg" xmlns:xlink="http://www.w3.org/1999/xlink">
 <defs>
  <style type="text/css">
*{stroke-linecap:butt;stroke-linejoin:round;}
  </style>
 </defs>
 <g id="figure_1">
  <g id="patch_1">
   <path d="M 0 432 
L 612 432 
L 612 0 
L 0 0 
z
" style="fill:#ffffff;"/>
  </g>
  <g id="axes_1">
   <g id="patch_2">
    <path d="M 76.5 378 
L 550.8 378 
L 550.8 51.84 
L 76.5 51.84 
z
" style="fill:#ffffff;"/>
   </g>
   <g id="PathCollection_1">
    <defs>
     <path d="M 0 2.236068 
C 0.593012 2.236068 1.161816 2.000462 1.581139 1.581139 
C 2.000462 1.161816 2.236068 0.593012 2.236068 0 
C 2.236068 -0.593012 2.000462 -1.161816 1.581139 -1.581139 
C 1.161816 -2.000462 0.593012 -2.236068 0 -2.236068 
C -0.593012 -2.236068 -1.161816 -2.000462 -1.581139 -1.581139 
C -2.000462 -1.161816 -2.236068 -0.593012 -2.236068 0 
C -2.236068 0.593012 -2.000462 1.161816 -1.581139 1.581139 
C -1.161816 2.000462 -0.593012 2.236068 0 2.236068 
z
" id="m115c394aad" style="stroke:#2b328c;"/>
    </defs>
    <g clip-path="url(#p4ffdddeaae)">
     <use style="fill:#2b328c;stroke:#2b328c;" x="442.415594" xlink:href="#m115c394aad" y="312.633442"/>
     <use style="fill:#2b328c;stroke:#2b328c;" x="427.947106" xlink:href="#m115c394aad" y="174.206066"/>
     <use style="fill:#2b328c;stroke:#2b328c;" x="378.666951" xlink:href="#m115c394aad" y="223.062787"/>
     <use style="fill:#2b328c;stroke:#2b328c;" x="335.170557" xlink:href="#m115c394aad" y="266.219557"/>
     <use style="fill:#2b328c;stroke:#2b328c;" x="318.854178" xlink:href="#m115c394aad" y="239.348361"/>
     <use style="fill:#2b328c;stroke:#2b328c;" x="456.49167" xlink:href="#m115c394aad" y="296.347868"/>
     <use style="fill:#2b328c;stroke:#2b328c;" x="451.032229" xlink:href="#m115c394aad" y="309.376327"/>
     <use style="fill:#2b328c;stroke:#2b328c;" x="350.658719" xlink:href="#m115c394aad" y="288.205082"/>
     <use style="fill:#2b328c;stroke:#2b328c;" x="267.993529" xlink:href="#m115c394aad" y="184.791689"/>
     <use style="fill:#2b328c;stroke:#2b328c;" x="438.842892" xlink:href="#m115c394aad" y="301.233541"/>
     <use style="fill:#2b328c;stroke:#2b328c;" x="378.974491" xlink:href="#m115c394aad" y="328.919016"/>
     <use style="fill:#2b328c;stroke:#2b328c;" x="328.496692" xlink:href="#m115c394aad" y="212.477164"/>
     <use style="fill:#2b328c;stroke:#2b328c;" x="310.037401" xlink:href="#m115c394aad" y="207.591492"/>
     <use style="fill:#2b328c;stroke:#2b328c;" x="477.459758" xlink:href="#m115c394aad" y="268.662393"/>
     <use style="fill:#2b328c;stroke:#2b328c;" x="313.661271" xlink:href="#m115c394aad" y="197.820148"/>
     <use style="fill:#2b328c;stroke:#2b328c;" x="349.014348" xlink:href="#m115c394aad" y="247.491147"/>
     <use style="fill:#2b328c;stroke:#2b328c;" x="481.618283" xlink:href="#m115c394aad" y="301.233541"/>
     <use style="fill:#2b328c;stroke:#2b328c;" x="304.510063" xlink:href="#m115c394aad" y="178.277459"/>
     <use style="fill:#2b328c;stroke:#2b328c;" x="464.201315" xlink:href="#m115c394aad" y="280.062295"/>
     <use style="fill:#2b328c;stroke:#2b328c;" x="454.660455" xlink:href="#m115c394aad" y="202.70582"/>
     <use style="fill:#2b328c;stroke:#2b328c;" x="465.164441" xlink:href="#m115c394aad" y="317.519114"/>
     <use style="fill:#2b328c;stroke:#2b328c;" x="342.095988" xlink:href="#m115c394aad" y="275.990901"/>
     <use style="fill:#2b328c;stroke:#2b328c;" x="296.85247" xlink:href="#m115c394aad" y="296.347868"/>
     <use style="fill:#2b328c;stroke:#2b328c;" x="297.447022" xlink:href="#m115c394aad" y="165.249"/>
     <use style="fill:#2b328c;stroke:#2b328c;" x="260.417566" xlink:href="#m115c394aad" y="168.506115"/>
     <use style="fill:#2b328c;stroke:#2b328c;" x="251.265225" xlink:href="#m115c394aad" y="220.619951"/>
     <use style="fill:#2b328c;stroke:#2b328c;" x="270.883163" xlink:href="#m115c394aad" y="203.520098"/>
     <use style="fill:#2b328c;stroke:#2b328c;" x="347.634848" xlink:href="#m115c394aad" y="278.433737"/>
     <use style="fill:#2b328c;stroke:#2b328c;" x="98.959677" xlink:href="#m115c394aad" y="234.462688"/>
     <use style="fill:#2b328c;stroke:#2b328c;" x="376.246422" xlink:href="#m115c394aad" y="169.320394"/>
     <use style="fill:#2b328c;stroke:#2b328c;" x="420.883007" xlink:href="#m115c394aad" y="313.447721"/>
     <use style="fill:#2b328c;stroke:#2b328c;" x="337.994217" xlink:href="#m115c394aad" y="307.74777"/>
     <use style="fill:#2b328c;stroke:#2b328c;" x="275.373981" xlink:href="#m115c394aad" y="179.906017"/>
     <use style="fill:#2b328c;stroke:#2b328c;" x="263.68067" xlink:href="#m115c394aad" y="206.777213"/>
     <use style="fill:#2b328c;stroke:#2b328c;" x="287.747828" xlink:href="#m115c394aad" y="131.049295"/>
     <use style="fill:#2b328c;stroke:#2b328c;" x="390.036237" xlink:href="#m115c394aad" y="238.534082"/>
     <use style="fill:#2b328c;stroke:#2b328c;" x="453.01461" xlink:href="#m115c394aad" y="218.991393"/>
     <use style="fill:#2b328c;stroke:#2b328c;" x="434.855126" xlink:href="#m115c394aad" y="122.09223"/>
     <use style="fill:#2b328c;stroke:#2b328c;" x="368.995588" xlink:href="#m115c394aad" y="290.647918"/>
     <use style="fill:#2b328c;stroke:#2b328c;" x="484.248614" xlink:href="#m115c394aad" y="297.162147"/>
     <use style="fill:#2b328c;stroke:#2b328c;" x="470.387449" xlink:href="#m115c394aad" y="294.719311"/>
     <use style="fill:#2b328c;stroke:#2b328c;" x="469.194163" xlink:href="#m115c394aad" y="289.833639"/>
     <use style="fill:#2b328c;stroke:#2b328c;" x="445.932311" xlink:href="#m115c394aad" y="285.762246"/>
     <use style="fill:#2b328c;stroke:#2b328c;" x="427.909883" xlink:href="#m115c394aad" y="311.819163"/>
     <use style="fill:#2b328c;stroke:#2b328c;" x="455.819035" xlink:href="#m115c394aad" y="275.990901"/>
     <use style="fill:#2b328c;stroke:#2b328c;" x="406.655134" xlink:href="#m115c394aad" y="262.962442"/>
     <use style="fill:#2b328c;stroke:#2b328c;" x="446.267761" xlink:href="#m115c394aad" y="241.791197"/>
     <use style="fill:#2b328c;stroke:#2b328c;" x="330.351017" xlink:href="#m115c394aad" y="200.262984"/>
     <use style="fill:#2b328c;stroke:#2b328c;" x="231.531801" xlink:href="#m115c394aad" y="223.877066"/>
     <use style="fill:#2b328c;stroke:#2b328c;" x="300.104123" xlink:href="#m115c394aad" y="261.333885"/>
     <use style="fill:#2b328c;stroke:#2b328c;" x="436.934639" xlink:href="#m115c394aad" y="274.362344"/>
     <use style="fill:#2b328c;stroke:#2b328c;" x="435.334888" xlink:href="#m115c394aad" y="252.376819"/>
     <use style="fill:#2b328c;stroke:#2b328c;" x="440.875666" xlink:href="#m115c394aad" y="363.118721"/>
     <use style="fill:#2b328c;stroke:#2b328c;" x="307.862911" xlink:href="#m115c394aad" y="176.648902"/>
     <use style="fill:#2b328c;stroke:#2b328c;" x="235.790194" xlink:href="#m115c394aad" y="238.534082"/>
     <use style="fill:#2b328c;stroke:#2b328c;" x="288.252895" xlink:href="#m115c394aad" y="217.362836"/>
     <use style="fill:#2b328c;stroke:#2b328c;" x="298.129034" xlink:href="#m115c394aad" y="323.219065"/>
     <use style="fill:#2b328c;stroke:#2b328c;" x="354.296263" xlink:href="#m115c394aad" y="286.576524"/>
     <use style="fill:#2b328c;stroke:#2b328c;" x="242.673418" xlink:href="#m115c394aad" y="66.721279"/>
     <use style="fill:#2b328c;stroke:#2b328c;" x="458.839309" xlink:href="#m115c394aad" y="213.291443"/>
     <use style="fill:#2b328c;stroke:#2b328c;" x="320.810177" xlink:href="#m115c394aad" y="201.077262"/>
     <use style="fill:#2b328c;stroke:#2b328c;" x="260.154476" xlink:href="#m115c394aad" y="288.205082"/>
     <use style="fill:#2b328c;stroke:#2b328c;" x="472.791483" xlink:href="#m115c394aad" y="317.519114"/>
     <use style="fill:#2b328c;stroke:#2b328c;" x="465.002131" xlink:href="#m115c394aad" y="214.92"/>
     <use style="fill:#2b328c;stroke:#2b328c;" x="480.815998" xlink:href="#m115c394aad" y="219.805672"/>
     <use style="fill:#2b328c;stroke:#2b328c;" x="445.110922" xlink:href="#m115c394aad" y="315.890557"/>
     <use style="fill:#2b328c;stroke:#2b328c;" x="315.776502" xlink:href="#m115c394aad" y="248.305426"/>
     <use style="fill:#2b328c;stroke:#2b328c;" x="319.95333" xlink:href="#m115c394aad" y="175.020344"/>
     <use style="fill:#2b328c;stroke:#2b328c;" x="297.740822" xlink:href="#m115c394aad" y="129.420738"/>
     <use style="fill:#2b328c;stroke:#2b328c;" x="442.531651" xlink:href="#m115c394aad" y="132.677853"/>
     <use style="fill:#2b328c;stroke:#2b328c;" x="430.935333" xlink:href="#m115c394aad" y="218.991393"/>
     <use style="fill:#2b328c;stroke:#2b328c;" x="325.765275" xlink:href="#m115c394aad" y="190.491639"/>
     <use style="fill:#2b328c;stroke:#2b328c;" x="415.487104" xlink:href="#m115c394aad" y="257.262492"/>
     <use style="fill:#2b328c;stroke:#2b328c;" x="488.218007" xlink:href="#m115c394aad" y="275.176623"/>
     <use style="fill:#2b328c;stroke:#2b328c;" x="461.526359" xlink:href="#m115c394aad" y="222.248508"/>
     <use style="fill:#2b328c;stroke:#2b328c;" x="343.890596" xlink:href="#m115c394aad" y="163.620443"/>
    </g>
   </g>
   <g id="PathCollection_2">
    <defs>
     <path d="M 0 -2.236068 
L -0.502029 -0.690983 
L -2.126627 -0.690983 
L -0.812299 0.263932 
L -1.314328 1.809017 
L -0 0.854102 
L 1.314328 1.809017 
L 0.812299 0.263932 
L 2.126627 -0.690983 
L 0.502029 -0.690983 
z
" id="mb945d711ac" style="stroke:#ff4c00;"/>
    </defs>
    <g clip-path="url(#p4ffdddeaae)">
     <use style="fill:#ff4c00;stroke:#ff4c00;" x="155.743432" xlink:href="#mb945d711ac" y="153.03482"/>
     <use style="fill:#ff4c00;stroke:#ff4c00;" x="491.638307" xlink:href="#mb945d711ac" y="237.719803"/>
     <use style="fill:#ff4c00;stroke:#ff4c00;" x="452.610244" xlink:href="#mb945d711ac" y="317.519114"/>
     <use style="fill:#ff4c00;stroke:#ff4c00;" x="434.198803" xlink:href="#mb945d711ac" y="248.305426"/>
     <use style="fill:#ff4c00;stroke:#ff4c00;" x="468.542894" xlink:href="#mb945d711ac" y="324.847622"/>
     <use style="fill:#ff4c00;stroke:#ff4c00;" x="503.378967" xlink:href="#mb945d711ac" y="139.192082"/>
     <use style="fill:#ff4c00;stroke:#ff4c00;" x="338.52784" xlink:href="#mb945d711ac" y="240.162639"/>
     <use style="fill:#ff4c00;stroke:#ff4c00;" x="465.723673" xlink:href="#mb945d711ac" y="98.478148"/>
     <use style="fill:#ff4c00;stroke:#ff4c00;" x="438.259955" xlink:href="#mb945d711ac" y="213.291443"/>
     <use style="fill:#ff4c00;stroke:#ff4c00;" x="464.006183" xlink:href="#mb945d711ac" y="185.605967"/>
     <use style="fill:#ff4c00;stroke:#ff4c00;" x="424.994673" xlink:href="#mb945d711ac" y="278.433737"/>
     <use style="fill:#ff4c00;stroke:#ff4c00;" x="468.187913" xlink:href="#mb945d711ac" y="325.661901"/>
     <use style="fill:#ff4c00;stroke:#ff4c00;" x="378.701246" xlink:href="#mb945d711ac" y="311.004885"/>
     <use style="fill:#ff4c00;stroke:#ff4c00;" x="455.679489" xlink:href="#mb945d711ac" y="276.80518"/>
     <use style="fill:#ff4c00;stroke:#ff4c00;" x="449.180991" xlink:href="#mb945d711ac" y="242.605475"/>
     <use style="fill:#ff4c00;stroke:#ff4c00;" x="439.072184" xlink:href="#mb945d711ac" y="179.906017"/>
     <use style="fill:#ff4c00;stroke:#ff4c00;" x="421.926398" xlink:href="#mb945d711ac" y="176.648902"/>
     <use style="fill:#ff4c00;stroke:#ff4c00;" x="382.149631" xlink:href="#mb945d711ac" y="270.290951"/>
     <use style="fill:#ff4c00;stroke:#ff4c00;" x="370.784764" xlink:href="#mb945d711ac" y="216.548557"/>
     <use style="fill:#ff4c00;stroke:#ff4c00;" x="207.016958" xlink:href="#mb945d711ac" y="113.135164"/>
     <use style="fill:#ff4c00;stroke:#ff4c00;" x="448.386533" xlink:href="#mb945d711ac" y="264.591"/>
     <use style="fill:#ff4c00;stroke:#ff4c00;" x="469.571775" xlink:href="#mb945d711ac" y="254.819656"/>
     <use style="fill:#ff4c00;stroke:#ff4c00;" x="495.869791" xlink:href="#mb945d711ac" y="146.52059"/>
     <use style="fill:#ff4c00;stroke:#ff4c00;" x="472.323533" xlink:href="#mb945d711ac" y="258.07677"/>
     <use style="fill:#ff4c00;stroke:#ff4c00;" x="504.56343" xlink:href="#mb945d711ac" y="226.319902"/>
     <use style="fill:#ff4c00;stroke:#ff4c00;" x="447.249153" xlink:href="#mb945d711ac" y="332.176131"/>
     <use style="fill:#ff4c00;stroke:#ff4c00;" x="336.029435" xlink:href="#mb945d711ac" y="238.534082"/>
     <use style="fill:#ff4c00;stroke:#ff4c00;" x="194.31405" xlink:href="#mb945d711ac" y="334.618967"/>
     <use style="fill:#ff4c00;stroke:#ff4c00;" x="114.267288" xlink:href="#mb945d711ac" y="162.806164"/>
     <use style="fill:#ff4c00;stroke:#ff4c00;" x="529.178042" xlink:href="#mb945d711ac" y="192.934476"/>
     <use style="fill:#ff4c00;stroke:#ff4c00;" x="484.255592" xlink:href="#mb945d711ac" y="107.435214"/>
     <use style="fill:#ff4c00;stroke:#ff4c00;" x="500.10467" xlink:href="#mb945d711ac" y="337.061803"/>
     <use style="fill:#ff4c00;stroke:#ff4c00;" x="497.437657" xlink:href="#mb945d711ac" y="225.505623"/>
     <use style="fill:#ff4c00;stroke:#ff4c00;" x="436.234207" xlink:href="#mb945d711ac" y="218.991393"/>
     <use style="fill:#ff4c00;stroke:#ff4c00;" x="437.809009" xlink:href="#mb945d711ac" y="205.962934"/>
     <use style="fill:#ff4c00;stroke:#ff4c00;" x="408.07753" xlink:href="#mb945d711ac" y="154.663377"/>
     <use style="fill:#ff4c00;stroke:#ff4c00;" x="478.956622" xlink:href="#mb945d711ac" y="336.247524"/>
    </g>
   </g>
   <g id="PathCollection_3">
    <defs>
     <path d="M 0 -2.236068 
L -2.236068 2.236068 
L 2.236068 2.236068 
z
" id="m4fc97df281" style="stroke:#e3102b;"/>
    </defs>
    <g clip-path="url(#p4ffdddeaae)">
     <use style="fill:#e3102b;stroke:#e3102b;" x="474.289819" xlink:href="#m4fc97df281" y="337.876081"/>
     <use style="fill:#e3102b;stroke:#e3102b;" x="466.623608" xlink:href="#m4fc97df281" y="313.447721"/>
     <use style="fill:#e3102b;stroke:#e3102b;" x="402.809201" xlink:href="#m4fc97df281" y="312.633442"/>
     <use style="fill:#e3102b;stroke:#e3102b;" x="439.667818" xlink:href="#m4fc97df281" y="307.74777"/>
     <use style="fill:#e3102b;stroke:#e3102b;" x="460.081201" xlink:href="#m4fc97df281" y="280.876573"/>
     <use style="fill:#e3102b;stroke:#e3102b;" x="472.322576" xlink:href="#m4fc97df281" y="359.047327"/>
     <use style="fill:#e3102b;stroke:#e3102b;" x="163.319396" xlink:href="#m4fc97df281" y="305.304934"/>
    </g>
   </g>
   <g id="PathCollection_4">
    <defs>
     <path d="M -2.236068 2.236068 
L 2.236068 2.236068 
L 2.236068 -2.236068 
L -2.236068 -2.236068 
z
" id="mfc7b62c349" style="stroke:#307730;"/>
    </defs>
    <g clip-path="url(#p4ffdddeaae)">
     <use style="fill:#307730;stroke:#307730;" x="436.097044" xlink:href="#mfc7b62c349" y="263.776721"/>
    </g>
   </g>
   <g id="matplotlib.axis_1">
    <g id="xtick_1">
     <g id="line2d_1">
      <defs>
       <path d="M 0 0 
L 0 3.5 
" id="m49dfb53f79" style="stroke:#000000;stroke-width:0.8;"/>
      </defs>
      <g>
       <use style="stroke:#000000;stroke-width:0.8;" x="159.72113" xlink:href="#m49dfb53f79" y="378"/>
      </g>
     </g>
     <g id="text_1">
      <!-- $\mathdefault{10^{0}}$ -->
      <defs>
       <path d="M 33.796875 0 
L 28.203125 0 
L 28.203125 53.09375 
Q 28.203125 57.40625 28.203125 60.15625 
Q 28.203125 62.90625 28.40625 65.40625 
Q 27 64 25.796875 63 
Q 24.59375 62 22.59375 60.40625 
L 12.59375 52.796875 
L 9.59375 56.796875 
L 29 71.40625 
L 33.796875 71.40625 
z
" id="NotoSans-Light-31"/>
       <path d="M 51.5 35.90625 
Q 51.5 18 45.953125 8.5 
Q 40.40625 -1 28.5 -1 
Q 17.203125 -1 11.390625 8.390625 
Q 5.59375 17.796875 5.59375 35.90625 
Q 5.59375 46.796875 7.84375 55.046875 
Q 10.09375 63.296875 15.140625 67.890625 
Q 20.203125 72.5 28.59375 72.5 
Q 36.796875 72.5 41.84375 68 
Q 46.90625 63.5 49.203125 55.25 
Q 51.5 47 51.5 35.90625 
z
M 11.296875 35.90625 
Q 11.296875 19.796875 15.4375 11.890625 
Q 19.59375 4 28.5 4 
Q 37.59375 4 41.640625 11.890625 
Q 45.703125 19.796875 45.703125 35.90625 
Q 45.703125 45.796875 44.140625 52.890625 
Q 42.59375 60 38.84375 63.75 
Q 35.09375 67.5 28.59375 67.5 
Q 22.09375 67.5 18.296875 63.703125 
Q 14.5 59.90625 12.890625 52.796875 
Q 11.296875 45.703125 11.296875 35.90625 
z
" id="NotoSans-Light-30"/>
      </defs>
      <g transform="translate(148.66113 395.64)scale(0.14 -0.14)">
       <use transform="translate(0 0.007812)" xlink:href="#NotoSans-Light-31"/>
       <use transform="translate(57.099991 0.007812)" xlink:href="#NotoSans-Light-30"/>
       <use transform="translate(115.131036 37.25)scale(0.7)" xlink:href="#NotoSans-Light-30"/>
      </g>
     </g>
    </g>
    <g id="xtick_2">
     <g id="line2d_2">
      <g>
       <use style="stroke:#000000;stroke-width:0.8;" x="246.651116" xlink:href="#m49dfb53f79" y="378"/>
      </g>
     </g>
     <g id="text_2">
      <!-- $\mathdefault{10^{1}}$ -->
      <g transform="translate(235.591116 395.64)scale(0.14 -0.14)">
       <use transform="translate(0 0.773438)" xlink:href="#NotoSans-Light-31"/>
       <use transform="translate(57.099991 0.773438)" xlink:href="#NotoSans-Light-30"/>
       <use transform="translate(115.131036 38.015625)scale(0.7)" xlink:href="#NotoSans-Light-31"/>
      </g>
     </g>
    </g>
    <g id="xtick_3">
     <g id="line2d_3">
      <g>
       <use style="stroke:#000000;stroke-width:0.8;" x="333.581102" xlink:href="#m49dfb53f79" y="378"/>
      </g>
     </g>
     <g id="text_3">
      <!-- $\mathdefault{10^{2}}$ -->
      <defs>
       <path d="M 50.59375 0 
L 5.40625 0 
L 5.40625 4.796875 
L 25.90625 26.09375 
Q 31 31.40625 34.5 35.59375 
Q 38 39.796875 39.796875 44 
Q 41.59375 48.203125 41.59375 53.40625 
Q 41.59375 60.09375 37.6875 63.75 
Q 33.796875 67.40625 27.203125 67.40625 
Q 22.40625 67.40625 18.203125 65.703125 
Q 14 64 9.90625 60.796875 
L 6.796875 64.796875 
Q 11.203125 68.40625 16.390625 70.40625 
Q 21.59375 72.40625 27.203125 72.40625 
Q 36.40625 72.40625 41.90625 67.296875 
Q 47.40625 62.203125 47.40625 53.59375 
Q 47.40625 47.796875 45.34375 43 
Q 43.296875 38.203125 39.546875 33.59375 
Q 35.796875 29 30.59375 23.796875 
L 12.703125 5.5 
L 12.703125 5.203125 
L 50.59375 5.203125 
z
" id="NotoSans-Light-32"/>
      </defs>
      <g transform="translate(322.521102 395.64)scale(0.14 -0.14)">
       <use transform="translate(0 0.073438)" xlink:href="#NotoSans-Light-31"/>
       <use transform="translate(57.099991 0.073438)" xlink:href="#NotoSans-Light-30"/>
       <use transform="translate(115.131036 37.315625)scale(0.7)" xlink:href="#NotoSans-Light-32"/>
      </g>
     </g>
    </g>
    <g id="xtick_4">
     <g id="line2d_4">
      <g>
       <use style="stroke:#000000;stroke-width:0.8;" x="420.511089" xlink:href="#m49dfb53f79" y="378"/>
      </g>
     </g>
     <g id="text_4">
      <!-- $\mathdefault{10^{3}}$ -->
      <defs>
       <path d="M 48.203125 54.90625 
Q 48.203125 47.796875 44 43.296875 
Q 39.796875 38.796875 33.203125 37.59375 
L 33.203125 37.203125 
Q 41.59375 36.203125 46 31.75 
Q 50.40625 27.296875 50.40625 19.796875 
Q 50.40625 10.59375 43.90625 4.796875 
Q 37.40625 -1 24.40625 -1 
Q 18.59375 -1 13.640625 0 
Q 8.703125 1 4.59375 3 
L 4.59375 8.5 
Q 8.703125 6.5 14 5.203125 
Q 19.296875 3.90625 24.40625 3.90625 
Q 34.59375 3.90625 39.5 8.25 
Q 44.40625 12.59375 44.40625 20 
Q 44.40625 27.796875 38.59375 31.140625 
Q 32.796875 34.5 23.09375 34.5 
L 15.5 34.5 
L 15.5 39.5 
L 23.203125 39.5 
Q 31.5 39.5 36.890625 43.34375 
Q 42.296875 47.203125 42.296875 54.59375 
Q 42.296875 60.90625 38.1875 64.15625 
Q 34.09375 67.40625 27.296875 67.40625 
Q 21.59375 67.40625 17.046875 65.703125 
Q 12.5 64 8.09375 61 
L 5.203125 65 
Q 9.296875 68.203125 14.796875 70.296875 
Q 20.296875 72.40625 27.203125 72.40625 
Q 37.203125 72.40625 42.703125 67.65625 
Q 48.203125 62.90625 48.203125 54.90625 
z
" id="NotoSans-Light-33"/>
      </defs>
      <g transform="translate(409.451089 395.64)scale(0.14 -0.14)">
       <use transform="translate(0 0.073438)" xlink:href="#NotoSans-Light-31"/>
       <use transform="translate(57.099991 0.073438)" xlink:href="#NotoSans-Light-30"/>
       <use transform="translate(115.131036 37.315625)scale(0.7)" xlink:href="#NotoSans-Light-33"/>
      </g>
     </g>
    </g>
    <g id="xtick_5">
     <g id="line2d_5">
      <g>
       <use style="stroke:#000000;stroke-width:0.8;" x="507.441075" xlink:href="#m49dfb53f79" y="378"/>
      </g>
     </g>
     <g id="text_5">
      <!-- $\mathdefault{10^{4}}$ -->
      <defs>
       <path d="M 55.59375 17.796875 
L 43.703125 17.796875 
L 43.703125 0 
L 38.203125 0 
L 38.203125 17.796875 
L 2.296875 17.796875 
L 2.296875 22.40625 
L 37.796875 71.796875 
L 43.703125 71.796875 
L 43.703125 23 
L 55.59375 23 
z
M 38.203125 23 
L 38.203125 49.5 
Q 38.203125 55.296875 38.25 58.640625 
Q 38.296875 62 38.40625 65.5 
L 38.203125 65.5 
Q 36.796875 63.203125 35.59375 61.203125 
Q 34.40625 59.203125 32.796875 56.90625 
L 8.296875 23 
z
" id="NotoSans-Light-34"/>
      </defs>
      <g transform="translate(496.381075 395.64)scale(0.14 -0.14)">
       <use transform="translate(0 0.5)" xlink:href="#NotoSans-Light-31"/>
       <use transform="translate(57.099991 0.5)" xlink:href="#NotoSans-Light-30"/>
       <use transform="translate(115.131036 37.742188)scale(0.7)" xlink:href="#NotoSans-Light-34"/>
      </g>
     </g>
    </g>
    <g id="xtick_6">
     <g id="line2d_6">
      <defs>
       <path d="M 0 0 
L 0 2 
" id="m38a5093be6" style="stroke:#000000;stroke-width:0.6;"/>
      </defs>
      <g>
       <use style="stroke:#000000;stroke-width:0.6;" x="98.959677" xlink:href="#m38a5093be6" y="378"/>
      </g>
     </g>
    </g>
    <g id="xtick_7">
     <g id="line2d_7">
      <g>
       <use style="stroke:#000000;stroke-width:0.6;" x="114.267288" xlink:href="#m38a5093be6" y="378"/>
      </g>
     </g>
    </g>
    <g id="xtick_8">
     <g id="line2d_8">
      <g>
       <use style="stroke:#000000;stroke-width:0.6;" x="125.128211" xlink:href="#m38a5093be6" y="378"/>
      </g>
     </g>
    </g>
    <g id="xtick_9">
     <g id="line2d_9">
      <g>
       <use style="stroke:#000000;stroke-width:0.6;" x="133.552597" xlink:href="#m38a5093be6" y="378"/>
      </g>
     </g>
    </g>
    <g id="xtick_10">
     <g id="line2d_10">
      <g>
       <use style="stroke:#000000;stroke-width:0.6;" x="140.435822" xlink:href="#m38a5093be6" y="378"/>
      </g>
     </g>
    </g>
    <g id="xtick_11">
     <g id="line2d_11">
      <g>
       <use style="stroke:#000000;stroke-width:0.6;" x="146.255505" xlink:href="#m38a5093be6" y="378"/>
      </g>
     </g>
    </g>
    <g id="xtick_12">
     <g id="line2d_12">
      <g>
       <use style="stroke:#000000;stroke-width:0.6;" x="151.296744" xlink:href="#m38a5093be6" y="378"/>
      </g>
     </g>
    </g>
    <g id="xtick_13">
     <g id="line2d_13">
      <g>
       <use style="stroke:#000000;stroke-width:0.6;" x="155.743432" xlink:href="#m38a5093be6" y="378"/>
      </g>
     </g>
    </g>
    <g id="xtick_14">
     <g id="line2d_14">
      <g>
       <use style="stroke:#000000;stroke-width:0.6;" x="185.889664" xlink:href="#m38a5093be6" y="378"/>
      </g>
     </g>
    </g>
    <g id="xtick_15">
     <g id="line2d_15">
      <g>
       <use style="stroke:#000000;stroke-width:0.6;" x="201.197274" xlink:href="#m38a5093be6" y="378"/>
      </g>
     </g>
    </g>
    <g id="xtick_16">
     <g id="line2d_16">
      <g>
       <use style="stroke:#000000;stroke-width:0.6;" x="212.058197" xlink:href="#m38a5093be6" y="378"/>
      </g>
     </g>
    </g>
    <g id="xtick_17">
     <g id="line2d_17">
      <g>
       <use style="stroke:#000000;stroke-width:0.6;" x="220.482583" xlink:href="#m38a5093be6" y="378"/>
      </g>
     </g>
    </g>
    <g id="xtick_18">
     <g id="line2d_18">
      <g>
       <use style="stroke:#000000;stroke-width:0.6;" x="227.365808" xlink:href="#m38a5093be6" y="378"/>
      </g>
     </g>
    </g>
    <g id="xtick_19">
     <g id="line2d_19">
      <g>
       <use style="stroke:#000000;stroke-width:0.6;" x="233.185491" xlink:href="#m38a5093be6" y="378"/>
      </g>
     </g>
    </g>
    <g id="xtick_20">
     <g id="line2d_20">
      <g>
       <use style="stroke:#000000;stroke-width:0.6;" x="238.22673" xlink:href="#m38a5093be6" y="378"/>
      </g>
     </g>
    </g>
    <g id="xtick_21">
     <g id="line2d_21">
      <g>
       <use style="stroke:#000000;stroke-width:0.6;" x="242.673418" xlink:href="#m38a5093be6" y="378"/>
      </g>
     </g>
    </g>
    <g id="xtick_22">
     <g id="line2d_22">
      <g>
       <use style="stroke:#000000;stroke-width:0.6;" x="272.81965" xlink:href="#m38a5093be6" y="378"/>
      </g>
     </g>
    </g>
    <g id="xtick_23">
     <g id="line2d_23">
      <g>
       <use style="stroke:#000000;stroke-width:0.6;" x="288.12726" xlink:href="#m38a5093be6" y="378"/>
      </g>
     </g>
    </g>
    <g id="xtick_24">
     <g id="line2d_24">
      <g>
       <use style="stroke:#000000;stroke-width:0.6;" x="298.988183" xlink:href="#m38a5093be6" y="378"/>
      </g>
     </g>
    </g>
    <g id="xtick_25">
     <g id="line2d_25">
      <g>
       <use style="stroke:#000000;stroke-width:0.6;" x="307.412569" xlink:href="#m38a5093be6" y="378"/>
      </g>
     </g>
    </g>
    <g id="xtick_26">
     <g id="line2d_26">
      <g>
       <use style="stroke:#000000;stroke-width:0.6;" x="314.295794" xlink:href="#m38a5093be6" y="378"/>
      </g>
     </g>
    </g>
    <g id="xtick_27">
     <g id="line2d_27">
      <g>
       <use style="stroke:#000000;stroke-width:0.6;" x="320.115477" xlink:href="#m38a5093be6" y="378"/>
      </g>
     </g>
    </g>
    <g id="xtick_28">
     <g id="line2d_28">
      <g>
       <use style="stroke:#000000;stroke-width:0.6;" x="325.156716" xlink:href="#m38a5093be6" y="378"/>
      </g>
     </g>
    </g>
    <g id="xtick_29">
     <g id="line2d_29">
      <g>
       <use style="stroke:#000000;stroke-width:0.6;" x="329.603404" xlink:href="#m38a5093be6" y="378"/>
      </g>
     </g>
    </g>
    <g id="xtick_30">
     <g id="line2d_30">
      <g>
       <use style="stroke:#000000;stroke-width:0.6;" x="359.749636" xlink:href="#m38a5093be6" y="378"/>
      </g>
     </g>
    </g>
    <g id="xtick_31">
     <g id="line2d_31">
      <g>
       <use style="stroke:#000000;stroke-width:0.6;" x="375.057246" xlink:href="#m38a5093be6" y="378"/>
      </g>
     </g>
    </g>
    <g id="xtick_32">
     <g id="line2d_32">
      <g>
       <use style="stroke:#000000;stroke-width:0.6;" x="385.918169" xlink:href="#m38a5093be6" y="378"/>
      </g>
     </g>
    </g>
    <g id="xtick_33">
     <g id="line2d_33">
      <g>
       <use style="stroke:#000000;stroke-width:0.6;" x="394.342555" xlink:href="#m38a5093be6" y="378"/>
      </g>
     </g>
    </g>
    <g id="xtick_34">
     <g id="line2d_34">
      <g>
       <use style="stroke:#000000;stroke-width:0.6;" x="401.22578" xlink:href="#m38a5093be6" y="378"/>
      </g>
     </g>
    </g>
    <g id="xtick_35">
     <g id="line2d_35">
      <g>
       <use style="stroke:#000000;stroke-width:0.6;" x="407.045463" xlink:href="#m38a5093be6" y="378"/>
      </g>
     </g>
    </g>
    <g id="xtick_36">
     <g id="line2d_36">
      <g>
       <use style="stroke:#000000;stroke-width:0.6;" x="412.086702" xlink:href="#m38a5093be6" y="378"/>
      </g>
     </g>
    </g>
    <g id="xtick_37">
     <g id="line2d_37">
      <g>
       <use style="stroke:#000000;stroke-width:0.6;" x="416.53339" xlink:href="#m38a5093be6" y="378"/>
      </g>
     </g>
    </g>
    <g id="xtick_38">
     <g id="line2d_38">
      <g>
       <use style="stroke:#000000;stroke-width:0.6;" x="446.679622" xlink:href="#m38a5093be6" y="378"/>
      </g>
     </g>
    </g>
    <g id="xtick_39">
     <g id="line2d_39">
      <g>
       <use style="stroke:#000000;stroke-width:0.6;" x="461.987233" xlink:href="#m38a5093be6" y="378"/>
      </g>
     </g>
    </g>
    <g id="xtick_40">
     <g id="line2d_40">
      <g>
       <use style="stroke:#000000;stroke-width:0.6;" x="472.848155" xlink:href="#m38a5093be6" y="378"/>
      </g>
     </g>
    </g>
    <g id="xtick_41">
     <g id="line2d_41">
      <g>
       <use style="stroke:#000000;stroke-width:0.6;" x="481.272541" xlink:href="#m38a5093be6" y="378"/>
      </g>
     </g>
    </g>
    <g id="xtick_42">
     <g id="line2d_42">
      <g>
       <use style="stroke:#000000;stroke-width:0.6;" x="488.155766" xlink:href="#m38a5093be6" y="378"/>
      </g>
     </g>
    </g>
    <g id="xtick_43">
     <g id="line2d_43">
      <g>
       <use style="stroke:#000000;stroke-width:0.6;" x="493.975449" xlink:href="#m38a5093be6" y="378"/>
      </g>
     </g>
    </g>
    <g id="xtick_44">
     <g id="line2d_44">
      <g>
       <use style="stroke:#000000;stroke-width:0.6;" x="499.016689" xlink:href="#m38a5093be6" y="378"/>
      </g>
     </g>
    </g>
    <g id="xtick_45">
     <g id="line2d_45">
      <g>
       <use style="stroke:#000000;stroke-width:0.6;" x="503.463377" xlink:href="#m38a5093be6" y="378"/>
      </g>
     </g>
    </g>
    <g id="xtick_46">
     <g id="line2d_46">
      <g>
       <use style="stroke:#000000;stroke-width:0.6;" x="533.609608" xlink:href="#m38a5093be6" y="378"/>
      </g>
     </g>
    </g>
    <g id="xtick_47">
     <g id="line2d_47">
      <g>
       <use style="stroke:#000000;stroke-width:0.6;" x="548.917219" xlink:href="#m38a5093be6" y="378"/>
      </g>
     </g>
    </g>
    <g id="text_6">
     <!-- Population Density (people/km$^2$) -->
     <defs>
      <path d="M 27.796875 71.40625 
Q 53.5 71.40625 53.5 51.203125 
Q 53.5 40.90625 46.84375 35.046875 
Q 40.203125 29.203125 26.203125 29.203125 
L 15.796875 29.203125 
L 15.796875 0 
L 10 0 
L 10 71.40625 
z
M 27.203125 66.296875 
L 15.796875 66.296875 
L 15.796875 34.203125 
L 25.59375 34.203125 
Q 36 34.203125 41.75 37.84375 
Q 47.5 41.5 47.5 50.90625 
Q 47.5 58.90625 42.546875 62.59375 
Q 37.59375 66.296875 27.203125 66.296875 
z
" id="NotoSans-Light-50"/>
      <path d="M 53.296875 26.59375 
Q 53.296875 18.296875 50.546875 12.09375 
Q 47.796875 5.90625 42.4375 2.453125 
Q 37.09375 -1 29.40625 -1 
Q 22 -1 16.703125 2.390625 
Q 11.40625 5.796875 8.546875 12 
Q 5.703125 18.203125 5.703125 26.59375 
Q 5.703125 39.59375 12.140625 46.890625 
Q 18.59375 54.203125 29.796875 54.203125 
Q 37.40625 54.203125 42.65625 50.75 
Q 47.90625 47.296875 50.59375 41.09375 
Q 53.296875 34.90625 53.296875 26.59375 
z
M 11.59375 26.59375 
Q 11.59375 16.40625 15.890625 10.15625 
Q 20.203125 3.90625 29.40625 3.90625 
Q 38.703125 3.90625 43.046875 10.15625 
Q 47.40625 16.40625 47.40625 26.59375 
Q 47.40625 33.203125 45.59375 38.296875 
Q 43.796875 43.40625 39.890625 46.296875 
Q 36 49.203125 29.703125 49.203125 
Q 20.59375 49.203125 16.09375 43.203125 
Q 11.59375 37.203125 11.59375 26.59375 
z
" id="NotoSans-Light-6f"/>
      <path d="M 32.59375 54.203125 
Q 42.796875 54.203125 48.546875 47.34375 
Q 54.296875 40.5 54.296875 26.90625 
Q 54.296875 13.296875 48.34375 6.140625 
Q 42.40625 -1 32.09375 -1 
Q 25 -1 20.75 2 
Q 16.5 5 14.5 9.203125 
L 14.09375 9.203125 
Q 14.203125 6.59375 14.34375 3.6875 
Q 14.5 0.796875 14.5 -1.796875 
L 14.5 -23.59375 
L 8.796875 -23.59375 
L 8.796875 53.203125 
L 13.5 53.203125 
L 14.203125 43.203125 
L 14.5 43.203125 
Q 16.5 47.59375 20.84375 50.890625 
Q 25.203125 54.203125 32.59375 54.203125 
z
M 31.796875 49.203125 
Q 23 49.203125 18.796875 43.640625 
Q 14.59375 38.09375 14.5 27.59375 
L 14.5 26.59375 
Q 14.5 15.203125 18.640625 9.546875 
Q 22.796875 3.90625 31.40625 3.90625 
Q 39.59375 3.90625 44 10 
Q 48.40625 16.09375 48.40625 27 
Q 48.40625 37.703125 44.25 43.453125 
Q 40.09375 49.203125 31.796875 49.203125 
z
" id="NotoSans-Light-70"/>
      <path d="M 50.703125 53.203125 
L 50.703125 0 
L 46 0 
L 45.203125 9.09375 
L 44.90625 9.09375 
Q 42.703125 4.796875 38.140625 1.890625 
Q 33.59375 -1 26.796875 -1 
Q 8 -1 8 18.40625 
L 8 53.203125 
L 13.796875 53.203125 
L 13.796875 18.796875 
Q 13.796875 11.203125 17.1875 7.546875 
Q 20.59375 3.90625 27.40625 3.90625 
Q 45 3.90625 45 24.203125 
L 45 53.203125 
z
" id="NotoSans-Light-75"/>
      <path d="M 14.5 0 
L 8.796875 0 
L 8.796875 76 
L 14.5 76 
z
" id="NotoSans-Light-6c"/>
      <path d="M 27.59375 54.09375 
Q 36.59375 54.09375 41 49.6875 
Q 45.40625 45.296875 45.40625 35.796875 
L 45.40625 0 
L 41.09375 0 
L 40 9 
L 39.796875 9 
Q 37 4.5 32.796875 1.75 
Q 28.59375 -1 21.203125 -1 
Q 13.59375 -1 9.140625 2.796875 
Q 4.703125 6.59375 4.703125 13.90625 
Q 4.703125 21.796875 11.140625 26 
Q 17.59375 30.203125 30.09375 30.703125 
L 39.796875 31.203125 
L 39.796875 34.90625 
Q 39.796875 42.796875 36.640625 46.046875 
Q 33.5 49.296875 27.40625 49.296875 
Q 23.296875 49.296875 19.5 48.25 
Q 15.703125 47.203125 11.90625 45.203125 
L 10.09375 49.796875 
Q 13.796875 51.703125 18.296875 52.890625 
Q 22.796875 54.09375 27.59375 54.09375 
z
M 39.796875 26.796875 
L 30.796875 26.40625 
Q 20.59375 26 15.59375 22.953125 
Q 10.59375 19.90625 10.59375 13.796875 
Q 10.59375 8.90625 13.6875 6.34375 
Q 16.796875 3.796875 22.203125 3.796875 
Q 30.5 3.796875 35.046875 8.5 
Q 39.59375 13.203125 39.796875 21.703125 
z
" id="NotoSans-Light-61"/>
      <path d="M 23.796875 3.796875 
Q 26 3.796875 28.046875 4.140625 
Q 30.09375 4.5 31.5 5 
L 31.5 0.40625 
Q 29.90625 -0.203125 27.75 -0.59375 
Q 25.59375 -1 23 -1 
Q 16.40625 -1 12.796875 2.75 
Q 9.203125 6.5 9.203125 14.796875 
L 9.203125 48.59375 
L 1.296875 48.59375 
L 1.296875 51.796875 
L 9.203125 53.59375 
L 11.203125 65.90625 
L 14.796875 65.90625 
L 14.796875 53.203125 
L 31.203125 53.203125 
L 31.203125 48.59375 
L 14.796875 48.59375 
L 14.796875 15 
Q 14.796875 3.796875 23.796875 3.796875 
z
" id="NotoSans-Light-74"/>
      <path d="M 11.59375 72.90625 
Q 15.59375 72.90625 15.59375 68.59375 
Q 15.59375 64.203125 11.59375 64.203125 
Q 7.796875 64.203125 7.796875 68.59375 
Q 7.796875 72.90625 11.59375 72.90625 
z
M 14.40625 53.203125 
L 14.40625 0 
L 8.796875 0 
L 8.796875 53.203125 
z
" id="NotoSans-Light-69"/>
      <path d="M 32.59375 54.203125 
Q 41.703125 54.203125 46.5 49.5 
Q 51.296875 44.796875 51.296875 34.796875 
L 51.296875 0 
L 45.59375 0 
L 45.59375 34.40625 
Q 45.59375 42 42.140625 45.59375 
Q 38.703125 49.203125 32 49.203125 
Q 14.40625 49.203125 14.40625 29 
L 14.40625 0 
L 8.796875 0 
L 8.796875 53.203125 
L 13.40625 53.203125 
L 14.203125 44 
L 14.59375 44 
Q 16.703125 48.40625 21.25 51.296875 
Q 25.796875 54.203125 32.59375 54.203125 
z
" id="NotoSans-Light-6e"/>
      <path id="NotoSans-Light-20"/>
      <path d="M 64.796875 36.40625 
Q 64.796875 18.40625 55.296875 9.203125 
Q 45.796875 0 27.59375 0 
L 10 0 
L 10 71.40625 
L 29.796875 71.40625 
Q 46.796875 71.40625 55.796875 62.453125 
Q 64.796875 53.5 64.796875 36.40625 
z
M 58.796875 36.203125 
Q 58.796875 66.296875 28.703125 66.296875 
L 15.796875 66.296875 
L 15.796875 5.09375 
L 27.203125 5.09375 
Q 58.796875 5.09375 58.796875 36.203125 
z
" id="NotoSans-Light-44"/>
      <path d="M 29 54.203125 
Q 35.796875 54.203125 40.390625 51.046875 
Q 45 47.90625 47.296875 42.40625 
Q 49.59375 36.90625 49.59375 29.796875 
L 49.59375 25.796875 
L 11.59375 25.796875 
Q 11.59375 15.296875 16.5 9.640625 
Q 21.40625 4 30.59375 4 
Q 35.59375 4 39.296875 4.796875 
Q 43 5.59375 47.40625 7.59375 
L 47.40625 2.40625 
Q 43.40625 0.59375 39.5 -0.203125 
Q 35.59375 -1 30.40625 -1 
Q 18.5 -1 12.09375 6.296875 
Q 5.703125 13.59375 5.703125 26.203125 
Q 5.703125 34.296875 8.453125 40.640625 
Q 11.203125 47 16.390625 50.59375 
Q 21.59375 54.203125 29 54.203125 
z
M 28.90625 49.40625 
Q 21.59375 49.40625 17.046875 44.5 
Q 12.5 39.59375 11.703125 30.59375 
L 43.59375 30.59375 
Q 43.59375 39 40.046875 44.203125 
Q 36.5 49.40625 28.90625 49.40625 
z
" id="NotoSans-Light-65"/>
      <path d="M 42.203125 14.09375 
Q 42.203125 6.796875 36.84375 2.890625 
Q 31.5 -1 21.59375 -1 
Q 16 -1 11.75 0 
Q 7.5 1 4.59375 2.40625 
L 4.59375 7.90625 
Q 8.09375 6.09375 12.59375 4.9375 
Q 17.09375 3.796875 21.796875 3.796875 
Q 29.59375 3.796875 33.09375 6.4375 
Q 36.59375 9.09375 36.59375 13.703125 
Q 36.59375 18.09375 32.9375 20.4375 
Q 29.296875 22.796875 22 25.296875 
Q 17.09375 27 13.34375 28.703125 
Q 9.59375 30.40625 7.5 33.15625 
Q 5.40625 35.90625 5.40625 40.59375 
Q 5.40625 47 10.59375 50.59375 
Q 15.796875 54.203125 24.5 54.203125 
Q 29.296875 54.203125 33.4375 53.25 
Q 37.59375 52.296875 41 50.90625 
L 39 46.203125 
Q 35.90625 47.59375 32 48.5 
Q 28.09375 49.40625 24.203125 49.40625 
Q 17.90625 49.40625 14.40625 47.203125 
Q 10.90625 45 10.90625 40.796875 
Q 10.90625 37.59375 12.59375 35.75 
Q 14.296875 33.90625 17.5 32.546875 
Q 20.703125 31.203125 25.296875 29.59375 
Q 30 28 33.84375 26.203125 
Q 37.703125 24.40625 39.953125 21.59375 
Q 42.203125 18.796875 42.203125 14.09375 
z
" id="NotoSans-Light-73"/>
      <path d="M 0 53.203125 
L 6.09375 53.203125 
L 18.796875 20.09375 
Q 20.40625 15.703125 21.59375 12.25 
Q 22.796875 8.796875 23.5 6.09375 
L 23.796875 6.09375 
Q 24.5 8.40625 25.703125 12 
Q 26.90625 15.59375 28.5 20 
L 40.90625 53.203125 
L 47 53.203125 
L 23 -9.5 
Q 20.296875 -16.5 16.59375 -20.34375 
Q 12.90625 -24.203125 6.59375 -24.203125 
Q 4.59375 -24.203125 3.09375 -23.890625 
Q 1.59375 -23.59375 0.203125 -23.203125 
L 0.203125 -18.40625 
Q 2.796875 -19.296875 5.90625 -19.296875 
Q 10.09375 -19.296875 12.75 -16.6875 
Q 15.40625 -14.09375 17.40625 -8.796875 
L 20.90625 0.203125 
z
" id="NotoSans-Light-79"/>
      <path d="M 4.09375 27.40625 
Q 4.09375 40.203125 7.796875 51.5 
Q 11.5 62.796875 18.703125 71.40625 
L 24.5 71.40625 
Q 17.203125 62.203125 13.546875 50.953125 
Q 9.90625 39.703125 9.90625 27.5 
Q 9.90625 15.40625 13.546875 4.40625 
Q 17.203125 -6.59375 24.40625 -15.796875 
L 18.703125 -15.796875 
Q 11.5 -7.203125 7.796875 3.796875 
Q 4.09375 14.796875 4.09375 27.40625 
z
" id="NotoSans-Light-28"/>
      <path d="M 33.59375 71.40625 
L 6.796875 0 
L 1.203125 0 
L 27.796875 71.40625 
z
" id="NotoSans-Light-2f"/>
      <path d="M 14.40625 76 
L 14.40625 37.40625 
Q 14.40625 34.203125 14.296875 30.75 
Q 14.203125 27.296875 14.203125 23.90625 
L 14.296875 23.90625 
Q 15.59375 25.5 17.25 27.546875 
Q 18.90625 29.59375 20.40625 31.203125 
L 40.59375 53.203125 
L 47.40625 53.203125 
L 26.40625 30.40625 
L 49.203125 0 
L 42.40625 0 
L 22.40625 26.59375 
L 14.40625 18.40625 
L 14.40625 0 
L 8.796875 0 
L 8.796875 76 
z
" id="NotoSans-Light-6b"/>
      <path d="M 64.40625 54.203125 
Q 72.296875 54.203125 76.75 49.703125 
Q 81.203125 45.203125 81.203125 35.5 
L 81.203125 0 
L 75.59375 0 
L 75.59375 35.203125 
Q 75.59375 42.40625 72.390625 45.796875 
Q 69.203125 49.203125 63.59375 49.203125 
Q 56 49.203125 51.890625 44.75 
Q 47.796875 40.296875 47.796875 31 
L 47.796875 0 
L 42.203125 0 
L 42.203125 35.203125 
Q 42.203125 42.40625 39 45.796875 
Q 35.796875 49.203125 30.203125 49.203125 
Q 22.59375 49.203125 18.5 44.546875 
Q 14.40625 39.90625 14.40625 30.203125 
L 14.40625 0 
L 8.796875 0 
L 8.796875 53.203125 
L 13.40625 53.203125 
L 14.203125 44.796875 
L 14.59375 44.796875 
Q 16.59375 48.703125 20.640625 51.453125 
Q 24.703125 54.203125 31 54.203125 
Q 36.796875 54.203125 40.796875 51.703125 
Q 44.796875 49.203125 46.40625 44.203125 
L 46.796875 44.203125 
Q 49 49 53.59375 51.59375 
Q 58.203125 54.203125 64.40625 54.203125 
z
" id="NotoSans-Light-6d"/>
      <path d="M 19.1875 8.296875 
L 53.609375 8.296875 
L 53.609375 0 
L 7.328125 0 
L 7.328125 8.296875 
Q 12.9375 14.109375 22.625 23.890625 
Q 32.328125 33.6875 34.8125 36.53125 
Q 39.546875 41.84375 41.421875 45.53125 
Q 43.3125 49.21875 43.3125 52.78125 
Q 43.3125 58.59375 39.234375 62.25 
Q 35.15625 65.921875 28.609375 65.921875 
Q 23.96875 65.921875 18.8125 64.3125 
Q 13.671875 62.703125 7.8125 59.421875 
L 7.8125 69.390625 
Q 13.765625 71.78125 18.9375 73 
Q 24.125 74.21875 28.421875 74.21875 
Q 39.75 74.21875 46.484375 68.546875 
Q 53.21875 62.890625 53.21875 53.421875 
Q 53.21875 48.921875 51.53125 44.890625 
Q 49.859375 40.875 45.40625 35.40625 
Q 44.1875 33.984375 37.640625 27.21875 
Q 31.109375 20.453125 19.1875 8.296875 
z
" id="DejaVuSans-32"/>
      <path d="M 23.703125 27.796875 
Q 23.703125 15.09375 20 3.84375 
Q 16.296875 -7.40625 9.09375 -15.796875 
L 3.40625 -15.796875 
Q 10.703125 -6.59375 14.296875 4.5 
Q 17.90625 15.59375 17.90625 27.796875 
Q 17.90625 40 14.25 51.09375 
Q 10.59375 62.203125 3.296875 71.40625 
L 9.09375 71.40625 
Q 16.296875 62.703125 20 51.59375 
Q 23.703125 40.5 23.703125 27.796875 
z
" id="NotoSans-Light-29"/>
     </defs>
     <g transform="translate(210.82 415.683125)scale(0.14 -0.14)">
      <use transform="translate(0 0.765625)" xlink:href="#NotoSans-Light-50"/>
      <use transform="translate(58.899994 0.765625)" xlink:href="#NotoSans-Light-6f"/>
      <use transform="translate(117.899979 0.765625)" xlink:href="#NotoSans-Light-70"/>
      <use transform="translate(177.799973 0.765625)" xlink:href="#NotoSans-Light-75"/>
      <use transform="translate(237.399963 0.765625)" xlink:href="#NotoSans-Light-6c"/>
      <use transform="translate(260.59996 0.765625)" xlink:href="#NotoSans-Light-61"/>
      <use transform="translate(314.199951 0.765625)" xlink:href="#NotoSans-Light-74"/>
      <use transform="translate(348.199936 0.765625)" xlink:href="#NotoSans-Light-69"/>
      <use transform="translate(371.399933 0.765625)" xlink:href="#NotoSans-Light-6f"/>
      <use transform="translate(430.399918 0.765625)" xlink:href="#NotoSans-Light-6e"/>
      <use transform="translate(489.999908 0.765625)" xlink:href="#NotoSans-Light-20"/>
      <use transform="translate(515.999893 0.765625)" xlink:href="#NotoSans-Light-44"/>
      <use transform="translate(587.099884 0.765625)" xlink:href="#NotoSans-Light-65"/>
      <use transform="translate(642.299881 0.765625)" xlink:href="#NotoSans-Light-6e"/>
      <use transform="translate(701.899872 0.765625)" xlink:href="#NotoSans-Light-73"/>
      <use transform="translate(748.69986 0.765625)" xlink:href="#NotoSans-Light-69"/>
      <use transform="translate(771.899857 0.765625)" xlink:href="#NotoSans-Light-74"/>
      <use transform="translate(805.899841 0.765625)" xlink:href="#NotoSans-Light-79"/>
      <use transform="translate(852.799835 0.765625)" xlink:href="#NotoSans-Light-20"/>
      <use transform="translate(878.79982 0.765625)" xlink:href="#NotoSans-Light-28"/>
      <use transform="translate(906.599808 0.765625)" xlink:href="#NotoSans-Light-70"/>
      <use transform="translate(966.499802 0.765625)" xlink:href="#NotoSans-Light-65"/>
      <use transform="translate(1021.699799 0.765625)" xlink:href="#NotoSans-Light-6f"/>
      <use transform="translate(1080.699783 0.765625)" xlink:href="#NotoSans-Light-70"/>
      <use transform="translate(1140.599777 0.765625)" xlink:href="#NotoSans-Light-6c"/>
      <use transform="translate(1163.799774 0.765625)" xlink:href="#NotoSans-Light-65"/>
      <use transform="translate(1218.999771 0.765625)" xlink:href="#NotoSans-Light-2f"/>
      <use transform="translate(1253.699768 0.765625)" xlink:href="#NotoSans-Light-6b"/>
      <use transform="translate(1303.099762 0.765625)" xlink:href="#NotoSans-Light-6d"/>
      <use transform="translate(1393.456787 39.046875)scale(0.7)" xlink:href="#DejaVuSans-32"/>
      <use transform="translate(1440.727295 0.765625)" xlink:href="#NotoSans-Light-29"/>
     </g>
    </g>
   </g>
   <g id="matplotlib.axis_2">
    <g id="ytick_1">
     <g id="line2d_48">
      <defs>
       <path d="M 0 0 
L -3.5 0 
" id="m7ab60eb7a5" style="stroke:#000000;stroke-width:0.8;"/>
      </defs>
      <g>
       <use style="stroke:#000000;stroke-width:0.8;" x="76.5" xlink:href="#m7ab60eb7a5" y="345.20459"/>
      </g>
     </g>
     <g id="text_7">
      <!-- 35 -->
      <defs>
       <path d="M 27.40625 43.203125 
Q 38.296875 43.203125 44.640625 37.703125 
Q 51 32.203125 51 22.203125 
Q 51 11.40625 44 5.203125 
Q 37 -1 25 -1 
Q 19.40625 -1 14.75 0.09375 
Q 10.09375 1.203125 6.796875 3 
L 6.796875 8.703125 
Q 10.296875 6.59375 15.140625 5.296875 
Q 20 4 25.09375 4 
Q 34.203125 4 39.703125 8.546875 
Q 45.203125 13.09375 45.203125 21.796875 
Q 45.203125 29.59375 40.453125 33.890625 
Q 35.703125 38.203125 26 38.203125 
Q 22.203125 38.203125 18.59375 37.703125 
Q 15 37.203125 12 36.40625 
L 8.90625 38.5 
L 11.796875 71.40625 
L 46.40625 71.40625 
L 46.40625 66.203125 
L 16.59375 66.203125 
L 14.59375 41.59375 
Q 16.703125 42 19.890625 42.59375 
Q 23.09375 43.203125 27.40625 43.203125 
z
" id="NotoSans-Light-35"/>
      </defs>
      <g transform="translate(53.51375 350.52459)scale(0.14 -0.14)">
       <use xlink:href="#NotoSans-Light-33"/>
       <use x="57.099991" xlink:href="#NotoSans-Light-35"/>
      </g>
     </g>
    </g>
    <g id="ytick_2">
     <g id="line2d_49">
      <g>
       <use style="stroke:#000000;stroke-width:0.8;" x="76.5" xlink:href="#m7ab60eb7a5" y="304.490655"/>
      </g>
     </g>
     <g id="text_8">
      <!-- 40 -->
      <g transform="translate(53.51375 309.810655)scale(0.14 -0.14)">
       <use xlink:href="#NotoSans-Light-34"/>
       <use x="57.099991" xlink:href="#NotoSans-Light-30"/>
      </g>
     </g>
    </g>
    <g id="ytick_3">
     <g id="line2d_50">
      <g>
       <use style="stroke:#000000;stroke-width:0.8;" x="76.5" xlink:href="#m7ab60eb7a5" y="263.776721"/>
      </g>
     </g>
     <g id="text_9">
      <!-- 45 -->
      <g transform="translate(53.51375 269.096721)scale(0.14 -0.14)">
       <use xlink:href="#NotoSans-Light-34"/>
       <use x="57.099991" xlink:href="#NotoSans-Light-35"/>
      </g>
     </g>
    </g>
    <g id="ytick_4">
     <g id="line2d_51">
      <g>
       <use style="stroke:#000000;stroke-width:0.8;" x="76.5" xlink:href="#m7ab60eb7a5" y="223.062787"/>
      </g>
     </g>
     <g id="text_10">
      <!-- 50 -->
      <g transform="translate(53.51375 228.382787)scale(0.14 -0.14)">
       <use xlink:href="#NotoSans-Light-35"/>
       <use x="57.099991" xlink:href="#NotoSans-Light-30"/>
      </g>
     </g>
    </g>
    <g id="ytick_5">
     <g id="line2d_52">
      <g>
       <use style="stroke:#000000;stroke-width:0.8;" x="76.5" xlink:href="#m7ab60eb7a5" y="182.348853"/>
      </g>
     </g>
     <g id="text_11">
      <!-- 55 -->
      <g transform="translate(53.51375 187.668853)scale(0.14 -0.14)">
       <use xlink:href="#NotoSans-Light-35"/>
       <use x="57.099991" xlink:href="#NotoSans-Light-35"/>
      </g>
     </g>
    </g>
    <g id="ytick_6">
     <g id="line2d_53">
      <g>
       <use style="stroke:#000000;stroke-width:0.8;" x="76.5" xlink:href="#m7ab60eb7a5" y="141.634918"/>
      </g>
     </g>
     <g id="text_12">
      <!-- 60 -->
      <defs>
       <path d="M 6.203125 30.40625 
Q 6.203125 43.203125 9.453125 52.640625 
Q 12.703125 62.09375 19.546875 67.296875 
Q 26.40625 72.5 37.40625 72.5 
Q 42.90625 72.5 46.796875 71.40625 
L 46.796875 66.296875 
Q 45 67 42.59375 67.296875 
Q 40.203125 67.59375 37.59375 67.59375 
Q 24.703125 67.59375 18.453125 58.890625 
Q 12.203125 50.203125 11.796875 34.203125 
L 12.203125 34.203125 
Q 14.296875 38.09375 18.890625 41.1875 
Q 23.5 44.296875 31.09375 44.296875 
Q 40.703125 44.296875 46.296875 38.546875 
Q 51.90625 32.796875 51.90625 22.796875 
Q 51.90625 12 46.046875 5.5 
Q 40.203125 -1 29.796875 -1 
Q 22.203125 -1 16.953125 3.046875 
Q 11.703125 7.09375 8.953125 14.140625 
Q 6.203125 21.203125 6.203125 30.40625 
z
M 29.796875 3.90625 
Q 37.40625 3.90625 41.796875 8.75 
Q 46.203125 13.59375 46.203125 22.796875 
Q 46.203125 30.59375 42.203125 35.09375 
Q 38.203125 39.59375 30.203125 39.59375 
Q 24.703125 39.59375 20.640625 37.390625 
Q 16.59375 35.203125 14.390625 31.84375 
Q 12.203125 28.5 12.203125 25.203125 
Q 12.203125 22.09375 13.09375 18.4375 
Q 14 14.796875 16.046875 11.5 
Q 18.09375 8.203125 21.4375 6.046875 
Q 24.796875 3.90625 29.796875 3.90625 
z
" id="NotoSans-Light-36"/>
      </defs>
      <g transform="translate(53.51375 146.954918)scale(0.14 -0.14)">
       <use xlink:href="#NotoSans-Light-36"/>
       <use x="57.099991" xlink:href="#NotoSans-Light-30"/>
      </g>
     </g>
    </g>
    <g id="ytick_7">
     <g id="line2d_54">
      <g>
       <use style="stroke:#000000;stroke-width:0.8;" x="76.5" xlink:href="#m7ab60eb7a5" y="100.920984"/>
      </g>
     </g>
     <g id="text_13">
      <!-- 65 -->
      <g transform="translate(53.51375 106.240984)scale(0.14 -0.14)">
       <use xlink:href="#NotoSans-Light-36"/>
       <use x="57.099991" xlink:href="#NotoSans-Light-35"/>
      </g>
     </g>
    </g>
    <g id="ytick_8">
     <g id="line2d_55">
      <g>
       <use style="stroke:#000000;stroke-width:0.8;" x="76.5" xlink:href="#m7ab60eb7a5" y="60.20705"/>
      </g>
     </g>
     <g id="text_14">
      <!-- 70 -->
      <defs>
       <path d="M 16 0 
L 45.40625 66.203125 
L 5.09375 66.203125 
L 5.09375 71.40625 
L 51.59375 71.40625 
L 51.59375 67.203125 
L 22.203125 0 
z
" id="NotoSans-Light-37"/>
      </defs>
      <g transform="translate(53.51375 65.52705)scale(0.14 -0.14)">
       <use xlink:href="#NotoSans-Light-37"/>
       <use x="57.099991" xlink:href="#NotoSans-Light-30"/>
      </g>
     </g>
    </g>
    <g id="text_15">
     <!-- Percentage of Total Riding Votes -->
     <defs>
      <path d="M 30.59375 54.09375 
Q 34.796875 54.09375 37.796875 53.203125 
L 37 48 
Q 35.40625 48.40625 33.796875 48.59375 
Q 32.203125 48.796875 30.40625 48.796875 
Q 23 48.796875 18.75 43.4375 
Q 14.5 38.09375 14.5 29.203125 
L 14.5 0 
L 8.796875 0 
L 8.796875 53.203125 
L 13.59375 53.203125 
L 14.203125 43.203125 
L 14.5 43.203125 
Q 16.5 47.703125 20.546875 50.890625 
Q 24.59375 54.09375 30.59375 54.09375 
z
" id="NotoSans-Light-72"/>
      <path d="M 30.09375 -1 
Q 18.40625 -1 12.046875 6.140625 
Q 5.703125 13.296875 5.703125 26.296875 
Q 5.703125 35.203125 8.890625 41.453125 
Q 12.09375 47.703125 17.84375 50.953125 
Q 23.59375 54.203125 31.203125 54.203125 
Q 35.09375 54.203125 38.4375 53.5 
Q 41.796875 52.796875 44.40625 51.59375 
L 42.796875 46.59375 
Q 37.203125 49.09375 31.203125 49.09375 
Q 21.796875 49.09375 16.6875 43 
Q 11.59375 36.90625 11.59375 26.40625 
Q 11.59375 16.40625 16.09375 10.203125 
Q 20.59375 4 30 4 
Q 34 4 37.5 4.796875 
Q 41 5.59375 43.796875 6.90625 
L 43.796875 1.796875 
Q 41.203125 0.5 37.796875 -0.25 
Q 34.40625 -1 30.09375 -1 
z
" id="NotoSans-Light-63"/>
      <path d="M 28.203125 54.203125 
Q 34.5 54.203125 38.640625 51.796875 
Q 42.796875 49.40625 45.296875 45.09375 
L 45.59375 45.09375 
L 46.5 53.203125 
L 51.09375 53.203125 
L 51.09375 -1.703125 
Q 51.09375 -12.203125 45.75 -18.09375 
Q 40.40625 -24 28.203125 -24 
Q 22.203125 -24 17.59375 -23 
Q 13 -22 9.203125 -20.40625 
L 9.203125 -14.90625 
Q 13 -16.796875 17.84375 -17.9375 
Q 22.703125 -19.09375 28.40625 -19.09375 
Q 37.09375 -19.09375 41.25 -14.5 
Q 45.40625 -9.90625 45.40625 -2 
L 45.40625 1.09375 
Q 45.40625 3.203125 45.5 5.296875 
Q 45.59375 7.40625 45.703125 9.40625 
L 45.40625 9.40625 
Q 43.203125 4.203125 38.59375 1.59375 
Q 34 -1 27.59375 -1 
Q 17.203125 -1 11.453125 6 
Q 5.703125 13 5.703125 26.203125 
Q 5.703125 39.09375 11.453125 46.640625 
Q 17.203125 54.203125 28.203125 54.203125 
z
M 28.796875 49.203125 
Q 20.203125 49.203125 15.890625 43.140625 
Q 11.59375 37.09375 11.59375 26.09375 
Q 11.59375 15.203125 15.84375 9.5 
Q 20.09375 3.796875 28.203125 3.796875 
Q 34.796875 3.796875 38.546875 6.5 
Q 42.296875 9.203125 43.890625 13.890625 
Q 45.5 18.59375 45.5 24.59375 
L 45.5 28 
Q 45.5 38.203125 41.75 43.703125 
Q 38 49.203125 28.796875 49.203125 
z
" id="NotoSans-Light-67"/>
      <path d="M 29.5 48.59375 
L 16.796875 48.59375 
L 16.796875 0 
L 11.09375 0 
L 11.09375 48.59375 
L 1.296875 48.59375 
L 1.296875 51.703125 
L 11.09375 53.40625 
L 11.09375 58.59375 
Q 11.09375 67.796875 15.046875 72.140625 
Q 19 76.5 27 76.5 
Q 29.796875 76.5 32.09375 76.046875 
Q 34.40625 75.59375 36.296875 75 
L 35 70.203125 
Q 33.203125 70.796875 31.140625 71.1875 
Q 29.09375 71.59375 27 71.59375 
Q 21.59375 71.59375 19.1875 68.546875 
Q 16.796875 65.5 16.796875 58.703125 
L 16.796875 53.203125 
L 29.5 53.203125 
z
" id="NotoSans-Light-66"/>
      <path d="M 29.40625 0 
L 23.59375 0 
L 23.59375 66.203125 
L 0.59375 66.203125 
L 0.59375 71.40625 
L 52.40625 71.40625 
L 52.40625 66.203125 
L 29.40625 66.203125 
z
" id="NotoSans-Light-54"/>
      <path d="M 27.796875 71.40625 
Q 40.59375 71.40625 47.046875 66.90625 
Q 53.5 62.40625 53.5 51.796875 
Q 53.5 43.59375 49.140625 39 
Q 44.796875 34.40625 38.296875 32.40625 
L 57.90625 0 
L 51 0 
L 32.796875 30.796875 
L 15.796875 30.796875 
L 15.796875 0 
L 10 0 
L 10 71.40625 
z
M 27.296875 66.203125 
L 15.796875 66.203125 
L 15.796875 35.796875 
L 29.296875 35.796875 
Q 38 35.796875 42.75 39.890625 
Q 47.5 44 47.5 51.59375 
Q 47.5 59.796875 42.546875 63 
Q 37.59375 66.203125 27.296875 66.203125 
z
" id="NotoSans-Light-52"/>
      <path d="M 27.90625 -1 
Q 17.203125 -1 11.453125 5.84375 
Q 5.703125 12.703125 5.703125 26 
Q 5.703125 39.796875 11.75 47 
Q 17.796875 54.203125 28.40625 54.203125 
Q 35.09375 54.203125 39.296875 51.296875 
Q 43.5 48.40625 45.5 44 
L 45.90625 44 
Q 45.796875 46.40625 45.640625 49.296875 
Q 45.5 52.203125 45.5 54.40625 
L 45.5 76 
L 51.203125 76 
L 51.203125 0 
L 46.59375 0 
L 45.796875 9.203125 
L 45.5 9.203125 
Q 43.40625 5 39.203125 2 
Q 35 -1 27.90625 -1 
z
M 28.59375 3.90625 
Q 37.796875 3.90625 41.6875 9.5 
Q 45.59375 15.09375 45.59375 25.59375 
L 45.59375 26.59375 
Q 45.59375 37.59375 41.6875 43.4375 
Q 37.796875 49.296875 29 49.296875 
Q 20.40625 49.296875 16 43.25 
Q 11.59375 37.203125 11.59375 26 
Q 11.59375 15.09375 15.796875 9.5 
Q 20 3.90625 28.59375 3.90625 
z
" id="NotoSans-Light-64"/>
      <path d="M 58.203125 71.40625 
L 32 0 
L 26.203125 0 
L 0 71.40625 
L 6.09375 71.40625 
L 25 19.90625 
Q 26.296875 16.296875 27.34375 13 
Q 28.40625 9.703125 29.09375 6.796875 
Q 29.796875 9.703125 30.796875 12.890625 
Q 31.796875 16.09375 33.203125 20 
L 52 71.40625 
z
" id="NotoSans-Light-56"/>
     </defs>
     <g transform="translate(46.15375 318.122969)rotate(-90)scale(0.14 -0.14)">
      <use xlink:href="#NotoSans-Light-50"/>
      <use x="58.899994" xlink:href="#NotoSans-Light-65"/>
      <use x="114.099991" xlink:href="#NotoSans-Light-72"/>
      <use x="153.499985" xlink:href="#NotoSans-Light-63"/>
      <use x="201.099976" xlink:href="#NotoSans-Light-65"/>
      <use x="256.299973" xlink:href="#NotoSans-Light-6e"/>
      <use x="315.899963" xlink:href="#NotoSans-Light-74"/>
      <use x="349.899948" xlink:href="#NotoSans-Light-61"/>
      <use x="403.499939" xlink:href="#NotoSans-Light-67"/>
      <use x="463.399933" xlink:href="#NotoSans-Light-65"/>
      <use x="518.59993" xlink:href="#NotoSans-Light-20"/>
      <use x="544.599915" xlink:href="#NotoSans-Light-6f"/>
      <use x="603.599899" xlink:href="#NotoSans-Light-66"/>
      <use x="634.499893" xlink:href="#NotoSans-Light-20"/>
      <use x="660.499878" xlink:href="#NotoSans-Light-54"/>
      <use x="713.499863" xlink:href="#NotoSans-Light-6f"/>
      <use x="772.499847" xlink:href="#NotoSans-Light-74"/>
      <use x="806.499832" xlink:href="#NotoSans-Light-61"/>
      <use x="860.099823" xlink:href="#NotoSans-Light-6c"/>
      <use x="883.29982" xlink:href="#NotoSans-Light-20"/>
      <use x="909.299805" xlink:href="#NotoSans-Light-52"/>
      <use x="969.299789" xlink:href="#NotoSans-Light-69"/>
      <use x="992.499786" xlink:href="#NotoSans-Light-64"/>
      <use x="1052.39978" xlink:href="#NotoSans-Light-69"/>
      <use x="1075.599777" xlink:href="#NotoSans-Light-6e"/>
      <use x="1135.199768" xlink:href="#NotoSans-Light-67"/>
      <use x="1195.099762" xlink:href="#NotoSans-Light-20"/>
      <use x="1221.099747" xlink:href="#NotoSans-Light-56"/>
      <use x="1279.299744" xlink:href="#NotoSans-Light-6f"/>
      <use x="1338.299728" xlink:href="#NotoSans-Light-74"/>
      <use x="1372.299713" xlink:href="#NotoSans-Light-65"/>
      <use x="1427.49971" xlink:href="#NotoSans-Light-73"/>
     </g>
    </g>
   </g>
   <g id="patch_3">
    <path d="M 76.5 378 
L 76.5 51.84 
" style="fill:none;stroke:#000000;stroke-linecap:square;stroke-linejoin:miter;stroke-width:0.8;"/>
   </g>
   <g id="patch_4">
    <path d="M 76.5 378 
L 550.8 378 
" style="fill:none;stroke:#000000;stroke-linecap:square;stroke-linejoin:miter;stroke-width:0.8;"/>
   </g>
   <g id="text_16">
    <!-- 2018 Ontario Provincial Election -->
    <defs>
     <path d="M 28.40625 72.40625 
Q 37.59375 72.40625 43.25 68.046875 
Q 48.90625 63.703125 48.90625 55.703125 
Q 48.90625 49.203125 44.65625 45.046875 
Q 40.40625 40.90625 33.796875 38 
Q 41.59375 34.796875 46.390625 30.296875 
Q 51.203125 25.796875 51.203125 18.296875 
Q 51.203125 12.203125 48.25 7.890625 
Q 45.296875 3.59375 40.140625 1.296875 
Q 35 -1 28.40625 -1 
Q 17.90625 -1 11.75 4.09375 
Q 5.59375 9.203125 5.59375 17.796875 
Q 5.59375 23 7.796875 26.75 
Q 10 30.5 13.796875 33.140625 
Q 17.59375 35.796875 22.40625 37.703125 
Q 18.40625 39.59375 15.15625 41.9375 
Q 11.90625 44.296875 9.953125 47.640625 
Q 8 51 8 55.59375 
Q 8 60.796875 10.640625 64.59375 
Q 13.296875 68.40625 17.890625 70.40625 
Q 22.5 72.40625 28.40625 72.40625 
z
M 28.40625 67.59375 
Q 22 67.59375 17.796875 64.390625 
Q 13.59375 61.203125 13.59375 55.40625 
Q 13.59375 49.5 17.84375 46.140625 
Q 22.09375 42.796875 28.796875 40.296875 
Q 35.5 43.09375 39.34375 46.5 
Q 43.203125 49.90625 43.203125 55.59375 
Q 43.203125 61.40625 39.203125 64.5 
Q 35.203125 67.59375 28.40625 67.59375 
z
M 11.296875 17.796875 
Q 11.296875 11.5 15.75 7.59375 
Q 20.203125 3.703125 28.203125 3.703125 
Q 36.203125 3.703125 40.890625 7.546875 
Q 45.59375 11.40625 45.59375 18.203125 
Q 45.59375 24 41.4375 27.84375 
Q 37.296875 31.703125 29.796875 34.40625 
L 27.59375 35.203125 
Q 20.203125 32.5 15.75 28.546875 
Q 11.296875 24.59375 11.296875 17.796875 
z
" id="NotoSans-Light-38"/>
     <path d="M 70.5 35.796875 
Q 70.5 24.90625 66.890625 16.59375 
Q 63.296875 8.296875 56.140625 3.640625 
Q 49 -1 38.40625 -1 
Q 27.59375 -1 20.4375 3.640625 
Q 13.296875 8.296875 9.75 16.640625 
Q 6.203125 25 6.203125 35.90625 
Q 6.203125 46.796875 9.84375 55 
Q 13.5 63.203125 20.75 67.84375 
Q 28 72.5 38.703125 72.5 
Q 49 72.5 56.046875 68.046875 
Q 63.09375 63.59375 66.796875 55.390625 
Q 70.5 47.203125 70.5 35.796875 
z
M 12.296875 35.796875 
Q 12.296875 26.296875 15.09375 19.140625 
Q 17.90625 12 23.703125 8.046875 
Q 29.5 4.09375 38.40625 4.09375 
Q 47.40625 4.09375 53.15625 8.046875 
Q 58.90625 12 61.65625 19.09375 
Q 64.40625 26.203125 64.40625 35.796875 
Q 64.40625 50.59375 57.953125 58.9375 
Q 51.5 67.296875 38.703125 67.296875 
Q 29.796875 67.296875 23.890625 63.34375 
Q 18 59.40625 15.140625 52.296875 
Q 12.296875 45.203125 12.296875 35.796875 
z
" id="NotoSans-Light-4f"/>
     <path d="M 20.40625 0 
L 0 53.203125 
L 6 53.203125 
L 19.203125 17.90625 
Q 20.5 14.59375 21.546875 11.390625 
Q 22.59375 8.203125 23.203125 5.703125 
L 23.59375 5.703125 
Q 24.296875 8.203125 25.34375 11.453125 
Q 26.40625 14.703125 27.59375 17.90625 
L 40.796875 53.203125 
L 46.90625 53.203125 
L 26.5 0 
z
" id="NotoSans-Light-76"/>
     <path d="M 49.203125 0 
L 10 0 
L 10 71.40625 
L 49.203125 71.40625 
L 49.203125 66.203125 
L 15.796875 66.203125 
L 15.796875 40 
L 47.296875 40 
L 47.296875 34.90625 
L 15.796875 34.90625 
L 15.796875 5.203125 
L 49.203125 5.203125 
z
" id="NotoSans-Light-45"/>
    </defs>
    <g transform="translate(192.381563 45.84)scale(0.168 -0.168)">
     <use xlink:href="#NotoSans-Light-32"/>
     <use x="57.099991" xlink:href="#NotoSans-Light-30"/>
     <use x="114.199982" xlink:href="#NotoSans-Light-31"/>
     <use x="171.299973" xlink:href="#NotoSans-Light-38"/>
     <use x="228.399963" xlink:href="#NotoSans-Light-20"/>
     <use x="254.399948" xlink:href="#NotoSans-Light-4f"/>
     <use x="331.199936" xlink:href="#NotoSans-Light-6e"/>
     <use x="390.799927" xlink:href="#NotoSans-Light-74"/>
     <use x="424.799911" xlink:href="#NotoSans-Light-61"/>
     <use x="478.399902" xlink:href="#NotoSans-Light-72"/>
     <use x="517.799896" xlink:href="#NotoSans-Light-69"/>
     <use x="540.999893" xlink:href="#NotoSans-Light-6f"/>
     <use x="599.999878" xlink:href="#NotoSans-Light-20"/>
     <use x="625.999863" xlink:href="#NotoSans-Light-50"/>
     <use x="684.899857" xlink:href="#NotoSans-Light-72"/>
     <use x="724.29985" xlink:href="#NotoSans-Light-6f"/>
     <use x="783.299835" xlink:href="#NotoSans-Light-76"/>
     <use x="830.199829" xlink:href="#NotoSans-Light-69"/>
     <use x="853.399826" xlink:href="#NotoSans-Light-6e"/>
     <use x="912.999817" xlink:href="#NotoSans-Light-63"/>
     <use x="960.599808" xlink:href="#NotoSans-Light-69"/>
     <use x="983.799805" xlink:href="#NotoSans-Light-61"/>
     <use x="1037.399796" xlink:href="#NotoSans-Light-6c"/>
     <use x="1060.599792" xlink:href="#NotoSans-Light-20"/>
     <use x="1086.599777" xlink:href="#NotoSans-Light-45"/>
     <use x="1141.899765" xlink:href="#NotoSans-Light-6c"/>
     <use x="1165.099762" xlink:href="#NotoSans-Light-65"/>
     <use x="1220.299759" xlink:href="#NotoSans-Light-63"/>
     <use x="1267.89975" xlink:href="#NotoSans-Light-74"/>
     <use x="1301.899734" xlink:href="#NotoSans-Light-69"/>
     <use x="1325.099731" xlink:href="#NotoSans-Light-6f"/>
     <use x="1384.099716" xlink:href="#NotoSans-Light-6e"/>
    </g>
   </g>
   <g id="legend_1">
    <g id="patch_5">
     <path d="M 83.5 146.8125 
L 163.035313 146.8125 
L 163.035313 58.84 
L 83.5 58.84 
z
" style="fill:#ffffff;stroke:#cccccc;stroke-linejoin:miter;"/>
    </g>
    <g id="PathCollection_5">
     <g>
      <use style="fill:#2b328c;stroke:#2b328c;" x="103.1" xlink:href="#m115c394aad" y="71.405"/>
     </g>
    </g>
    <g id="text_17">
     <!-- PCP -->
     <defs>
      <path d="M 40.40625 67.203125 
Q 31.59375 67.203125 25.296875 63.25 
Q 19 59.296875 15.640625 52.25 
Q 12.296875 45.203125 12.296875 35.796875 
Q 12.296875 26.203125 15.34375 19.09375 
Q 18.40625 12 24.40625 8.09375 
Q 30.40625 4.203125 39.40625 4.203125 
Q 44.59375 4.203125 48.9375 5 
Q 53.296875 5.796875 57.203125 7 
L 57.203125 2 
Q 53.5 0.59375 49.046875 -0.203125 
Q 44.59375 -1 38.796875 -1 
Q 28 -1 20.75 3.59375 
Q 13.5 8.203125 9.84375 16.5 
Q 6.203125 24.796875 6.203125 35.90625 
Q 6.203125 46.5 10.25 54.75 
Q 14.296875 63 21.9375 67.703125 
Q 29.59375 72.40625 40.40625 72.40625 
Q 50.90625 72.40625 59.203125 68.40625 
L 56.90625 63.40625 
Q 49.09375 67.203125 40.40625 67.203125 
z
" id="NotoSans-Light-43"/>
     </defs>
     <g transform="translate(128.3 75.08)scale(0.14 -0.14)">
      <use xlink:href="#NotoSans-Light-50"/>
      <use x="58.899994" xlink:href="#NotoSans-Light-43"/>
      <use x="121.199982" xlink:href="#NotoSans-Light-50"/>
     </g>
    </g>
    <g id="PathCollection_6">
     <g>
      <use style="fill:#ff4c00;stroke:#ff4c00;" x="103.1" xlink:href="#mb945d711ac" y="92.348125"/>
     </g>
    </g>
    <g id="text_18">
     <!-- NDP -->
     <defs>
      <path d="M 62.796875 0 
L 56.59375 0 
L 15.296875 62.40625 
L 15 62.40625 
Q 15.203125 58.5 15.296875 54.140625 
Q 15.40625 49.796875 15.40625 45 
L 15.40625 0 
L 10 0 
L 10 71.40625 
L 16.203125 71.40625 
L 57.40625 9.203125 
L 57.796875 9.203125 
Q 57.59375 12.296875 57.5 17.140625 
Q 57.40625 22 57.40625 26.09375 
L 57.40625 71.40625 
L 62.796875 71.40625 
z
" id="NotoSans-Light-4e"/>
     </defs>
     <g transform="translate(128.3 96.023125)scale(0.14 -0.14)">
      <use xlink:href="#NotoSans-Light-4e"/>
      <use x="72.899994" xlink:href="#NotoSans-Light-44"/>
      <use x="143.999985" xlink:href="#NotoSans-Light-50"/>
     </g>
    </g>
    <g id="PathCollection_7">
     <g>
      <use style="fill:#e3102b;stroke:#e3102b;" x="103.1" xlink:href="#m4fc97df281" y="113.29125"/>
     </g>
    </g>
    <g id="text_19">
     <!-- LIB -->
     <defs>
      <path d="M 10 0 
L 10 71.40625 
L 15.796875 71.40625 
L 15.796875 5.203125 
L 49.203125 5.203125 
L 49.203125 0 
z
" id="NotoSans-Light-4c"/>
      <path d="M 26 0 
L 5 0 
L 5 3.59375 
L 12.59375 4.703125 
L 12.59375 66.59375 
L 5 67.796875 
L 5 71.40625 
L 26 71.40625 
L 26 67.796875 
L 18.40625 66.59375 
L 18.40625 4.703125 
L 26 3.59375 
z
" id="NotoSans-Light-49"/>
      <path d="M 10 71.40625 
L 29.796875 71.40625 
Q 43 71.40625 49.296875 67.296875 
Q 55.59375 63.203125 55.59375 54 
Q 55.59375 47.796875 52 43.390625 
Q 48.40625 39 41.703125 37.796875 
L 41.703125 37.40625 
Q 49.5 36.203125 53.546875 32.046875 
Q 57.59375 27.90625 57.59375 20.296875 
Q 57.59375 13.40625 54.4375 8.90625 
Q 51.296875 4.40625 45.640625 2.203125 
Q 40 0 32.59375 0 
L 10 0 
z
M 15.796875 39.90625 
L 31.09375 39.90625 
Q 40.90625 39.90625 45.25 43.296875 
Q 49.59375 46.703125 49.59375 53.40625 
Q 49.59375 60.296875 44.890625 63.296875 
Q 40.203125 66.296875 29.796875 66.296875 
L 15.796875 66.296875 
z
M 15.796875 34.90625 
L 15.796875 5 
L 32.09375 5 
Q 51.5 5 51.5 20.59375 
Q 51.5 28 46.546875 31.453125 
Q 41.59375 34.90625 31.203125 34.90625 
z
" id="NotoSans-Light-42"/>
     </defs>
     <g transform="translate(128.3 116.96625)scale(0.14 -0.14)">
      <use xlink:href="#NotoSans-Light-4c"/>
      <use x="51.499985" xlink:href="#NotoSans-Light-49"/>
      <use x="82.599976" xlink:href="#NotoSans-Light-42"/>
     </g>
    </g>
    <g id="PathCollection_8">
     <g>
      <use style="fill:#307730;stroke:#307730;" x="103.1" xlink:href="#mfc7b62c349" y="134.234375"/>
     </g>
    </g>
    <g id="text_20">
     <!-- GPO -->
     <defs>
      <path d="M 38.703125 36.40625 
L 64.59375 36.40625 
L 64.59375 3.203125 
Q 59.40625 1.09375 53.59375 0.046875 
Q 47.796875 -1 41 -1 
Q 24 -1 15.09375 8.703125 
Q 6.203125 18.40625 6.203125 35.59375 
Q 6.203125 46.40625 10.546875 54.75 
Q 14.90625 63.09375 23.09375 67.796875 
Q 31.296875 72.5 42.796875 72.5 
Q 48.59375 72.5 53.890625 71.390625 
Q 59.203125 70.296875 63.796875 68.203125 
L 61.40625 63 
Q 52.296875 67.296875 42.40625 67.296875 
Q 33 67.296875 26.25 63.296875 
Q 19.5 59.296875 15.84375 52.140625 
Q 12.203125 45 12.203125 35.59375 
Q 12.203125 20.203125 19.84375 12.140625 
Q 27.5 4.09375 42.203125 4.09375 
Q 47.40625 4.09375 51.453125 4.84375 
Q 55.5 5.59375 58.796875 6.703125 
L 58.796875 31.09375 
L 38.703125 31.09375 
z
" id="NotoSans-Light-47"/>
     </defs>
     <g transform="translate(128.3 137.909375)scale(0.14 -0.14)">
      <use xlink:href="#NotoSans-Light-47"/>
      <use x="72.399994" xlink:href="#NotoSans-Light-50"/>
      <use x="131.299988" xlink:href="#NotoSans-Light-4f"/>
     </g>
    </g>
   </g>
  </g>
  <g id="text_21">
   <!-- Party Votes by Riding Density -->
   <defs>
    <path d="M 14.40625 76 
L 14.40625 55 
Q 14.40625 52.203125 14.296875 48.890625 
Q 14.203125 45.59375 14 43.59375 
L 14.40625 43.59375 
Q 16.40625 48.09375 20.953125 51.140625 
Q 25.5 54.203125 32.5 54.203125 
Q 42.796875 54.203125 48.5 47.25 
Q 54.203125 40.296875 54.203125 26.703125 
Q 54.203125 14.09375 48.453125 6.546875 
Q 42.703125 -1 31.703125 -1 
Q 25 -1 20.75 1.796875 
Q 16.5 4.59375 14.5 8.59375 
L 14 8.59375 
L 13 0 
L 8.703125 0 
L 8.703125 76 
z
M 31.796875 49.296875 
Q 22.5 49.296875 18.453125 43.5 
Q 14.40625 37.703125 14.40625 26.703125 
L 14.40625 26 
Q 14.40625 15.203125 18.25 9.546875 
Q 22.09375 3.90625 31 3.90625 
Q 39.59375 3.90625 43.9375 9.84375 
Q 48.296875 15.796875 48.296875 26.796875 
Q 48.296875 49.296875 31.796875 49.296875 
z
" id="NotoSans-Light-62"/>
   </defs>
   <g transform="translate(160.861875 25.36)scale(0.22 -0.22)">
    <use xlink:href="#NotoSans-Light-50"/>
    <use x="58.899994" xlink:href="#NotoSans-Light-61"/>
    <use x="112.499985" xlink:href="#NotoSans-Light-72"/>
    <use x="151.899979" xlink:href="#NotoSans-Light-74"/>
    <use x="185.899963" xlink:href="#NotoSans-Light-79"/>
    <use x="232.799957" xlink:href="#NotoSans-Light-20"/>
    <use x="258.799942" xlink:href="#NotoSans-Light-56"/>
    <use x="316.999939" xlink:href="#NotoSans-Light-6f"/>
    <use x="375.999924" xlink:href="#NotoSans-Light-74"/>
    <use x="409.999908" xlink:href="#NotoSans-Light-65"/>
    <use x="465.199905" xlink:href="#NotoSans-Light-73"/>
    <use x="511.999893" xlink:href="#NotoSans-Light-20"/>
    <use x="537.999878" xlink:href="#NotoSans-Light-62"/>
    <use x="597.899872" xlink:href="#NotoSans-Light-79"/>
    <use x="644.799866" xlink:href="#NotoSans-Light-20"/>
    <use x="670.79985" xlink:href="#NotoSans-Light-52"/>
    <use x="730.799835" xlink:href="#NotoSans-Light-69"/>
    <use x="753.999832" xlink:href="#NotoSans-Light-64"/>
    <use x="813.899826" xlink:href="#NotoSans-Light-69"/>
    <use x="837.099823" xlink:href="#NotoSans-Light-6e"/>
    <use x="896.699814" xlink:href="#NotoSans-Light-67"/>
    <use x="956.599808" xlink:href="#NotoSans-Light-20"/>
    <use x="982.599792" xlink:href="#NotoSans-Light-44"/>
    <use x="1053.699783" xlink:href="#NotoSans-Light-65"/>
    <use x="1108.89978" xlink:href="#NotoSans-Light-6e"/>
    <use x="1168.499771" xlink:href="#NotoSans-Light-73"/>
    <use x="1215.299759" xlink:href="#NotoSans-Light-69"/>
    <use x="1238.499756" xlink:href="#NotoSans-Light-74"/>
    <use x="1272.499741" xlink:href="#NotoSans-Light-79"/>
   </g>
  </g>
 </g>
 <defs>
  <clipPath id="p4ffdddeaae">
   <rect height="326.16" width="474.3" x="76.5" y="51.84"/>
  </clipPath>
 </defs>
</svg>
